G04 DipTrace 4.0.0.5*
G04 BottomAssembly.gbr*
%MOIN*%
G04 #@! TF.FileFunction,Drawing,Bot*
G04 #@! TF.Part,Single*
%ADD13C,0.004724*%
%FSLAX26Y26*%
G04*
G70*
G90*
G75*
G01*
G04 BotAssy*
%LPD*%
X487159Y3956200D2*
D13*
G02X487159Y3956200I86614J0D01*
G01*
G36*
X635934Y4038045D2*
X636102Y4040615D1*
X636604Y4043140D1*
X637432Y4045578D1*
X638571Y4047888D1*
X640001Y4050029D1*
X641699Y4051965D1*
X643635Y4053662D1*
X645776Y4055093D1*
X648085Y4056232D1*
X650524Y4057059D1*
X653049Y4057562D1*
X655619Y4057730D1*
X658188Y4057562D1*
X660713Y4057059D1*
X663152Y4056232D1*
X665461Y4055093D1*
X667602Y4053662D1*
X669538Y4051965D1*
X671236Y4050029D1*
X672666Y4047888D1*
X673805Y4045578D1*
X674633Y4043140D1*
X675135Y4040615D1*
X675304Y4038045D1*
D1*
X675135Y4035476D1*
X674633Y4032950D1*
X673805Y4030512D1*
X672666Y4028203D1*
X671236Y4026062D1*
X669538Y4024126D1*
X667602Y4022428D1*
X665461Y4020997D1*
X663152Y4019859D1*
X660713Y4019031D1*
X658188Y4018529D1*
X655619Y4018360D1*
X653049Y4018529D1*
X650524Y4019031D1*
X648085Y4019859D1*
X645776Y4020997D1*
X643635Y4022428D1*
X641699Y4024126D1*
X640001Y4026062D1*
X638571Y4028203D1*
X637432Y4030512D1*
X636604Y4032950D1*
X636102Y4035476D1*
X635934Y4038045D1*
D1*
G37*
X4002012Y3981200D2*
D13*
G02X4002012Y3981200I86614J0D01*
G01*
G36*
X4006781Y4043360D2*
X4004212Y4043529D1*
X4001687Y4044031D1*
X3999248Y4044859D1*
X3996939Y4045997D1*
X3994798Y4047428D1*
X3992862Y4049126D1*
X3991164Y4051062D1*
X3989734Y4053203D1*
X3988595Y4055512D1*
X3987767Y4057950D1*
X3987265Y4060476D1*
X3987096Y4063045D1*
X3987265Y4065615D1*
X3987767Y4068140D1*
X3988595Y4070578D1*
X3989734Y4072888D1*
X3991164Y4075029D1*
X3992862Y4076965D1*
X3994798Y4078662D1*
X3996939Y4080093D1*
X3999248Y4081232D1*
X4001687Y4082059D1*
X4004212Y4082562D1*
X4006781Y4082730D1*
D1*
X4009351Y4082562D1*
X4011876Y4082059D1*
X4014315Y4081232D1*
X4016624Y4080093D1*
X4018765Y4078662D1*
X4020701Y4076965D1*
X4022399Y4075029D1*
X4023829Y4072888D1*
X4024968Y4070578D1*
X4025796Y4068140D1*
X4026298Y4065615D1*
X4026466Y4063045D1*
X4026298Y4060476D1*
X4025796Y4057950D1*
X4024968Y4055512D1*
X4023829Y4053203D1*
X4022399Y4051062D1*
X4020701Y4049126D1*
X4018765Y4047428D1*
X4016624Y4045997D1*
X4014315Y4044859D1*
X4011876Y4044031D1*
X4009351Y4043529D1*
X4006781Y4043360D1*
D1*
G37*
X4002012Y3568700D2*
D13*
G02X4002012Y3568700I86614J0D01*
G01*
G36*
X4006781Y3630860D2*
X4004212Y3631029D1*
X4001687Y3631531D1*
X3999248Y3632359D1*
X3996939Y3633497D1*
X3994798Y3634928D1*
X3992862Y3636626D1*
X3991164Y3638562D1*
X3989734Y3640703D1*
X3988595Y3643012D1*
X3987767Y3645450D1*
X3987265Y3647976D1*
X3987096Y3650545D1*
X3987265Y3653115D1*
X3987767Y3655640D1*
X3988595Y3658078D1*
X3989734Y3660388D1*
X3991164Y3662529D1*
X3992862Y3664465D1*
X3994798Y3666162D1*
X3996939Y3667593D1*
X3999248Y3668732D1*
X4001687Y3669559D1*
X4004212Y3670062D1*
X4006781Y3670230D1*
D1*
X4009351Y3670062D1*
X4011876Y3669559D1*
X4014315Y3668732D1*
X4016624Y3667593D1*
X4018765Y3666162D1*
X4020701Y3664465D1*
X4022399Y3662529D1*
X4023829Y3660388D1*
X4024968Y3658078D1*
X4025796Y3655640D1*
X4026298Y3653115D1*
X4026466Y3650545D1*
X4026298Y3647976D1*
X4025796Y3645450D1*
X4024968Y3643012D1*
X4023829Y3640703D1*
X4022399Y3638562D1*
X4020701Y3636626D1*
X4018765Y3634928D1*
X4016624Y3633497D1*
X4014315Y3632359D1*
X4011876Y3631531D1*
X4009351Y3631029D1*
X4006781Y3630860D1*
D1*
G37*
X4002012Y3781200D2*
D13*
G02X4002012Y3781200I86614J0D01*
G01*
G36*
X4006780Y3843359D2*
X4004211Y3843527D1*
X4001685Y3844029D1*
X3999247Y3844857D1*
X3996938Y3845996D1*
X3994797Y3847426D1*
X3992861Y3849124D1*
X3991163Y3851060D1*
X3989732Y3853201D1*
X3988593Y3855510D1*
X3987766Y3857948D1*
X3987263Y3860474D1*
X3987095Y3863043D1*
X3987263Y3865613D1*
X3987766Y3868138D1*
X3988593Y3870576D1*
X3989732Y3872886D1*
X3991162Y3875027D1*
X3992860Y3876963D1*
X3994796Y3878661D1*
X3996937Y3880091D1*
X3999246Y3881230D1*
X4001685Y3882058D1*
X4004210Y3882560D1*
X4006780Y3882729D1*
D1*
X4009349Y3882560D1*
X4011874Y3882058D1*
X4014313Y3881230D1*
X4016622Y3880092D1*
X4018763Y3878661D1*
X4020699Y3876963D1*
X4022397Y3875027D1*
X4023827Y3872887D1*
X4024966Y3870577D1*
X4025794Y3868139D1*
X4026296Y3865613D1*
X4026465Y3863044D1*
X4026297Y3860475D1*
X4025794Y3857949D1*
X4024967Y3855511D1*
X4023828Y3853201D1*
X4022397Y3851060D1*
X4020700Y3849125D1*
X4018764Y3847427D1*
X4016623Y3845996D1*
X4014313Y3844857D1*
X4011875Y3844029D1*
X4009350Y3843527D1*
X4006780Y3843359D1*
D1*
G37*
M02*
