G04 DipTrace 4.0.0.5*
G04 TopAssembly.gbr*
%MOIN*%
G04 #@! TF.FileFunction,Drawing,Top*
G04 #@! TF.Part,Single*
%ADD13C,0.004724*%
%FSLAX26Y26*%
G04*
G70*
G90*
G75*
G01*
G04 TopAssy*
%LPD*%
X4757086Y1243700D2*
D13*
G02X4757086Y1243700I86614J0D01*
G01*
G36*
X4742170Y1325545D2*
X4742338Y1328115D1*
X4742841Y1330640D1*
X4743668Y1333078D1*
X4744807Y1335388D1*
X4746238Y1337529D1*
X4747935Y1339465D1*
X4749871Y1341162D1*
X4752012Y1342593D1*
X4754322Y1343732D1*
X4756760Y1344559D1*
X4759285Y1345062D1*
X4761855Y1345230D1*
X4764424Y1345062D1*
X4766950Y1344559D1*
X4769388Y1343732D1*
X4771697Y1342593D1*
X4773838Y1341162D1*
X4775774Y1339465D1*
X4777472Y1337529D1*
X4778903Y1335388D1*
X4780041Y1333078D1*
X4780869Y1330640D1*
X4781371Y1328115D1*
X4781540Y1325545D1*
D1*
X4781371Y1322976D1*
X4780869Y1320450D1*
X4780041Y1318012D1*
X4778903Y1315703D1*
X4777472Y1313562D1*
X4775774Y1311626D1*
X4773838Y1309928D1*
X4771697Y1308497D1*
X4769388Y1307359D1*
X4766950Y1306531D1*
X4764424Y1306029D1*
X4761855Y1305860D1*
X4759285Y1306029D1*
X4756760Y1306531D1*
X4754322Y1307359D1*
X4752012Y1308497D1*
X4749871Y1309928D1*
X4747935Y1311626D1*
X4746238Y1313562D1*
X4744807Y1315703D1*
X4743668Y1318012D1*
X4742841Y1320450D1*
X4742338Y1322976D1*
X4742170Y1325545D1*
D1*
G37*
X4507086Y1243700D2*
D13*
G02X4507086Y1243700I86614J0D01*
G01*
G36*
X4492170Y1325545D2*
X4492338Y1328115D1*
X4492841Y1330640D1*
X4493668Y1333078D1*
X4494807Y1335388D1*
X4496238Y1337529D1*
X4497935Y1339465D1*
X4499871Y1341162D1*
X4502012Y1342593D1*
X4504322Y1343732D1*
X4506760Y1344559D1*
X4509285Y1345062D1*
X4511855Y1345230D1*
X4514424Y1345062D1*
X4516950Y1344559D1*
X4519388Y1343732D1*
X4521697Y1342593D1*
X4523838Y1341162D1*
X4525774Y1339465D1*
X4527472Y1337529D1*
X4528903Y1335388D1*
X4530041Y1333078D1*
X4530869Y1330640D1*
X4531371Y1328115D1*
X4531540Y1325545D1*
D1*
X4531371Y1322976D1*
X4530869Y1320450D1*
X4530041Y1318012D1*
X4528903Y1315703D1*
X4527472Y1313562D1*
X4525774Y1311626D1*
X4523838Y1309928D1*
X4521697Y1308497D1*
X4519388Y1307359D1*
X4516950Y1306531D1*
X4514424Y1306029D1*
X4511855Y1305860D1*
X4509285Y1306029D1*
X4506760Y1306531D1*
X4504322Y1307359D1*
X4502012Y1308497D1*
X4499871Y1309928D1*
X4497935Y1311626D1*
X4496238Y1313562D1*
X4494807Y1315703D1*
X4493668Y1318012D1*
X4492841Y1320450D1*
X4492338Y1322976D1*
X4492170Y1325545D1*
D1*
G37*
X4044586Y918700D2*
D13*
G02X4044586Y918700I86614J0D01*
G01*
G36*
X4029670Y1000545D2*
X4029838Y1003115D1*
X4030341Y1005640D1*
X4031168Y1008078D1*
X4032307Y1010388D1*
X4033738Y1012529D1*
X4035435Y1014465D1*
X4037371Y1016162D1*
X4039512Y1017593D1*
X4041822Y1018732D1*
X4044260Y1019559D1*
X4046785Y1020062D1*
X4049355Y1020230D1*
X4051924Y1020062D1*
X4054450Y1019559D1*
X4056888Y1018732D1*
X4059197Y1017593D1*
X4061338Y1016162D1*
X4063274Y1014465D1*
X4064972Y1012529D1*
X4066403Y1010388D1*
X4067541Y1008078D1*
X4068369Y1005640D1*
X4068871Y1003115D1*
X4069040Y1000545D1*
D1*
X4068871Y997976D1*
X4068369Y995450D1*
X4067541Y993012D1*
X4066403Y990703D1*
X4064972Y988562D1*
X4063274Y986626D1*
X4061338Y984928D1*
X4059197Y983497D1*
X4056888Y982359D1*
X4054450Y981531D1*
X4051924Y981029D1*
X4049355Y980860D1*
X4046785Y981029D1*
X4044260Y981531D1*
X4041822Y982359D1*
X4039512Y983497D1*
X4037371Y984928D1*
X4035435Y986626D1*
X4033738Y988562D1*
X4032307Y990703D1*
X4031168Y993012D1*
X4030341Y995450D1*
X4029838Y997976D1*
X4029670Y1000545D1*
D1*
G37*
X4044586Y718700D2*
D13*
G02X4044586Y718700I86614J0D01*
G01*
G36*
X4029670Y800545D2*
X4029838Y803115D1*
X4030341Y805640D1*
X4031168Y808078D1*
X4032307Y810388D1*
X4033738Y812529D1*
X4035435Y814465D1*
X4037371Y816162D1*
X4039512Y817593D1*
X4041822Y818732D1*
X4044260Y819559D1*
X4046785Y820062D1*
X4049355Y820230D1*
X4051924Y820062D1*
X4054450Y819559D1*
X4056888Y818732D1*
X4059197Y817593D1*
X4061338Y816162D1*
X4063274Y814465D1*
X4064972Y812529D1*
X4066403Y810388D1*
X4067541Y808078D1*
X4068369Y805640D1*
X4068871Y803115D1*
X4069040Y800545D1*
D1*
X4068871Y797976D1*
X4068369Y795450D1*
X4067541Y793012D1*
X4066403Y790703D1*
X4064972Y788562D1*
X4063274Y786626D1*
X4061338Y784928D1*
X4059197Y783497D1*
X4056888Y782359D1*
X4054450Y781531D1*
X4051924Y781029D1*
X4049355Y780860D1*
X4046785Y781029D1*
X4044260Y781531D1*
X4041822Y782359D1*
X4039512Y783497D1*
X4037371Y784928D1*
X4035435Y786626D1*
X4033738Y788562D1*
X4032307Y790703D1*
X4031168Y793012D1*
X4030341Y795450D1*
X4029838Y797976D1*
X4029670Y800545D1*
D1*
G37*
X4044586Y1118700D2*
D13*
G02X4044586Y1118700I86614J0D01*
G01*
G36*
X4029670Y1200545D2*
X4029838Y1203115D1*
X4030341Y1205640D1*
X4031168Y1208078D1*
X4032307Y1210388D1*
X4033738Y1212529D1*
X4035435Y1214465D1*
X4037371Y1216162D1*
X4039512Y1217593D1*
X4041822Y1218732D1*
X4044260Y1219559D1*
X4046785Y1220062D1*
X4049355Y1220230D1*
X4051924Y1220062D1*
X4054450Y1219559D1*
X4056888Y1218732D1*
X4059197Y1217593D1*
X4061338Y1216162D1*
X4063274Y1214465D1*
X4064972Y1212529D1*
X4066403Y1210388D1*
X4067541Y1208078D1*
X4068369Y1205640D1*
X4068871Y1203115D1*
X4069040Y1200545D1*
D1*
X4068871Y1197976D1*
X4068369Y1195450D1*
X4067541Y1193012D1*
X4066403Y1190703D1*
X4064972Y1188562D1*
X4063274Y1186626D1*
X4061338Y1184928D1*
X4059197Y1183497D1*
X4056888Y1182359D1*
X4054450Y1181531D1*
X4051924Y1181029D1*
X4049355Y1180860D1*
X4046785Y1181029D1*
X4044260Y1181531D1*
X4041822Y1182359D1*
X4039512Y1183497D1*
X4037371Y1184928D1*
X4035435Y1186626D1*
X4033738Y1188562D1*
X4032307Y1190703D1*
X4031168Y1193012D1*
X4030341Y1195450D1*
X4029838Y1197976D1*
X4029670Y1200545D1*
D1*
G37*
X519586Y506200D2*
D13*
G02X519586Y506200I86614J0D01*
G01*
G36*
X707730Y424355D2*
X707562Y421785D1*
X707059Y419260D1*
X706232Y416822D1*
X705093Y414512D1*
X703662Y412371D1*
X701965Y410435D1*
X700029Y408738D1*
X697888Y407307D1*
X695578Y406168D1*
X693140Y405341D1*
X690615Y404838D1*
X688045Y404670D1*
X685476Y404838D1*
X682950Y405341D1*
X680512Y406168D1*
X678203Y407307D1*
X676062Y408738D1*
X674126Y410435D1*
X672428Y412371D1*
X670997Y414512D1*
X669859Y416822D1*
X669031Y419260D1*
X668529Y421785D1*
X668360Y424355D1*
D1*
X668529Y426924D1*
X669031Y429450D1*
X669859Y431888D1*
X670997Y434197D1*
X672428Y436338D1*
X674126Y438274D1*
X676062Y439972D1*
X678203Y441403D1*
X680512Y442541D1*
X682950Y443369D1*
X685476Y443871D1*
X688045Y444040D1*
X690615Y443871D1*
X693140Y443369D1*
X695578Y442541D1*
X697888Y441403D1*
X700029Y439972D1*
X701965Y438274D1*
X703662Y436338D1*
X705093Y434197D1*
X706232Y431888D1*
X707059Y429450D1*
X707562Y426924D1*
X707730Y424355D1*
D1*
G37*
X5007086Y1243700D2*
D13*
G02X5007086Y1243700I86614J0D01*
G01*
G36*
X4992170Y1325545D2*
X4992338Y1328115D1*
X4992841Y1330640D1*
X4993668Y1333078D1*
X4994807Y1335388D1*
X4996238Y1337529D1*
X4997935Y1339465D1*
X4999871Y1341162D1*
X5002012Y1342593D1*
X5004322Y1343732D1*
X5006760Y1344559D1*
X5009285Y1345062D1*
X5011855Y1345230D1*
X5014424Y1345062D1*
X5016950Y1344559D1*
X5019388Y1343732D1*
X5021697Y1342593D1*
X5023838Y1341162D1*
X5025774Y1339465D1*
X5027472Y1337529D1*
X5028903Y1335388D1*
X5030041Y1333078D1*
X5030869Y1330640D1*
X5031371Y1328115D1*
X5031540Y1325545D1*
D1*
X5031371Y1322976D1*
X5030869Y1320450D1*
X5030041Y1318012D1*
X5028903Y1315703D1*
X5027472Y1313562D1*
X5025774Y1311626D1*
X5023838Y1309928D1*
X5021697Y1308497D1*
X5019388Y1307359D1*
X5016950Y1306531D1*
X5014424Y1306029D1*
X5011855Y1305860D1*
X5009285Y1306029D1*
X5006760Y1306531D1*
X5004322Y1307359D1*
X5002012Y1308497D1*
X4999871Y1309928D1*
X4997935Y1311626D1*
X4996238Y1313562D1*
X4994807Y1315703D1*
X4993668Y1318012D1*
X4992841Y1320450D1*
X4992338Y1322976D1*
X4992170Y1325545D1*
D1*
G37*
X2481987Y3205314D2*
D13*
X2580413D1*
Y3500590D1*
X2481987D1*
Y3205314D1*
X2531200Y3143306D2*
Y3205314D1*
Y3500590D2*
Y3562598D1*
X2581987Y3205314D2*
X2680413D1*
Y3500590D1*
X2581987D1*
Y3205314D1*
X2631200Y3143306D2*
Y3205314D1*
Y3500590D2*
Y3562598D1*
X2681987Y3205314D2*
X2780413D1*
Y3500590D1*
X2681987D1*
Y3205314D1*
X2731200Y3143306D2*
Y3205314D1*
Y3500590D2*
Y3562598D1*
X2781987Y3205314D2*
X2880413D1*
Y3500590D1*
X2781987D1*
Y3205314D1*
X2831200Y3143306D2*
Y3205314D1*
Y3500590D2*
Y3562598D1*
M02*
