G04 DipTrace 4.0.0.5*
G04 1 - Top.gbr*
%MOIN*%
G04 #@! TF.FileFunction,Copper,L1,Top*
G04 #@! TF.Part,Single*
G04 #@! TA.AperFunction,Conductor*
%ADD15C,0.013*%
%ADD16C,0.026*%
G04 #@! TA.AperFunction,ComponentPad*
%ADD18C,0.06*%
%ADD19R,0.06X0.06*%
%ADD20R,0.043701X0.043701*%
%ADD21C,0.043701*%
%ADD22R,0.070866X0.070866*%
%ADD23C,0.070866*%
%ADD24R,0.059055X0.059055*%
%ADD25C,0.059055*%
%ADD26C,0.049213*%
G04 #@! TA.AperFunction,ViaPad*
%ADD27C,0.04*%
%FSLAX26Y26*%
G04*
G70*
G90*
G75*
G01*
G04 Top*
%LPD*%
X4005200Y2832700D2*
D15*
X5162948D1*
X5223448Y2893200D1*
X5343200D1*
X5393700Y2943700D1*
X3965700Y2719200D2*
X4039700Y2793200D1*
X5343200D1*
X5393700Y2843700D1*
X3480700Y2619200D2*
X5156204D1*
X5230204Y2693200D1*
X5343200D1*
X5393700Y2743700D1*
X3380700Y2519200D2*
X4282952D1*
X4356952Y2593200D1*
X5343200D1*
X5393700Y2643700D1*
X3420200Y2432700D2*
X5177283D1*
X5237783Y2493200D1*
X5343200D1*
X5393700Y2543700D1*
X3420200Y971200D2*
X3380700Y931700D1*
Y783700D1*
X3354700Y757700D1*
X3231200D1*
Y3952200D2*
X3454700D1*
X3480700Y3926200D1*
Y3827700D1*
X3420200Y3767200D1*
X2680700Y2311700D2*
X2762200Y2393200D1*
X3209806D1*
X2680700Y3236306D2*
X3209806D1*
X2991700Y3991700D2*
X2718696D1*
X2680700Y3953704D1*
X3209806Y2393200D2*
X5343200D1*
X5393700Y2443700D1*
X3130806Y2293200D2*
X5343200D1*
X5393700Y2343700D1*
X4006846Y656700D2*
X3945346Y718200D1*
X3080700D1*
X3031200Y668700D1*
X3130806Y1312054D2*
X4566050D1*
X4592050Y1286054D1*
Y1122501D1*
X4596700Y1117850D1*
X3284200Y3723810D2*
X3380700Y3820310D1*
Y3886700D1*
X3354700Y3912700D1*
X3174700D1*
X3031200Y4056200D1*
X3025806Y2246204D2*
X5052964D1*
X3025806Y1063704D2*
X2606700D1*
X2580700Y1037704D1*
Y731700D1*
X2380700Y3993204D2*
Y3363554D1*
X2406700Y3337554D1*
X3025806D1*
X2586649Y3993204D2*
X2475751D1*
X3065306Y2193200D2*
X5344200D1*
X5393700Y2143700D1*
X3065306Y1024204D2*
X2706700D1*
X2680700Y998204D1*
Y718200D1*
X2631200Y668700D1*
X3065306Y3631310D2*
X2606700D1*
X2580700Y3657310D1*
Y3880448D1*
X2631200Y3930948D1*
Y4056200D1*
X2580700Y2093200D2*
X5344200D1*
X5393700Y2043700D1*
X2480700Y1951200D2*
X2971791D1*
X2960306Y3377054D2*
X2506700D1*
X2480700Y3403054D1*
Y3880948D1*
X2431200Y3930448D1*
Y4056200D1*
X2971791Y1951200D2*
X3013791Y1993200D1*
X5344200D1*
X5393700Y1943700D1*
X2380700Y1872200D2*
X5098554D1*
X2180700Y1830680D2*
X2220200D1*
X2257680Y1793200D1*
X5344200D1*
X5393700Y1743700D1*
X2084200Y1677680D2*
X4536277D1*
X4551798Y1693200D1*
X5344200D1*
X5393700Y1643700D1*
X1987204Y1593200D2*
X5344200D1*
X5393700Y1543700D1*
X1680700Y1345058D2*
X1911078D1*
X1920720Y1354700D1*
X5206452D1*
X5267952Y1293200D1*
X5344200D1*
X5393700Y1243700D1*
X1890354Y1832700D2*
X2046960D1*
X2084440Y1870180D1*
X2227460D1*
X2264940Y1832700D1*
X5178704D1*
X1780700Y2132700D2*
X2271200D1*
X2371200Y2032700D1*
X4906428D1*
X2519594Y2132700D2*
X4802495D1*
X1580700Y2311700D2*
X2519594D1*
X4466200Y1432700D2*
X5185050D1*
X1480700Y1053704D2*
X2331204D1*
X2447200Y1169700D1*
X4409350D1*
X4466200Y1226550D1*
X1380700Y1532700D2*
X5204798D1*
X5244298Y1493200D1*
X5443200D1*
X5469200Y1467200D1*
Y819200D1*
X5443200Y793200D1*
X5369200D1*
X5343200Y819200D1*
Y893200D1*
X5393700Y943700D1*
X1280700Y1386200D2*
X1287700Y1393200D1*
X5417200D1*
X5443200Y1367200D1*
Y893200D1*
X5393700Y843700D1*
X2870700Y1109700D2*
X2553700D1*
X2454700Y1010700D1*
X2480700Y984700D1*
Y744200D1*
X2454700Y718200D1*
X1180700D1*
X1131200Y668700D1*
X2934310Y1911700D2*
X5208948D1*
X5227448Y1893200D1*
X5469200D1*
X5495200Y1867200D1*
Y745200D1*
X5393700Y643700D1*
X2454700Y1010700D2*
X1091204D1*
X1131200Y3919200D2*
X1180700D1*
Y3125700D1*
X1091204Y3036204D1*
X1031200Y3972200D2*
X2254700D1*
X2280700Y3946200D1*
Y3301806D1*
X2306700Y3275806D1*
X3249306D1*
X2429980Y931700D2*
X1206700D1*
X1180700Y905700D1*
Y831704D1*
X1154700Y805704D1*
X1084200D1*
X3288806Y1250704D2*
X2429980D1*
X3249306Y1717180D2*
X3574704D1*
Y985200D2*
X4204315D1*
X4346787Y842728D1*
X4566758D1*
X4592758Y816728D1*
Y669701D1*
X4618759Y643700D1*
X5293700D1*
X5224550Y1632700D2*
X696200D1*
X3631200Y1056228D2*
D16*
X4081200D1*
X4835184D1*
X4860212Y1031200D1*
X5093700D1*
X3631200Y3118700D2*
X2831200D1*
X3631200Y3856200D2*
X3752204Y3977204D1*
X3957690D1*
X4011686Y4031200D1*
X4088627D1*
X1031200Y3856200D2*
X968200Y3919200D1*
X786704D1*
X749704Y3956200D1*
X623773D1*
X1031200Y868700D2*
X920200Y757700D1*
X748700D1*
X702700Y711700D1*
Y506200D1*
X678054D1*
X656200D1*
X2531200Y3118700D2*
X2591696Y3058204D1*
X2684200D1*
Y2952204D1*
X977700D1*
X2631200Y3118700D2*
X2531200D1*
X2731200D2*
X2631200D1*
X2831200D2*
X2731200D1*
X4081200Y1118700D2*
Y1056228D1*
X4543700Y1243700D2*
Y1164704D1*
X4497696Y1118700D1*
X4181200D1*
X3831200Y868700D2*
X3926346Y773554D1*
X4026346D1*
X4081200Y718700D1*
X831200Y868700D2*
X768200Y931700D1*
X681700D1*
X593700Y843700D1*
X3777700Y2892700D2*
X924700D1*
Y3017700D1*
X898700Y3043700D1*
X728700D1*
X4088627Y3931200D2*
X3906200D1*
X3831200Y3856200D1*
X5093700Y931200D2*
X4806228D1*
X4768728Y893700D1*
X4706200D1*
X4893700Y1243700D2*
Y1152633D1*
X4939700Y1106633D1*
X5032263D1*
X848700Y1340204D2*
X925208D1*
X1031204Y1446200D1*
X2931200Y3570712D2*
X3777700D1*
X1031204Y3043700D2*
X950700D1*
X924700Y3017700D1*
X593700Y843700D2*
X656700Y780700D1*
Y606700D1*
X556200Y506200D1*
X831200Y3856200D2*
X728952D1*
X728452Y3856700D1*
X623273D1*
X523773Y3956200D1*
X728700Y3043700D2*
Y3753700D1*
X831200Y3856200D1*
X5032263Y1106633D2*
X5180015D1*
X5217082Y1143700D1*
X5293700D1*
X1031204Y1446200D2*
X1124948D1*
X1238448Y1332700D1*
X1610200D1*
X1692196Y1250704D1*
X2348228D1*
X2405724Y1308200D1*
X2948204D1*
Y1120554D2*
X2950850Y1123200D1*
X3831200D1*
X1180700Y2232700D2*
D15*
X2883787D1*
X2983787Y2332700D1*
X4246735D1*
X3231200Y3856200D2*
D16*
Y3676708D1*
X3277200Y3630708D1*
X3901204D1*
X3846704Y1265554D2*
X4406200D1*
X3777700Y938700D2*
X3770700Y931700D1*
X3540452D1*
X3447952Y1024200D1*
X3386700D1*
X3231200Y868700D1*
X3901204Y3630708D2*
X4013212Y3518700D1*
X4088627D1*
X4856200Y731200D2*
X5093700D1*
X4981550Y1195354D2*
D15*
X5095354D1*
X5143700Y1243700D1*
X827200Y2485700D2*
X2763948D1*
X2777448Y2472200D1*
X4840558D1*
X4861558Y2493200D1*
X4406200Y693700D2*
D16*
X4306200D1*
X4081200Y918700D1*
X2991200Y3512696D2*
X3776200D1*
X3802200Y3486696D1*
X3935200Y3353696D1*
X4097480D1*
X4143480Y3399696D1*
Y3776346D1*
X4088625Y3831200D1*
X3901200Y3512696D2*
X3828200D1*
X3802200Y3486696D1*
X3901200Y1439700D2*
X3223306D1*
X4081200Y918700D2*
X3901200Y918704D1*
X931200Y868700D2*
D15*
X873200Y810700D1*
X709700D1*
X735700Y1332700D2*
X656700D1*
X1131200Y1050200D2*
X716704D1*
X1231200Y868700D2*
Y770200D1*
X1205200Y744200D1*
X1083700D1*
X1057700Y718200D1*
X768200D1*
X742200Y692200D1*
Y469200D1*
X716200Y443200D1*
X469200D1*
X443200Y469200D1*
Y793200D1*
X493700Y843700D1*
X1331200Y971200D2*
X985704D1*
X963704Y993200D1*
X543200D1*
X493700Y943700D1*
X1431200Y1093200D2*
X543200D1*
X493700Y1043700D1*
X1531200Y1246200D2*
X1478200Y1193200D1*
X543200D1*
X493700Y1143700D1*
X1631200Y1172200D2*
X1570700Y1232700D1*
Y1267200D1*
X1544700Y1293200D1*
X543200D1*
X493700Y1243700D1*
X1731200Y1832700D2*
X866700D1*
Y1400204D2*
X859696Y1393200D1*
X543200D1*
X493700Y1343700D1*
X1831200Y1457054D2*
X1791700Y1496554D1*
X1557145D1*
X1553791Y1493200D1*
X543200D1*
X493700Y1443700D1*
X1931200Y1593200D2*
X543200D1*
X493700Y1543700D1*
X2031200Y1731700D2*
X728948D1*
X690448Y1693200D1*
X543200D1*
X493700Y1643700D1*
X2131200Y1717180D2*
X2055180Y1793200D1*
X543200D1*
X493700Y1743700D1*
X2231200Y1946200D2*
X1745570D1*
X1692570Y1893200D1*
X543200D1*
X493700Y1843700D1*
X2331200Y1940200D2*
X2278200Y1993200D1*
X543200D1*
X493700Y1943700D1*
X2281700Y2032700D2*
X2221200Y2093200D1*
X543200D1*
X493700Y2043700D1*
X2281700Y805704D2*
X2368204D1*
X2431200Y868700D1*
X2406700Y2193200D2*
X543200D1*
X493700Y2143700D1*
X2631200Y2406700D2*
X1047094D1*
X933594Y2293200D1*
X543200D1*
X493700Y2243700D1*
X2631200Y3183306D2*
X2480094D1*
X2454094Y3157306D1*
Y3031204D1*
X2480094Y3005204D1*
X2631200D1*
X2731200Y2446200D2*
X669700D1*
X616700Y2393200D1*
X543200D1*
X493700Y2343700D1*
X2831200Y2525200D2*
X2791700Y2564700D1*
X714700D1*
X643200Y2493200D1*
X543200D1*
X493700Y2443700D1*
X3731200Y2693204D2*
X3591704Y2832700D1*
X703700D1*
X643200Y2893200D1*
X544200D1*
X493700Y2943700D1*
X3531200Y2732700D2*
X3470700Y2793200D1*
X544200D1*
X493700Y2843700D1*
X3331200Y2693200D2*
X544200D1*
X493700Y2743700D1*
X3170306Y2540200D2*
X3117306Y2593200D1*
X544200D1*
X493700Y2643700D1*
X2931200Y3926200D2*
X2806700D1*
X2780700Y3900200D1*
Y3696810D1*
X2806700Y3670810D1*
X3170306D1*
Y984704D2*
X2806700D1*
X2780700Y958704D1*
Y819200D1*
X2931200Y668700D1*
X2770700Y2632700D2*
X709700D1*
X2786649Y718200D2*
X2746200D1*
X2720200Y744200D1*
Y797200D1*
D27*
X4005200Y2832700D3*
X3965700Y2719200D3*
X3480700Y2619200D3*
X3380700Y2519200D3*
X3231200Y757700D3*
X3420200Y971200D3*
Y3767200D3*
X3231200Y3952200D3*
X3420200Y2432700D3*
X2680700Y2311700D3*
X3209806Y3236306D3*
X2680700D3*
Y3953704D3*
X2991700Y3991700D3*
X3209806Y2393200D3*
X4006846Y656700D3*
X4596700Y1117850D3*
X3130806Y1312054D3*
X3284200Y3723810D3*
X3130806Y2293200D3*
X5052964Y2246204D3*
X2580700Y731700D3*
X3025806Y1063704D3*
Y3337554D3*
X2380700Y3993204D3*
X2475751D3*
X2586649D3*
X3025806Y2246204D3*
X3065306Y1024204D3*
Y3631310D3*
Y2193200D3*
X2580700Y2093200D3*
X2480700Y1951200D3*
X2971791D3*
X2960306Y3377054D3*
X5098554Y1872200D3*
X2380700D3*
X2180700Y1830680D3*
X2084200Y1677680D3*
X1987204Y1593200D3*
X1680700Y1345058D3*
X5178704Y1832700D3*
X1890354D3*
X4906428Y2032700D3*
X1780700Y2132700D3*
X4802495D3*
X2519594D3*
Y2311700D3*
X1580700D3*
X5185050Y1432700D3*
X4466200D3*
Y1226550D3*
X1480700Y1053704D3*
X1380700Y1532700D3*
X1280700Y1386200D3*
X2934310Y1911700D3*
X2870700Y1109700D3*
X1091204Y1010700D3*
Y3036204D3*
X1131200Y3919200D3*
X3249306Y3275806D3*
X1031200Y3972200D3*
X1084200Y805704D3*
X2429980Y931700D3*
Y1250704D3*
X3288806D3*
X3574704Y1717180D3*
Y985200D3*
X3249306Y1717180D3*
X696200Y1632700D3*
X5224550D3*
X3631200Y3118700D3*
X977700Y2952204D3*
X3631200Y1056228D3*
X3777700Y2892700D3*
X2948204Y1308200D3*
X848700Y1340204D3*
X3777700Y3570712D3*
X2931200D3*
X1031204Y3043700D3*
X5032263Y1106633D3*
X728700Y3043700D3*
X3831200Y1123200D3*
X1031204Y1446200D3*
X2948204Y1120554D3*
X4246735Y2332700D3*
X1180700Y2232700D3*
X3777700Y938700D3*
X4406200Y1265554D3*
X3901204Y3630708D3*
X3846704Y1265554D3*
X4981550Y1195354D3*
X4861558Y2493200D3*
X827200Y2485700D3*
X2991200Y3512696D3*
X3901200D3*
X3223306Y1439700D3*
X3901200Y918704D3*
Y1439700D3*
X709700Y810700D3*
X656700Y1332700D3*
X735700D3*
X716704Y1050200D3*
X1131200D3*
X1331200Y971200D3*
X1431200Y1093200D3*
X1531200Y1246200D3*
X1631200Y1172200D3*
X866700Y1832700D3*
Y1400204D3*
X1731200Y1832700D3*
X1831200Y1457054D3*
X1931200Y1593200D3*
X2031200Y1731700D3*
X2131200Y1717180D3*
X2231200Y1946200D3*
X2331200Y1940200D3*
X2281700Y2032700D3*
Y805704D3*
X2406700Y2193200D3*
X2631200Y2406700D3*
Y3005204D3*
Y3183306D3*
X2731200Y2446200D3*
X2831200Y2525200D3*
X3731200Y2693204D3*
X3531200Y2732700D3*
X3331200Y2693200D3*
X3170306Y2540200D3*
Y3670810D3*
X2931200Y3926200D3*
X3170306Y984704D3*
X709700Y2632700D3*
X2770700D3*
X2720200Y797200D3*
X2786649Y718200D3*
D18*
X5393700Y943700D3*
X593700D3*
X493700D3*
X593700Y1043700D3*
X493700D3*
X593700Y1343700D3*
X493700D3*
X593700Y1843700D3*
X493700D3*
X593700Y3043700D3*
Y2943700D3*
Y2843700D3*
Y2743700D3*
Y2643700D3*
Y2543700D3*
Y2443700D3*
Y2343700D3*
Y2243700D3*
Y2143700D3*
X493700D3*
Y2243700D3*
Y2343700D3*
Y2443700D3*
Y2543700D3*
Y2643700D3*
Y2743700D3*
Y2843700D3*
Y2943700D3*
D19*
Y3043700D3*
D18*
Y2043700D3*
X593700D3*
X493700Y1943700D3*
X593700D3*
X493700Y1743700D3*
X593700D3*
X493700Y1643700D3*
X593700D3*
X493700Y1543700D3*
X593700D3*
X493700Y1443700D3*
X593700D3*
X493700Y1243700D3*
X593700D3*
Y1143700D3*
X493700D3*
Y843700D3*
X593700D3*
X493700Y743700D3*
X593700D3*
X493700Y643700D3*
X593700D3*
X5293700Y943700D3*
X5393700Y1043700D3*
X5293700D3*
X5393700Y1343700D3*
X5293700D3*
X5393700Y1843700D3*
X5293700D3*
X5393700Y3043700D3*
Y2943700D3*
Y2843700D3*
Y2743700D3*
Y2643700D3*
Y2543700D3*
Y2443700D3*
Y2343700D3*
Y2243700D3*
Y2143700D3*
X5293700D3*
Y2243700D3*
Y2343700D3*
Y2443700D3*
Y2543700D3*
Y2643700D3*
Y2743700D3*
Y2843700D3*
Y2943700D3*
D19*
Y3043700D3*
D18*
Y2043700D3*
X5393700D3*
X5293700Y1943700D3*
X5393700D3*
X5293700Y1743700D3*
X5393700D3*
X5293700Y1643700D3*
X5393700D3*
X5293700Y1543700D3*
X5393700D3*
X5293700Y1443700D3*
X5393700D3*
X5293700Y1243700D3*
X5393700D3*
Y1143700D3*
X5293700D3*
Y843700D3*
X5393700D3*
X5293700Y743700D3*
X5393700D3*
X5293700Y643700D3*
X5393700D3*
D20*
X4793700Y1243700D3*
D21*
X4893700D3*
D18*
X3731200Y868700D3*
Y668700D3*
X3631200Y868700D3*
Y668700D3*
X3231200Y868700D3*
Y668700D3*
X3131200Y868700D3*
Y668700D3*
X3031200Y868700D3*
Y668700D3*
X2731200D3*
Y868700D3*
X2631200D3*
Y668700D3*
X2231200D3*
X2131200D3*
X2031200D3*
X1931200D3*
X1831200D3*
X831200D3*
X931200D3*
X1031200D3*
X1131200D3*
X1231200D3*
X1331200D3*
X1431200D3*
X1531200D3*
X1631200D3*
X1731200D3*
X2231200Y868700D3*
X2131200D3*
X2031200D3*
X1931200D3*
X1831200D3*
X1731200D3*
X1631200D3*
X1531200D3*
X1431200D3*
X1331200D3*
X1231200D3*
X1131200D3*
X1031200D3*
X931200D3*
D19*
X831200D3*
D18*
X2331200Y668700D3*
Y868700D3*
X2431200D3*
Y668700D3*
X2531200Y868700D3*
Y668700D3*
X2831200D3*
Y868700D3*
X2931200D3*
Y668700D3*
X3331200D3*
Y868700D3*
X3431200Y668700D3*
Y868700D3*
X3531200Y668700D3*
Y868700D3*
X3831200Y668700D3*
Y868700D3*
D22*
X5093700Y1031200D3*
D23*
Y931200D3*
Y831200D3*
Y731200D3*
D24*
X4706200Y693700D3*
D25*
Y793700D3*
Y893700D3*
Y993700D3*
X4406200D3*
Y893700D3*
Y793700D3*
Y693700D3*
D20*
X4543700Y1243700D3*
D21*
X4643700D3*
D19*
X4856200Y731200D3*
D18*
Y831200D3*
D20*
X623773Y3956200D3*
D21*
X523773D3*
D20*
X4088627Y4031200D3*
D21*
Y3931200D3*
D20*
Y3618700D3*
D21*
Y3518700D3*
D20*
X4088626Y3831200D3*
D21*
X4088627Y3731200D3*
D20*
X4081200Y918700D3*
D21*
X4181200D3*
D20*
X4081200Y718700D3*
D21*
X4181200D3*
D20*
X4081200Y1118700D3*
D21*
X4181200D3*
D20*
X656200Y506200D3*
D21*
X556200D3*
D20*
X5043700Y1243700D3*
D21*
X5143700D3*
D18*
X3731200Y4056200D3*
Y3856200D3*
X3631200Y4056200D3*
Y3856200D3*
X3231200Y4056200D3*
Y3856200D3*
X3131200Y4056200D3*
Y3856200D3*
X3031200Y4056200D3*
Y3856200D3*
X2731200D3*
Y4056200D3*
X2631200D3*
Y3856200D3*
X2231200D3*
X2131200D3*
X2031200D3*
X1931200D3*
X1831200D3*
X831200D3*
X931200D3*
X1031200D3*
X1131200D3*
X1231200D3*
X1331200D3*
X1431200D3*
X1531200D3*
X1631200D3*
X1731200D3*
X2231200Y4056200D3*
X2131200D3*
X2031200D3*
X1931200D3*
X1831200D3*
X1731200D3*
X1631200D3*
X1531200D3*
X1431200D3*
X1331200D3*
X1231200D3*
X1131200D3*
X1031200D3*
X931200D3*
D19*
X831200D3*
D18*
X2331200Y3856200D3*
Y4056200D3*
X2431200D3*
Y3856200D3*
X2531200Y4056200D3*
Y3856200D3*
X2831200D3*
Y4056200D3*
X2931200D3*
Y3856200D3*
X3331200D3*
Y4056200D3*
X3431200Y3856200D3*
Y4056200D3*
X3531200Y3856200D3*
Y4056200D3*
X3831200Y3856200D3*
Y4056200D3*
D26*
X2531200Y3118700D3*
Y3587204D3*
X2631200Y3118700D3*
Y3587204D3*
X2731200Y3118700D3*
Y3587204D3*
X2831200Y3118700D3*
Y3587204D3*
M02*
