G04 DipTrace 4.0.0.5*
G04 2 - Bottom.gbr*
%MOIN*%
G04 #@! TF.FileFunction,Copper,L2,Bot*
G04 #@! TF.Part,Single*
G04 #@! TA.AperFunction,Conductor*
%ADD15C,0.013*%
%ADD16C,0.026*%
G04 #@! TA.AperFunction,ComponentPad*
%ADD18C,0.06*%
%ADD19R,0.06X0.06*%
%ADD20R,0.043701X0.043701*%
%ADD21C,0.043701*%
%ADD22R,0.070866X0.070866*%
%ADD23C,0.070866*%
%ADD24R,0.059055X0.059055*%
%ADD25C,0.059055*%
%ADD26C,0.049213*%
G04 #@! TA.AperFunction,ViaPad*
%ADD27C,0.04*%
%FSLAX26Y26*%
G04*
G70*
G90*
G75*
G01*
G04 Bottom*
%LPD*%
X5043700Y1243700D2*
D15*
X4968050D1*
X4942050Y1217700D1*
Y695200D1*
X4916050Y669200D1*
X4781228D1*
X4755228Y695200D1*
Y744672D1*
X4706200Y793700D1*
X3731200Y4056200D2*
X3806696Y3980704D1*
X4005200D1*
X4031200Y3954704D1*
Y3307802D1*
X4057200Y3281802D1*
Y2819200D1*
X4031200Y2793200D1*
Y744200D1*
X4005200Y718200D1*
X3780700D1*
X3731200Y668700D1*
X4031200Y2793200D2*
X5317200D1*
X5343200Y2819200D1*
Y2993200D1*
X5393700Y3043700D1*
X3631200Y4056200D2*
X3732696Y3954704D1*
X3979200D1*
X4005200Y3928704D1*
Y2832700D1*
Y770200D1*
X3979200Y744200D1*
X3706700D1*
X3631200Y668700D1*
X3531200D2*
X3632700Y770200D1*
X3939700D1*
X3965700Y796200D1*
Y2719200D1*
Y3886700D1*
X3939700Y3912700D1*
X3674700D1*
X3531200Y4056200D1*
X3431200D2*
X3480700Y4006700D1*
Y2619200D1*
Y718200D1*
X3431200Y668700D1*
X3331200Y4056200D2*
X3380700Y4006700D1*
Y2519200D1*
Y718200D1*
X3331200Y668700D1*
X3231200Y757700D2*
Y668700D1*
X3420200Y3767200D2*
Y2432700D1*
X3231200Y3952200D2*
Y4056200D1*
X3420200Y2432700D2*
Y971200D1*
X2680700Y2311700D2*
Y757700D1*
X3042200D1*
X3131200Y668700D1*
X3209806Y2393200D2*
Y3236306D1*
X2680700Y3953704D2*
Y3236306D1*
X2991700Y3991700D2*
X3066700D1*
X3131200Y4056200D1*
X4596700Y1117850D2*
X4488228D1*
X4462228Y1091850D1*
Y868728D1*
X4436228Y842728D1*
X4301550D1*
X4275550Y816728D1*
Y682700D1*
X4249550Y656700D1*
X4006846D1*
X3284200Y3723810D2*
X3156806D1*
X3130806Y3697810D1*
Y2293200D1*
Y1312054D1*
X5052964Y2246204D2*
X5099960Y2293200D1*
X5344200D1*
X5393700Y2243700D1*
X2580700Y731700D2*
X2668200D1*
X2731200Y668700D1*
X3025806Y3337554D2*
Y2246204D1*
X2475751Y3993204D2*
X2380700D1*
X2586649D2*
X2668204D1*
X2731200Y4056200D1*
X3025806Y2246204D2*
Y1063704D1*
X3065306Y3631310D2*
Y2193200D1*
Y1024204D1*
X2531200Y668700D2*
Y746452D1*
X2580700Y795952D1*
Y2093200D1*
X2480094D1*
Y3275023D1*
X2580700Y3375629D1*
Y3880948D1*
X2531200Y3930448D1*
Y4056200D1*
X2480700Y1951200D2*
Y718200D1*
X2431200Y668700D1*
X2960306Y3377054D2*
Y2058696D1*
X2894810Y1993200D1*
Y1977200D1*
X2920810Y1951200D1*
X2971791D1*
X2331200Y668700D2*
X2380700Y718200D1*
Y1872200D1*
X5098554D2*
Y1819200D1*
X5124554Y1793200D1*
X5343200D1*
X5393700Y1843700D1*
X2380700Y1872200D2*
Y2105995D1*
X2357200Y2129495D1*
Y3605818D1*
X2480700Y3729318D1*
Y3905700D1*
X2454700Y3931700D1*
X2357200D1*
X2331200Y3957700D1*
Y4056200D1*
X2231200D2*
X2180700Y4005700D1*
Y1830680D1*
Y719200D1*
X2231200Y668700D1*
X2131200D2*
X2080700Y719200D1*
Y1137271D1*
X2084200Y1140771D1*
Y1677680D1*
X2081700Y1680180D1*
Y4006700D1*
X2131200Y4056200D1*
X2031200Y668700D2*
X1980700Y719200D1*
Y1151672D1*
X1987204Y1158176D1*
Y1593200D1*
X1981700Y1598704D1*
Y4006700D1*
X2031200Y4056200D1*
X1731200Y668700D2*
X1680700Y719200D1*
Y1345058D1*
Y4005700D1*
X1731200Y4056200D1*
X1931200Y668700D2*
X1880700Y719200D1*
Y1442329D1*
X1890354Y1451983D1*
Y1832700D1*
X5178704D2*
X5239204Y1893200D1*
X5417200D1*
X5443200Y1867200D1*
Y1493200D1*
X5393700Y1443700D1*
X1890354Y1832700D2*
Y3646214D1*
X1880700Y3655869D1*
Y4005700D1*
X1931200Y4056200D1*
X1831200Y668700D2*
X1780700Y719200D1*
Y2132700D1*
X4906428Y2032700D2*
Y1719200D1*
X4932428Y1693200D1*
X5317200D1*
X5343200Y1667200D1*
Y1394200D1*
X5393700Y1343700D1*
X1780700Y2132700D2*
Y4005700D1*
X1831200Y4056200D1*
X1631200Y668700D2*
X1580700Y719200D1*
Y2311700D1*
X4802495Y2132700D2*
Y1677609D1*
X5085050Y1395054D1*
Y1177649D1*
X5155633Y1107066D1*
Y919200D1*
X5181633Y893200D1*
X5417200D1*
X5443200Y919200D1*
Y1094200D1*
X5393700Y1143700D1*
X2519594Y2311700D2*
Y2132700D1*
X1580700Y2311700D2*
Y4005700D1*
X1631200Y4056200D1*
X1531200Y668700D2*
X1480700Y719200D1*
Y1053704D1*
X5185050Y1432700D2*
Y1019200D1*
X5211050Y993200D1*
X5343200D1*
X5393700Y1043700D1*
X4466200Y1226550D2*
Y1432700D1*
X1480700Y1053704D2*
Y4005700D1*
X1531200Y4056200D1*
X1431200D2*
Y3964019D1*
X1380700Y3913519D1*
Y1532700D1*
Y719200D1*
X1431200Y668700D1*
X1331200Y4056200D2*
X1280700Y4005700D1*
Y1386200D1*
Y719200D1*
X1331200Y668700D1*
X2870700Y1109700D2*
Y1848090D1*
X2934310Y1911700D1*
X1091204Y3036204D2*
Y1010700D1*
X1131200Y3919200D2*
Y4056200D1*
X3288806Y1250704D2*
Y1677680D1*
X3249306Y1717180D1*
X1031200Y3972200D2*
Y4056200D1*
X1084200Y805704D2*
X1031200Y752704D1*
Y668700D1*
X2429980Y1250704D2*
Y931700D1*
X3574704Y985200D2*
Y1717180D1*
X3249306D2*
Y3275806D1*
X831200Y4056200D2*
X731700D1*
X705700Y4030200D1*
Y3170165D1*
X775200Y3100665D1*
Y1806696D1*
X696200Y1727696D1*
Y1632700D1*
X5224550D2*
Y1112850D1*
X5293700Y1043700D1*
X696200Y1632700D2*
Y1190196D1*
X650200Y1144196D1*
Y719200D1*
X624200Y693200D1*
X469200D1*
X443200Y667200D1*
Y580550D1*
X469200Y554550D1*
X709704D1*
X735704Y580550D1*
Y642700D1*
X761704Y668700D1*
X831200D1*
X1031200Y868700D2*
D16*
Y968948D1*
X977700Y1022448D1*
Y2952204D1*
X3631200Y3856200D2*
Y3118700D1*
X977700Y2952204D2*
Y3307204D1*
X1031200Y3360704D1*
Y3856200D1*
X3631200Y1056228D2*
Y868700D1*
Y3118700D2*
Y1056228D1*
X4181200Y1118700D2*
Y918700D1*
X2948204Y1308200D2*
Y1120554D1*
X1031204Y1446200D2*
Y3043700D1*
X4088627Y3931200D2*
X4121630D1*
X4143480Y3909350D1*
Y3786053D1*
X4088628Y3731200D1*
X4893700Y1243700D2*
X4792846Y1344554D1*
X4644554D1*
X4543700Y1243700D1*
X3831200Y3856200D2*
Y3758629D1*
X3777700Y3705129D1*
Y3570712D1*
X728700Y3043700D2*
X593700D1*
X831200Y868700D2*
Y931700D1*
X848700Y949200D1*
Y1340204D1*
X2931200Y3570712D2*
Y3856200D1*
X3831200Y868700D2*
Y1123200D1*
X4181200Y918700D2*
Y818700D1*
X4081200Y718700D1*
X2948204Y1120554D2*
Y948704D1*
X2931200Y931700D1*
Y868700D1*
X4088628Y3731200D2*
X4088627Y3618700D1*
X3777700Y3570712D2*
Y2892700D1*
X5093700Y931200D2*
Y831200D1*
X5032263Y1106633D2*
X5021050Y1095420D1*
Y966633D1*
X5056483Y931200D1*
X5093700D1*
X4246735Y2332700D2*
D15*
X4386235Y2193200D1*
X5443200D1*
X5469200Y2167200D1*
Y819200D1*
X5393700Y743700D1*
X1231200Y4056200D2*
X1180700Y4005700D1*
Y2232700D1*
Y719200D1*
X1231200Y668700D1*
X3777700Y938700D2*
D16*
Y1196550D1*
X3846704Y1265554D1*
X4643700Y1243700D2*
X4573550Y1173550D1*
X4432200D1*
X4406200Y1147550D1*
Y993700D1*
X4432200Y1173550D2*
X4406200Y1199550D1*
Y1265554D1*
X3846704D2*
Y3576208D1*
X3901204Y3630708D1*
X4406200Y993700D2*
X4282050D1*
X4236050Y947700D1*
Y740550D1*
X4214200Y718700D1*
X4181200D1*
X4981550Y1195354D2*
D15*
Y669200D1*
X4955550Y643200D1*
X4650172D1*
X4624172Y669200D1*
Y911672D1*
X4706200Y993700D1*
X931200Y668700D2*
X761700Y838200D1*
Y1138200D1*
X795700Y1172200D1*
Y1656448D1*
X827200Y1687948D1*
Y2485700D1*
X4861558Y2493200D2*
X5469200D1*
X5495200Y2467200D1*
Y719200D1*
X5469200Y693200D1*
X5369200D1*
X5343200Y719200D1*
Y794200D1*
X5293700Y843700D1*
X827200Y2485700D2*
Y3734700D1*
X749204Y3812696D1*
Y3874204D1*
X931200Y4056200D1*
X4406200Y693700D2*
D16*
X4543704Y831204D1*
Y1018850D1*
X4589704Y1064850D1*
X4767700D1*
X4793700Y1090850D1*
X4856200Y1028350D1*
Y831200D1*
X3901200Y918704D2*
Y1439700D1*
X2991200Y3512696D2*
Y3664310D1*
X3031200Y3704310D1*
Y3856200D1*
X3223306Y1439700D2*
Y931700D1*
X3094200D1*
X3031200Y868700D1*
X4793700Y1090850D2*
Y1243700D1*
X3901200Y1439700D2*
Y3512696D1*
X709700Y810700D2*
D15*
Y606550D1*
X683700Y580550D1*
X556850D1*
X493700Y643700D1*
X931200Y868700D2*
Y3856200D1*
X656700Y1332700D2*
X617200Y1293200D1*
X469200D1*
X443200Y1267200D1*
Y794200D1*
X493700Y743700D1*
X1131200Y3856200D2*
Y1050200D1*
X716704D2*
X722200Y1055696D1*
Y1319200D1*
X735700Y1332700D1*
X1131200Y1050200D2*
Y868700D1*
X1231200D2*
Y3856200D1*
X1331200D2*
Y971200D1*
Y868700D1*
X1431200D2*
Y1093200D1*
Y3856200D1*
X1531200Y868700D2*
Y1246200D1*
Y3856200D1*
X1631200D2*
Y1172200D1*
Y868700D1*
X866700Y1400204D2*
Y1832700D1*
X1731200Y868700D2*
Y1832700D1*
Y3856200D1*
X1831200D2*
Y1457054D1*
Y868700D1*
X1931200D2*
Y1593200D1*
Y3856200D1*
X2031200D2*
Y1731700D1*
Y868700D1*
X2131200Y3856200D2*
Y1717180D1*
Y868700D1*
X2231200D2*
Y1946200D1*
Y3856200D1*
X2331200D2*
Y1940200D1*
Y868700D1*
X2281700Y805704D2*
Y2032700D1*
Y3879700D1*
X2307700Y3905700D1*
X2381700D1*
X2431200Y3856200D1*
X2531200D2*
Y3587204D1*
X2406700Y2193200D2*
Y2115200D1*
X2531200Y1990700D1*
Y868700D1*
Y3587204D2*
X2406700Y3462704D1*
Y2193200D1*
X2631200Y868700D2*
Y2406700D1*
Y3856200D2*
Y3587204D1*
Y2406700D2*
Y3005204D1*
Y3587204D2*
Y3183306D1*
X2731200Y868700D2*
Y2446200D1*
Y3587204D2*
Y3856200D1*
Y2446200D2*
Y2859653D1*
X2882306Y3010759D1*
Y3169806D1*
X2731200Y3320913D1*
Y3587204D1*
X2831200Y3856200D2*
Y3587204D1*
Y2525200D2*
Y868700D1*
Y3587204D2*
Y3377649D1*
X2934306Y3274543D1*
Y2628306D1*
X2831200Y2525200D1*
X3731200Y3856200D2*
Y2693204D1*
Y868700D1*
X3531200Y3856200D2*
Y2732700D1*
Y868700D1*
X3331200Y3856200D2*
Y2693200D1*
Y868700D1*
X3170306Y984704D2*
Y2540200D1*
X2931200Y3926200D2*
Y4056200D1*
X3170306Y2540200D2*
Y3670810D1*
X2720200Y797200D2*
X2780700D1*
Y1837078D1*
X2770700Y1847078D1*
Y2632700D1*
X709700D2*
X670200Y2593200D1*
X543200D1*
X493700Y2543700D1*
X2786649Y718200D2*
X2811200D1*
X2831200Y698200D1*
Y668700D1*
X2770700Y2632700D2*
X2908306Y2770306D1*
Y3184735D1*
X2780700Y3312342D1*
Y4005700D1*
X2831200Y4056200D1*
D27*
X4005200Y2832700D3*
X3965700Y2719200D3*
X3480700Y2619200D3*
X3380700Y2519200D3*
X3231200Y757700D3*
X3420200Y971200D3*
Y3767200D3*
X3231200Y3952200D3*
X3420200Y2432700D3*
X2680700Y2311700D3*
X3209806Y3236306D3*
X2680700D3*
Y3953704D3*
X2991700Y3991700D3*
X3209806Y2393200D3*
X4006846Y656700D3*
X4596700Y1117850D3*
X3130806Y1312054D3*
X3284200Y3723810D3*
X3130806Y2293200D3*
X5052964Y2246204D3*
X2580700Y731700D3*
X3025806Y1063704D3*
Y3337554D3*
X2380700Y3993204D3*
X2475751D3*
X2586649D3*
X3025806Y2246204D3*
X3065306Y1024204D3*
Y3631310D3*
Y2193200D3*
X2580700Y2093200D3*
X2480700Y1951200D3*
X2971791D3*
X2960306Y3377054D3*
X5098554Y1872200D3*
X2380700D3*
X2180700Y1830680D3*
X2084200Y1677680D3*
X1987204Y1593200D3*
X1680700Y1345058D3*
X5178704Y1832700D3*
X1890354D3*
X4906428Y2032700D3*
X1780700Y2132700D3*
X4802495D3*
X2519594D3*
Y2311700D3*
X1580700D3*
X5185050Y1432700D3*
X4466200D3*
Y1226550D3*
X1480700Y1053704D3*
X1380700Y1532700D3*
X1280700Y1386200D3*
X2934310Y1911700D3*
X2870700Y1109700D3*
X1091204Y1010700D3*
Y3036204D3*
X1131200Y3919200D3*
X3249306Y3275806D3*
X1031200Y3972200D3*
X1084200Y805704D3*
X2429980Y931700D3*
Y1250704D3*
X3288806D3*
X3574704Y1717180D3*
Y985200D3*
X3249306Y1717180D3*
X696200Y1632700D3*
X5224550D3*
X3631200Y3118700D3*
X977700Y2952204D3*
X3631200Y1056228D3*
X3777700Y2892700D3*
X2948204Y1308200D3*
X848700Y1340204D3*
X3777700Y3570712D3*
X2931200D3*
X1031204Y3043700D3*
X5032263Y1106633D3*
X728700Y3043700D3*
X3831200Y1123200D3*
X1031204Y1446200D3*
X2948204Y1120554D3*
X4246735Y2332700D3*
X1180700Y2232700D3*
X3777700Y938700D3*
X4406200Y1265554D3*
X3901204Y3630708D3*
X3846704Y1265554D3*
X4981550Y1195354D3*
X4861558Y2493200D3*
X827200Y2485700D3*
X2991200Y3512696D3*
X3901200D3*
X3223306Y1439700D3*
X3901200Y918704D3*
Y1439700D3*
X709700Y810700D3*
X656700Y1332700D3*
X735700D3*
X716704Y1050200D3*
X1131200D3*
X1331200Y971200D3*
X1431200Y1093200D3*
X1531200Y1246200D3*
X1631200Y1172200D3*
X866700Y1832700D3*
Y1400204D3*
X1731200Y1832700D3*
X1831200Y1457054D3*
X1931200Y1593200D3*
X2031200Y1731700D3*
X2131200Y1717180D3*
X2231200Y1946200D3*
X2331200Y1940200D3*
X2281700Y2032700D3*
Y805704D3*
X2406700Y2193200D3*
X2631200Y2406700D3*
Y3005204D3*
Y3183306D3*
X2731200Y2446200D3*
X2831200Y2525200D3*
X3731200Y2693204D3*
X3531200Y2732700D3*
X3331200Y2693200D3*
X3170306Y2540200D3*
Y3670810D3*
X2931200Y3926200D3*
X3170306Y984704D3*
X709700Y2632700D3*
X2770700D3*
X2720200Y797200D3*
X2786649Y718200D3*
D18*
X5393700Y943700D3*
X593700D3*
X493700D3*
X593700Y1043700D3*
X493700D3*
X593700Y1343700D3*
X493700D3*
X593700Y1843700D3*
X493700D3*
X593700Y3043700D3*
Y2943700D3*
Y2843700D3*
Y2743700D3*
Y2643700D3*
Y2543700D3*
Y2443700D3*
Y2343700D3*
Y2243700D3*
Y2143700D3*
X493700D3*
Y2243700D3*
Y2343700D3*
Y2443700D3*
Y2543700D3*
Y2643700D3*
Y2743700D3*
Y2843700D3*
Y2943700D3*
D19*
Y3043700D3*
D18*
Y2043700D3*
X593700D3*
X493700Y1943700D3*
X593700D3*
X493700Y1743700D3*
X593700D3*
X493700Y1643700D3*
X593700D3*
X493700Y1543700D3*
X593700D3*
X493700Y1443700D3*
X593700D3*
X493700Y1243700D3*
X593700D3*
Y1143700D3*
X493700D3*
Y843700D3*
X593700D3*
X493700Y743700D3*
X593700D3*
X493700Y643700D3*
X593700D3*
X5293700Y943700D3*
X5393700Y1043700D3*
X5293700D3*
X5393700Y1343700D3*
X5293700D3*
X5393700Y1843700D3*
X5293700D3*
X5393700Y3043700D3*
Y2943700D3*
Y2843700D3*
Y2743700D3*
Y2643700D3*
Y2543700D3*
Y2443700D3*
Y2343700D3*
Y2243700D3*
Y2143700D3*
X5293700D3*
Y2243700D3*
Y2343700D3*
Y2443700D3*
Y2543700D3*
Y2643700D3*
Y2743700D3*
Y2843700D3*
Y2943700D3*
D19*
Y3043700D3*
D18*
Y2043700D3*
X5393700D3*
X5293700Y1943700D3*
X5393700D3*
X5293700Y1743700D3*
X5393700D3*
X5293700Y1643700D3*
X5393700D3*
X5293700Y1543700D3*
X5393700D3*
X5293700Y1443700D3*
X5393700D3*
X5293700Y1243700D3*
X5393700D3*
Y1143700D3*
X5293700D3*
Y843700D3*
X5393700D3*
X5293700Y743700D3*
X5393700D3*
X5293700Y643700D3*
X5393700D3*
D20*
X4793700Y1243700D3*
D21*
X4893700D3*
D18*
X3731200Y868700D3*
Y668700D3*
X3631200Y868700D3*
Y668700D3*
X3231200Y868700D3*
Y668700D3*
X3131200Y868700D3*
Y668700D3*
X3031200Y868700D3*
Y668700D3*
X2731200D3*
Y868700D3*
X2631200D3*
Y668700D3*
X2231200D3*
X2131200D3*
X2031200D3*
X1931200D3*
X1831200D3*
X831200D3*
X931200D3*
X1031200D3*
X1131200D3*
X1231200D3*
X1331200D3*
X1431200D3*
X1531200D3*
X1631200D3*
X1731200D3*
X2231200Y868700D3*
X2131200D3*
X2031200D3*
X1931200D3*
X1831200D3*
X1731200D3*
X1631200D3*
X1531200D3*
X1431200D3*
X1331200D3*
X1231200D3*
X1131200D3*
X1031200D3*
X931200D3*
D19*
X831200D3*
D18*
X2331200Y668700D3*
Y868700D3*
X2431200D3*
Y668700D3*
X2531200Y868700D3*
Y668700D3*
X2831200D3*
Y868700D3*
X2931200D3*
Y668700D3*
X3331200D3*
Y868700D3*
X3431200Y668700D3*
Y868700D3*
X3531200Y668700D3*
Y868700D3*
X3831200Y668700D3*
Y868700D3*
D22*
X5093700Y1031200D3*
D23*
Y931200D3*
Y831200D3*
Y731200D3*
D24*
X4706200Y693700D3*
D25*
Y793700D3*
Y893700D3*
Y993700D3*
X4406200D3*
Y893700D3*
Y793700D3*
Y693700D3*
D20*
X4543700Y1243700D3*
D21*
X4643700D3*
D19*
X4856200Y731200D3*
D18*
Y831200D3*
D20*
X623773Y3956200D3*
D21*
X523773D3*
D20*
X4088627Y4031200D3*
D21*
Y3931200D3*
D20*
Y3618700D3*
D21*
Y3518700D3*
D20*
X4088626Y3831200D3*
D21*
X4088627Y3731200D3*
D20*
X4081200Y918700D3*
D21*
X4181200D3*
D20*
X4081200Y718700D3*
D21*
X4181200D3*
D20*
X4081200Y1118700D3*
D21*
X4181200D3*
D20*
X656200Y506200D3*
D21*
X556200D3*
D20*
X5043700Y1243700D3*
D21*
X5143700D3*
D18*
X3731200Y4056200D3*
Y3856200D3*
X3631200Y4056200D3*
Y3856200D3*
X3231200Y4056200D3*
Y3856200D3*
X3131200Y4056200D3*
Y3856200D3*
X3031200Y4056200D3*
Y3856200D3*
X2731200D3*
Y4056200D3*
X2631200D3*
Y3856200D3*
X2231200D3*
X2131200D3*
X2031200D3*
X1931200D3*
X1831200D3*
X831200D3*
X931200D3*
X1031200D3*
X1131200D3*
X1231200D3*
X1331200D3*
X1431200D3*
X1531200D3*
X1631200D3*
X1731200D3*
X2231200Y4056200D3*
X2131200D3*
X2031200D3*
X1931200D3*
X1831200D3*
X1731200D3*
X1631200D3*
X1531200D3*
X1431200D3*
X1331200D3*
X1231200D3*
X1131200D3*
X1031200D3*
X931200D3*
D19*
X831200D3*
D18*
X2331200Y3856200D3*
Y4056200D3*
X2431200D3*
Y3856200D3*
X2531200Y4056200D3*
Y3856200D3*
X2831200D3*
Y4056200D3*
X2931200D3*
Y3856200D3*
X3331200D3*
Y4056200D3*
X3431200Y3856200D3*
Y4056200D3*
X3531200Y3856200D3*
Y4056200D3*
X3831200Y3856200D3*
Y4056200D3*
D26*
X2531200Y3118700D3*
Y3587204D3*
X2631200Y3118700D3*
Y3587204D3*
X2731200Y3118700D3*
Y3587204D3*
X2831200Y3118700D3*
Y3587204D3*
M02*
