M48
INCH
T01C0.0191
T02C0.028
T03C0.0327
T04C0.0354
T05C0.038
T06C0.0472
%
T01
X+040055Y+028330
X+039660Y+027195
X+037315Y+026935
X+035315Y+027330
X+034810Y+026195
X+033810Y+025195
X+034205Y+024330
X+032101Y+023935
X+031311Y+022935
X+030261Y+022465
X+030656Y+021935
X+029721Y+019515
X+029346Y+019120
X+032496Y+017175
X+032236Y+014400
X+031311Y+013124
X+032891Y+012510
X+031706Y+009850
X+030656Y+010245
X+030261Y+010640
X+029485Y+011209
X+028710Y+011100
X+029485Y+013085
X+024303Y+012510
X+024303Y+009320
X+022820Y+008060
X+025810Y+007320
X+027205Y+007975
X+027869Y+007185
X+032315Y+007580
X+034205Y+009715
X+035750Y+009855
X+036315Y+010565
X+037780Y+009390
X+039015Y+009190
X+038315Y+011235
X+038470Y+012659
X+039015Y+014400
X+035750Y+017175
X+042470Y+023330
X+048028Y+021330
X+049067Y+020330
X+050989Y+018725
X+051790Y+018330
X+052249Y+016330
X+051854Y+014330
X+049819Y+011957
X+050326Y+011069
X+045970Y+011181
X+044665Y+012269
X+044065Y+012659
X+044665Y+014330
X+040071Y+006570
X+050533Y+022465
X+048619Y+024935
X+037780Y+028930
X+036315Y+031190
X+032496Y+032761
X+032101Y+032366
X+030261Y+033379
X+029606Y+033774
X+029915Y+035130
X+029315Y+035710
X+030656Y+036316
X+031706Y+036711
X+032845Y+037241
X+034205Y+037675
X+032315Y+039525
X+029920Y+039920
X+029315Y+039265
X+026810Y+039540
X+025869Y+039935
X+024761Y+039935
X+023810Y+039935
X+026810Y+032366
X+026315Y+031836
X+026315Y+030055
X+027710Y+026330
X+028315Y+025255
X+027315Y+024465
X+026315Y+024070
X+026810Y+023120
X+025199Y+023120
X+024070Y+021935
X+025199Y+021330
X+025810Y+020935
X+024810Y+019515
X+023810Y+018725
X+023315Y+019405
X+022315Y+019465
X+022820Y+020330
X+021810Y+018310
X+021315Y+017175
X+020845Y+016780
X+020315Y+017320
X+019875Y+015935
X+019315Y+015935
X+018315Y+014574
X+016810Y+013454
X+015315Y+012465
X+016315Y+011725
X+014810Y+010540
X+014315Y+010935
X+013315Y+009715
X+011315Y+010505
X+010915Y+010110
X+010845Y+008060
X+007100Y+008110
X+007170Y+010505
X+007360Y+013330
X+006570Y+013330
X+008490Y+013405
X+008670Y+014005
X+010315Y+014465
X+012810Y+013865
X+013810Y+015330
X+017315Y+018330
X+018907Y+018330
X+017810Y+021330
X+015810Y+023120
X+011810Y+022330
X+008275Y+024860
X+007100Y+026330
X+007290Y+030440
X+009780Y+029525
X+010315Y+030440
X+010915Y+030365
X+011315Y+039195
X+010315Y+039725
X+008670Y+018330
X+006965Y+016330
X+031706Y+025405
X+033315Y+026935
X+037780Y+035710
X+039015Y+035130
X+039015Y+036310
T02
X+047940Y+012440
X+048940Y+012440
X+050440Y+012440
X+051440Y+012440
X+046440Y+012440
X+045440Y+012440
X+041815Y+011190
X+040815Y+011190
X+040815Y+009190
X+041815Y+009190
X+041815Y+007190
X+040815Y+007190
X+040889Y+035190
X+040889Y+036190
X+040889Y+037315
X+040889Y+038315
X+040889Y+039315
X+040889Y+040315
X+006241Y+039565
X+005241Y+039565
X+005565Y+005065
X+006565Y+005065
T03
X+025315Y+031190
X+026315Y+031190
X+027315Y+031190
X+028315Y+031190
X+028315Y+035875
X+027315Y+035875
X+026315Y+035875
X+025315Y+035875
T04
X+047065Y+006940
X+047065Y+007940
X+047065Y+008940
X+047065Y+009940
X+044065Y+009940
X+044065Y+008940
X+044065Y+007940
X+044065Y+006940
T05
X+053940Y+009440
X+052940Y+009440
X+052940Y+008440
X+053940Y+008440
X+053940Y+007440
X+052940Y+007440
X+052940Y+006440
X+053940Y+006440
X+053940Y+010440
X+052940Y+010440
X+052940Y+011440
X+052940Y+012440
X+053940Y+012440
X+053940Y+011440
X+053940Y+013440
X+052940Y+013440
X+052940Y+014440
X+052940Y+015440
X+053940Y+015440
X+053940Y+014440
X+053940Y+016440
X+053940Y+017440
X+053940Y+018440
X+052940Y+018440
X+052940Y+019440
X+053940Y+019440
X+053940Y+020440
X+053940Y+021440
X+053940Y+022440
X+052940Y+022440
X+052940Y+021440
X+052940Y+020440
X+052940Y+023440
X+053940Y+023440
X+053940Y+024440
X+053940Y+025440
X+052940Y+025440
X+052940Y+024440
X+052940Y+026440
X+053940Y+026440
X+053940Y+027440
X+053940Y+028440
X+052940Y+028440
X+052940Y+027440
X+052940Y+029440
X+053940Y+029440
X+053940Y+030440
X+052940Y+030440
X+052940Y+017440
X+052940Y+016440
X+048565Y+008315
X+048565Y+007315
X+038315Y+006690
X+037315Y+006690
X+036315Y+006690
X+035315Y+006690
X+034315Y+006690
X+033315Y+006690
X+032315Y+006690
X+031315Y+006690
X+030315Y+006690
X+029315Y+006690
X+028315Y+006690
X+027315Y+006690
X+026315Y+006690
X+025315Y+006690
X+024315Y+006690
X+023315Y+006690
X+022315Y+006690
X+021315Y+006690
X+020315Y+006690
X+019315Y+006690
X+018315Y+006690
X+017315Y+006690
X+016315Y+006690
X+015315Y+006690
X+014315Y+006690
X+013315Y+006690
X+012315Y+006690
X+011315Y+006690
X+010315Y+006690
X+009315Y+006690
X+008315Y+006690
X+008315Y+008690
X+009315Y+008690
X+010315Y+008690
X+011315Y+008690
X+012315Y+008690
X+013315Y+008690
X+014315Y+008690
X+015315Y+008690
X+016315Y+008690
X+017315Y+008690
X+018315Y+008690
X+019315Y+008690
X+020315Y+008690
X+021315Y+008690
X+022315Y+008690
X+023315Y+008690
X+024315Y+008690
X+025315Y+008690
X+026315Y+008690
X+027315Y+008690
X+028315Y+008690
X+029315Y+008690
X+030315Y+008690
X+031315Y+008690
X+032315Y+008690
X+033315Y+008690
X+034315Y+008690
X+035315Y+008690
X+036315Y+008690
X+037315Y+008690
X+038315Y+008690
X+038315Y+038565
X+037315Y+038565
X+036315Y+038565
X+035315Y+038565
X+034315Y+038565
X+033315Y+038565
X+032315Y+038565
X+031315Y+038565
X+030315Y+038565
X+029315Y+038565
X+028315Y+038565
X+027315Y+038565
X+026315Y+038565
X+025315Y+038565
X+024315Y+038565
X+023315Y+038565
X+022315Y+038565
X+021315Y+038565
X+020315Y+038565
X+019315Y+038565
X+018315Y+038565
X+017315Y+038565
X+016315Y+038565
X+015315Y+038565
X+014315Y+038565
X+013315Y+038565
X+012315Y+038565
X+011315Y+038565
X+010315Y+038565
X+009315Y+038565
X+008315Y+038565
X+008315Y+040565
X+009315Y+040565
X+010315Y+040565
X+011315Y+040565
X+012315Y+040565
X+013315Y+040565
X+014315Y+040565
X+015315Y+040565
X+016315Y+040565
X+017315Y+040565
X+018315Y+040565
X+019315Y+040565
X+020315Y+040565
X+021315Y+040565
X+022315Y+040565
X+023315Y+040565
X+024315Y+040565
X+025315Y+040565
X+026315Y+040565
X+027315Y+040565
X+028315Y+040565
X+029315Y+040565
X+030315Y+040565
X+031315Y+040565
X+032315Y+040565
X+033315Y+040565
X+034315Y+040565
X+035315Y+040565
X+036315Y+040565
X+037315Y+040565
X+038315Y+040565
X+005940Y+030440
X+005940Y+029440
X+004940Y+029440
X+004940Y+030440
X+004940Y+028440
X+004940Y+027440
X+004940Y+026440
X+004940Y+025440
X+004940Y+024440
X+004940Y+023440
X+004940Y+022440
X+004940Y+021440
X+004940Y+020440
X+004940Y+019440
X+004940Y+018440
X+004940Y+017440
X+004940Y+016440
X+005940Y+016440
X+005940Y+017440
X+005940Y+018440
X+005940Y+019440
X+005940Y+020440
X+005940Y+021440
X+005940Y+022440
X+005940Y+023440
X+005940Y+024440
X+005940Y+025440
X+005940Y+026440
X+005940Y+027440
X+005940Y+028440
X+005940Y+015440
X+005940Y+014440
X+005940Y+013440
X+004940Y+013440
X+004940Y+014440
X+004940Y+015440
X+004940Y+012440
X+004940Y+011440
X+004940Y+010440
X+004940Y+009440
X+004940Y+008440
X+004940Y+007440
X+005940Y+007440
X+005940Y+008440
X+005940Y+009440
X+005940Y+010440
X+005940Y+011440
X+005940Y+012440
X+005940Y+006440
X+004940Y+006440
T06
X+050940Y+010315
X+050940Y+009315
X+050940Y+008315
X+050940Y+007315
T00
M30
