G04 DipTrace 4.0.0.5*
G04 TopMask.gbr*
%MOIN*%
G04 #@! TF.FileFunction,Soldermask,Top*
G04 #@! TF.Part,Single*
%ADD37C,0.057093*%
%ADD39C,0.066935*%
%ADD41R,0.066935X0.066935*%
%ADD43C,0.078746*%
%ADD45R,0.078746X0.078746*%
%ADD47C,0.051581*%
%ADD49R,0.051581X0.051581*%
%ADD51R,0.06788X0.06788*%
%ADD53C,0.06788*%
%FSLAX26Y26*%
G04*
G70*
G90*
G75*
G01*
G04 TopMask*
%LPD*%
D53*
X5393700Y943700D3*
X593700D3*
X493700D3*
X593700Y1043700D3*
X493700D3*
X593700Y1343700D3*
X493700D3*
X593700Y1843700D3*
X493700D3*
X593700Y3043700D3*
Y2943700D3*
Y2843700D3*
Y2743700D3*
Y2643700D3*
Y2543700D3*
Y2443700D3*
Y2343700D3*
Y2243700D3*
Y2143700D3*
X493700D3*
Y2243700D3*
Y2343700D3*
Y2443700D3*
Y2543700D3*
Y2643700D3*
Y2743700D3*
Y2843700D3*
Y2943700D3*
D51*
Y3043700D3*
D53*
Y2043700D3*
X593700D3*
X493700Y1943700D3*
X593700D3*
X493700Y1743700D3*
X593700D3*
X493700Y1643700D3*
X593700D3*
X493700Y1543700D3*
X593700D3*
X493700Y1443700D3*
X593700D3*
X493700Y1243700D3*
X593700D3*
Y1143700D3*
X493700D3*
Y843700D3*
X593700D3*
X493700Y743700D3*
X593700D3*
X493700Y643700D3*
X593700D3*
X5293700Y943700D3*
X5393700Y1043700D3*
X5293700D3*
X5393700Y1343700D3*
X5293700D3*
X5393700Y1843700D3*
X5293700D3*
X5393700Y3043700D3*
Y2943700D3*
Y2843700D3*
Y2743700D3*
Y2643700D3*
Y2543700D3*
Y2443700D3*
Y2343700D3*
Y2243700D3*
Y2143700D3*
X5293700D3*
Y2243700D3*
Y2343700D3*
Y2443700D3*
Y2543700D3*
Y2643700D3*
Y2743700D3*
Y2843700D3*
Y2943700D3*
D51*
Y3043700D3*
D53*
Y2043700D3*
X5393700D3*
X5293700Y1943700D3*
X5393700D3*
X5293700Y1743700D3*
X5393700D3*
X5293700Y1643700D3*
X5393700D3*
X5293700Y1543700D3*
X5393700D3*
X5293700Y1443700D3*
X5393700D3*
X5293700Y1243700D3*
X5393700D3*
Y1143700D3*
X5293700D3*
Y843700D3*
X5393700D3*
X5293700Y743700D3*
X5393700D3*
X5293700Y643700D3*
X5393700D3*
D49*
X4793700Y1243700D3*
D47*
X4893700D3*
D53*
X3731200Y868700D3*
Y668700D3*
X3631200Y868700D3*
Y668700D3*
X3231200Y868700D3*
Y668700D3*
X3131200Y868700D3*
Y668700D3*
X3031200Y868700D3*
Y668700D3*
X2731200D3*
Y868700D3*
X2631200D3*
Y668700D3*
X2231200D3*
X2131200D3*
X2031200D3*
X1931200D3*
X1831200D3*
X831200D3*
X931200D3*
X1031200D3*
X1131200D3*
X1231200D3*
X1331200D3*
X1431200D3*
X1531200D3*
X1631200D3*
X1731200D3*
X2231200Y868700D3*
X2131200D3*
X2031200D3*
X1931200D3*
X1831200D3*
X1731200D3*
X1631200D3*
X1531200D3*
X1431200D3*
X1331200D3*
X1231200D3*
X1131200D3*
X1031200D3*
X931200D3*
D51*
X831200D3*
D53*
X2331200Y668700D3*
Y868700D3*
X2431200D3*
Y668700D3*
X2531200Y868700D3*
Y668700D3*
X2831200D3*
Y868700D3*
X2931200D3*
Y668700D3*
X3331200D3*
Y868700D3*
X3431200Y668700D3*
Y868700D3*
X3531200Y668700D3*
Y868700D3*
X3831200Y668700D3*
Y868700D3*
D45*
X5093700Y1031200D3*
D43*
Y931200D3*
Y831200D3*
Y731200D3*
D41*
X4706200Y693700D3*
D39*
Y793700D3*
Y893700D3*
Y993700D3*
X4406200D3*
Y893700D3*
Y793700D3*
Y693700D3*
D49*
X4543700Y1243700D3*
D47*
X4643700D3*
D51*
X4856200Y731200D3*
D53*
Y831200D3*
D49*
X623773Y3956200D3*
D47*
X523773D3*
D49*
X4088627Y4031200D3*
D47*
Y3931200D3*
D49*
Y3618700D3*
D47*
Y3518700D3*
D49*
X4088626Y3831200D3*
D47*
X4088627Y3731200D3*
D49*
X4081200Y918700D3*
D47*
X4181200D3*
D49*
X4081200Y718700D3*
D47*
X4181200D3*
D49*
X4081200Y1118700D3*
D47*
X4181200D3*
D49*
X656200Y506200D3*
D47*
X556200D3*
D49*
X5043700Y1243700D3*
D47*
X5143700D3*
D53*
X3731200Y4056200D3*
Y3856200D3*
X3631200Y4056200D3*
Y3856200D3*
X3231200Y4056200D3*
Y3856200D3*
X3131200Y4056200D3*
Y3856200D3*
X3031200Y4056200D3*
Y3856200D3*
X2731200D3*
Y4056200D3*
X2631200D3*
Y3856200D3*
X2231200D3*
X2131200D3*
X2031200D3*
X1931200D3*
X1831200D3*
X831200D3*
X931200D3*
X1031200D3*
X1131200D3*
X1231200D3*
X1331200D3*
X1431200D3*
X1531200D3*
X1631200D3*
X1731200D3*
X2231200Y4056200D3*
X2131200D3*
X2031200D3*
X1931200D3*
X1831200D3*
X1731200D3*
X1631200D3*
X1531200D3*
X1431200D3*
X1331200D3*
X1231200D3*
X1131200D3*
X1031200D3*
X931200D3*
D51*
X831200D3*
D53*
X2331200Y3856200D3*
Y4056200D3*
X2431200D3*
Y3856200D3*
X2531200Y4056200D3*
Y3856200D3*
X2831200D3*
Y4056200D3*
X2931200D3*
Y3856200D3*
X3331200D3*
Y4056200D3*
X3431200Y3856200D3*
Y4056200D3*
X3531200Y3856200D3*
Y4056200D3*
X3831200Y3856200D3*
Y4056200D3*
D37*
X2531200Y3118700D3*
Y3587204D3*
X2631200Y3118700D3*
Y3587204D3*
X2731200Y3118700D3*
Y3587204D3*
X2831200Y3118700D3*
Y3587204D3*
M02*
