G04 DipTrace 4.0.0.5*
G04 TopSilk.gbr*
%MOIN*%
G04 #@! TF.FileFunction,Legend,Top*
G04 #@! TF.Part,Single*
%ADD10C,0.009843*%
%ADD13C,0.004724*%
%ADD17C,0.001312*%
%ADD55C,0.00772*%
%ADD56C,0.015439*%
%ADD57C,0.004632*%
%ADD58C,0.009264*%
%FSLAX26Y26*%
G04*
G70*
G90*
G75*
G01*
G04 TopSilk*
%LPD*%
X4757086Y1243700D2*
D13*
G02X4757086Y1243700I86614J0D01*
G01*
G36*
X4760642Y1316915D2*
X4760726Y1318200D1*
X4760978Y1319463D1*
X4761391Y1320682D1*
X4761961Y1321836D1*
X4762676Y1322907D1*
X4763525Y1323875D1*
X4764493Y1324724D1*
X4765564Y1325439D1*
X4766718Y1326009D1*
X4767937Y1326422D1*
X4769200Y1326674D1*
X4770485Y1326758D1*
X4771769Y1326674D1*
X4773032Y1326422D1*
X4774251Y1326009D1*
X4775406Y1325439D1*
X4776477Y1324724D1*
X4777444Y1323875D1*
X4778293Y1322907D1*
X4779009Y1321836D1*
X4779578Y1320682D1*
X4779992Y1319463D1*
X4780243Y1318200D1*
X4780327Y1316915D1*
D1*
X4780243Y1315631D1*
X4779992Y1314368D1*
X4779578Y1313149D1*
X4779009Y1311994D1*
X4778293Y1310923D1*
X4777444Y1309956D1*
X4776477Y1309107D1*
X4775406Y1308391D1*
X4774251Y1307822D1*
X4773032Y1307408D1*
X4771769Y1307157D1*
X4770485Y1307073D1*
X4769200Y1307157D1*
X4767937Y1307408D1*
X4766718Y1307822D1*
X4765564Y1308391D1*
X4764493Y1309107D1*
X4763525Y1309956D1*
X4762676Y1310923D1*
X4761961Y1311994D1*
X4761391Y1313149D1*
X4760978Y1314368D1*
X4760726Y1315631D1*
X4760642Y1316915D1*
D1*
G37*
X3930840Y818650D2*
D10*
Y718750D1*
X731560Y818650D2*
Y718750D1*
X3930840Y818650D2*
X731560D1*
X831200Y718700D2*
X731560Y718650D1*
X3931200Y718700D2*
X3831560Y718650D1*
X5215747Y1078050D2*
X4965747D1*
Y684350D1*
X5215747D1*
Y1078050D1*
X5207447D2*
Y684350D1*
X5201422Y1078050D2*
Y684350D1*
X5195397Y1078050D2*
Y684350D1*
X5187523Y1078050D2*
Y684350D1*
X4453834Y646850D2*
Y1040550D1*
X4658566D2*
X4453834D1*
X4658566Y646850D2*
Y1040550D1*
Y646850D2*
X4579826D1*
X4453834D2*
X4532574D1*
X4579826D2*
G03X4532574Y646850I-23626J-4D01*
G01*
X4507086Y1243700D2*
D13*
G02X4507086Y1243700I86614J0D01*
G01*
G36*
X4510642Y1316915D2*
X4510726Y1318200D1*
X4510978Y1319463D1*
X4511391Y1320682D1*
X4511961Y1321836D1*
X4512676Y1322907D1*
X4513525Y1323875D1*
X4514493Y1324724D1*
X4515564Y1325439D1*
X4516718Y1326009D1*
X4517937Y1326422D1*
X4519200Y1326674D1*
X4520485Y1326758D1*
X4521769Y1326674D1*
X4523032Y1326422D1*
X4524251Y1326009D1*
X4525406Y1325439D1*
X4526477Y1324724D1*
X4527444Y1323875D1*
X4528293Y1322907D1*
X4529009Y1321836D1*
X4529578Y1320682D1*
X4529992Y1319463D1*
X4530243Y1318200D1*
X4530327Y1316915D1*
D1*
X4530243Y1315631D1*
X4529992Y1314368D1*
X4529578Y1313149D1*
X4529009Y1311994D1*
X4528293Y1310923D1*
X4527444Y1309956D1*
X4526477Y1309107D1*
X4525406Y1308391D1*
X4524251Y1307822D1*
X4523032Y1307408D1*
X4521769Y1307157D1*
X4520485Y1307073D1*
X4519200Y1307157D1*
X4517937Y1307408D1*
X4516718Y1307822D1*
X4515564Y1308391D1*
X4514493Y1309107D1*
X4513525Y1309956D1*
X4512676Y1310923D1*
X4511961Y1311994D1*
X4511391Y1313149D1*
X4510978Y1314368D1*
X4510726Y1315631D1*
X4510642Y1316915D1*
D1*
G37*
X4906200Y706200D2*
D10*
Y856200D1*
X4881200Y881200D1*
X4831200D1*
X4806200Y856200D2*
X4831200Y881200D1*
X4806200Y706200D2*
Y856200D1*
X4831200Y681200D2*
X4806200Y706200D1*
X4881200Y681200D2*
X4831200D1*
X4881200D2*
X4906200Y706200D1*
X4044586Y918700D2*
D13*
G02X4044586Y918700I86614J0D01*
G01*
G36*
X4048142Y991915D2*
X4048226Y993200D1*
X4048478Y994463D1*
X4048891Y995682D1*
X4049461Y996836D1*
X4050176Y997907D1*
X4051025Y998875D1*
X4051993Y999724D1*
X4053064Y1000439D1*
X4054218Y1001009D1*
X4055437Y1001422D1*
X4056700Y1001674D1*
X4057985Y1001758D1*
X4059269Y1001674D1*
X4060532Y1001422D1*
X4061751Y1001009D1*
X4062906Y1000439D1*
X4063977Y999724D1*
X4064944Y998875D1*
X4065793Y997907D1*
X4066509Y996836D1*
X4067078Y995682D1*
X4067492Y994463D1*
X4067743Y993200D1*
X4067827Y991915D1*
D1*
X4067743Y990631D1*
X4067492Y989368D1*
X4067078Y988149D1*
X4066509Y986994D1*
X4065793Y985923D1*
X4064944Y984956D1*
X4063977Y984107D1*
X4062906Y983391D1*
X4061751Y982822D1*
X4060532Y982408D1*
X4059269Y982157D1*
X4057985Y982073D1*
X4056700Y982157D1*
X4055437Y982408D1*
X4054218Y982822D1*
X4053064Y983391D1*
X4051993Y984107D1*
X4051025Y984956D1*
X4050176Y985923D1*
X4049461Y986994D1*
X4048891Y988149D1*
X4048478Y989368D1*
X4048226Y990631D1*
X4048142Y991915D1*
D1*
G37*
X4044586Y718700D2*
D13*
G02X4044586Y718700I86614J0D01*
G01*
G36*
X4048142Y791915D2*
X4048226Y793200D1*
X4048478Y794463D1*
X4048891Y795682D1*
X4049461Y796836D1*
X4050176Y797907D1*
X4051025Y798875D1*
X4051993Y799724D1*
X4053064Y800439D1*
X4054218Y801009D1*
X4055437Y801422D1*
X4056700Y801674D1*
X4057985Y801758D1*
X4059269Y801674D1*
X4060532Y801422D1*
X4061751Y801009D1*
X4062906Y800439D1*
X4063977Y799724D1*
X4064944Y798875D1*
X4065793Y797907D1*
X4066509Y796836D1*
X4067078Y795682D1*
X4067492Y794463D1*
X4067743Y793200D1*
X4067827Y791915D1*
D1*
X4067743Y790631D1*
X4067492Y789368D1*
X4067078Y788149D1*
X4066509Y786994D1*
X4065793Y785923D1*
X4064944Y784956D1*
X4063977Y784107D1*
X4062906Y783391D1*
X4061751Y782822D1*
X4060532Y782408D1*
X4059269Y782157D1*
X4057985Y782073D1*
X4056700Y782157D1*
X4055437Y782408D1*
X4054218Y782822D1*
X4053064Y783391D1*
X4051993Y784107D1*
X4051025Y784956D1*
X4050176Y785923D1*
X4049461Y786994D1*
X4048891Y788149D1*
X4048478Y789368D1*
X4048226Y790631D1*
X4048142Y791915D1*
D1*
G37*
X4044586Y1118700D2*
D13*
G02X4044586Y1118700I86614J0D01*
G01*
G36*
X4048142Y1191915D2*
X4048226Y1193200D1*
X4048478Y1194463D1*
X4048891Y1195682D1*
X4049461Y1196836D1*
X4050176Y1197907D1*
X4051025Y1198875D1*
X4051993Y1199724D1*
X4053064Y1200439D1*
X4054218Y1201009D1*
X4055437Y1201422D1*
X4056700Y1201674D1*
X4057985Y1201758D1*
X4059269Y1201674D1*
X4060532Y1201422D1*
X4061751Y1201009D1*
X4062906Y1200439D1*
X4063977Y1199724D1*
X4064944Y1198875D1*
X4065793Y1197907D1*
X4066509Y1196836D1*
X4067078Y1195682D1*
X4067492Y1194463D1*
X4067743Y1193200D1*
X4067827Y1191915D1*
D1*
X4067743Y1190631D1*
X4067492Y1189368D1*
X4067078Y1188149D1*
X4066509Y1186994D1*
X4065793Y1185923D1*
X4064944Y1184956D1*
X4063977Y1184107D1*
X4062906Y1183391D1*
X4061751Y1182822D1*
X4060532Y1182408D1*
X4059269Y1182157D1*
X4057985Y1182073D1*
X4056700Y1182157D1*
X4055437Y1182408D1*
X4054218Y1182822D1*
X4053064Y1183391D1*
X4051993Y1184107D1*
X4051025Y1184956D1*
X4050176Y1185923D1*
X4049461Y1186994D1*
X4048891Y1188149D1*
X4048478Y1189368D1*
X4048226Y1190631D1*
X4048142Y1191915D1*
D1*
G37*
X519586Y506200D2*
D13*
G02X519586Y506200I86614J0D01*
G01*
G36*
X689258Y432985D2*
X689174Y431700D1*
X688922Y430437D1*
X688509Y429218D1*
X687939Y428064D1*
X687224Y426993D1*
X686375Y426025D1*
X685407Y425176D1*
X684336Y424461D1*
X683182Y423891D1*
X681963Y423478D1*
X680700Y423226D1*
X679415Y423142D1*
X678131Y423226D1*
X676868Y423478D1*
X675649Y423891D1*
X674494Y424461D1*
X673423Y425176D1*
X672456Y426025D1*
X671607Y426993D1*
X670891Y428064D1*
X670322Y429218D1*
X669908Y430437D1*
X669657Y431700D1*
X669573Y432985D1*
D1*
X669657Y434269D1*
X669908Y435532D1*
X670322Y436751D1*
X670891Y437906D1*
X671607Y438977D1*
X672456Y439944D1*
X673423Y440793D1*
X674494Y441509D1*
X675649Y442078D1*
X676868Y442492D1*
X678131Y442743D1*
X679415Y442827D1*
X680700Y442743D1*
X681963Y442492D1*
X683182Y442078D1*
X684336Y441509D1*
X685407Y440793D1*
X686375Y439944D1*
X687224Y438977D1*
X687939Y437906D1*
X688509Y436751D1*
X688922Y435532D1*
X689174Y434269D1*
X689258Y432985D1*
D1*
G37*
X5007086Y1243700D2*
D13*
G02X5007086Y1243700I86614J0D01*
G01*
G36*
X5010642Y1316915D2*
X5010726Y1318200D1*
X5010978Y1319463D1*
X5011391Y1320682D1*
X5011961Y1321836D1*
X5012676Y1322907D1*
X5013525Y1323875D1*
X5014493Y1324724D1*
X5015564Y1325439D1*
X5016718Y1326009D1*
X5017937Y1326422D1*
X5019200Y1326674D1*
X5020485Y1326758D1*
X5021769Y1326674D1*
X5023032Y1326422D1*
X5024251Y1326009D1*
X5025406Y1325439D1*
X5026477Y1324724D1*
X5027444Y1323875D1*
X5028293Y1322907D1*
X5029009Y1321836D1*
X5029578Y1320682D1*
X5029992Y1319463D1*
X5030243Y1318200D1*
X5030327Y1316915D1*
D1*
X5030243Y1315631D1*
X5029992Y1314368D1*
X5029578Y1313149D1*
X5029009Y1311994D1*
X5028293Y1310923D1*
X5027444Y1309956D1*
X5026477Y1309107D1*
X5025406Y1308391D1*
X5024251Y1307822D1*
X5023032Y1307408D1*
X5021769Y1307157D1*
X5020485Y1307073D1*
X5019200Y1307157D1*
X5017937Y1307408D1*
X5016718Y1307822D1*
X5015564Y1308391D1*
X5014493Y1309107D1*
X5013525Y1309956D1*
X5012676Y1310923D1*
X5011961Y1311994D1*
X5011391Y1313149D1*
X5010978Y1314368D1*
X5010726Y1315631D1*
X5010642Y1316915D1*
D1*
G37*
X2481987Y3254527D2*
D13*
Y3205314D1*
X2580413D1*
Y3254527D1*
X2481987Y3451377D2*
Y3500590D1*
X2580413D1*
Y3451377D1*
X2531200Y3150196D2*
Y3205314D1*
Y3500590D2*
Y3555708D1*
X2581987Y3254527D2*
Y3205314D1*
X2680413D1*
Y3254527D1*
X2581987Y3451377D2*
Y3500590D1*
X2680413D1*
Y3451377D1*
X2631200Y3150196D2*
Y3205314D1*
Y3500590D2*
Y3555708D1*
X2681987Y3254527D2*
Y3205314D1*
X2780413D1*
Y3254527D1*
X2681987Y3451377D2*
Y3500590D1*
X2780413D1*
Y3451377D1*
X2731200Y3150196D2*
Y3205314D1*
Y3500590D2*
Y3555708D1*
X2781987Y3254527D2*
Y3205314D1*
X2880413D1*
Y3254527D1*
X2781987Y3451377D2*
Y3500590D1*
X2880413D1*
Y3451377D1*
X2831200Y3150196D2*
Y3205314D1*
Y3500590D2*
Y3555708D1*
X2893700Y1068700D2*
D17*
X3281200D1*
Y1256200D1*
X3231200D2*
X3331200D1*
X3281200Y1331200D1*
X3231200Y1256200D1*
X3031200Y3393700D2*
X3081200Y3343700D1*
X3131200Y3393700D1*
X3031200D1*
X3081200D2*
Y3481200D1*
X2868700D1*
X3930840Y4006150D2*
D10*
Y3906250D1*
X731560Y4006150D2*
Y3906250D1*
X3930840Y4006150D2*
X731560D1*
X831200Y3906200D2*
X731560Y3906150D1*
X3931200Y3906200D2*
X3831560Y3906150D1*
X699283Y2609783D2*
D56*
Y2533290D1*
X694530Y2518920D1*
X689666Y2514166D1*
X680160Y2509303D1*
X670543D1*
X661037Y2514166D1*
X656283Y2518920D1*
X651420Y2533290D1*
Y2542796D1*
X735025Y2585796D2*
Y2590549D1*
X739778Y2600166D1*
X744532Y2604919D1*
X754149Y2609672D1*
X773272D1*
X782778Y2604919D1*
X787531Y2600166D1*
X792395Y2590549D1*
Y2581042D1*
X787531Y2571426D1*
X778025Y2557166D1*
X730162Y2509303D1*
X797148D1*
X5149283Y2609783D2*
Y2533290D1*
X5144530Y2518920D1*
X5139666Y2514166D1*
X5130160Y2509303D1*
X5120543D1*
X5111037Y2514166D1*
X5106283Y2518920D1*
X5101420Y2533290D1*
Y2542796D1*
X5204038Y2609672D2*
X5189778Y2604919D1*
X5184915Y2595413D1*
Y2585796D1*
X5189778Y2576289D1*
X5199285Y2571426D1*
X5218408Y2566672D1*
X5232778Y2561919D1*
X5242284Y2552302D1*
X5247038Y2542796D1*
Y2528426D1*
X5242284Y2518920D1*
X5237531Y2514056D1*
X5223161Y2509303D1*
X5204038D1*
X5189778Y2514056D1*
X5184915Y2518920D1*
X5180162Y2528426D1*
Y2542796D1*
X5184915Y2552302D1*
X5194532Y2561919D1*
X5208791Y2566672D1*
X5227914Y2571426D1*
X5237531Y2576289D1*
X5242284Y2585796D1*
Y2595413D1*
X5237531Y2604919D1*
X5223161Y2609672D1*
X5204038D1*
X546016Y3127755D2*
D57*
X548901Y3129214D1*
X553212Y3133492D1*
Y3103381D1*
X593095Y3126329D2*
Y3127755D1*
X594521Y3130640D1*
X595947Y3132066D1*
X598832Y3133492D1*
X604569D1*
X607421Y3132066D1*
X608847Y3130640D1*
X610306Y3127755D1*
Y3124903D1*
X608847Y3122018D1*
X605995Y3117740D1*
X591636Y3103381D1*
X611732D1*
X535375Y678381D2*
Y708492D1*
X521016Y688429D1*
X542538D1*
X570471Y698477D2*
X569012Y694166D1*
X566160Y691281D1*
X561849Y689855D1*
X560423D1*
X556112Y691281D1*
X553261Y694166D1*
X551801Y698477D1*
Y699903D1*
X553261Y704214D1*
X556112Y707066D1*
X560423Y708492D1*
X561849D1*
X566160Y707066D1*
X569012Y704214D1*
X570471Y698477D1*
Y691281D1*
X569012Y684118D1*
X566160Y679807D1*
X561849Y678381D1*
X558997D1*
X554686Y679807D1*
X553261Y682692D1*
X626107Y708492D2*
X611781D1*
X610355Y695592D1*
X611781Y697018D1*
X616092Y698477D1*
X620370D1*
X624681Y697018D1*
X627566Y694166D1*
X628992Y689855D1*
Y687003D1*
X627566Y682692D1*
X624681Y679807D1*
X620370Y678381D1*
X616092D1*
X611781Y679807D1*
X610355Y681266D1*
X608896Y684118D1*
X646877Y708492D2*
X642566Y707066D1*
X639681Y702755D1*
X638255Y695592D1*
Y691281D1*
X639681Y684118D1*
X642566Y679807D1*
X646877Y678381D1*
X649729D1*
X654040Y679807D1*
X656892Y684118D1*
X658351Y691281D1*
Y695592D1*
X656892Y702755D1*
X654040Y707066D1*
X649729Y708492D1*
X646877D1*
X656892Y702755D2*
X639681Y684118D1*
X5296016Y3127755D2*
X5298901Y3129214D1*
X5303212Y3133492D1*
Y3103381D1*
X5343095Y3126329D2*
Y3127755D1*
X5344521Y3130640D1*
X5345947Y3132066D1*
X5348832Y3133492D1*
X5354569D1*
X5357421Y3132066D1*
X5358847Y3130640D1*
X5360306Y3127755D1*
Y3124903D1*
X5358847Y3122018D1*
X5355995Y3117740D1*
X5341636Y3103381D1*
X5361732D1*
X5235375Y690881D2*
Y720992D1*
X5221016Y700929D1*
X5242538D1*
X5270471Y710977D2*
X5269012Y706666D1*
X5266160Y703781D1*
X5261849Y702355D1*
X5260423D1*
X5256112Y703781D1*
X5253261Y706666D1*
X5251801Y710977D1*
Y712403D1*
X5253261Y716714D1*
X5256112Y719566D1*
X5260423Y720992D1*
X5261849D1*
X5266160Y719566D1*
X5269012Y716714D1*
X5270471Y710977D1*
Y703781D1*
X5269012Y696618D1*
X5266160Y692307D1*
X5261849Y690881D1*
X5258997D1*
X5254686Y692307D1*
X5253261Y695192D1*
X5326107Y720992D2*
X5311781D1*
X5310355Y708092D1*
X5311781Y709518D1*
X5316092Y710977D1*
X5320370D1*
X5324681Y709518D1*
X5327566Y706666D1*
X5328992Y702355D1*
Y699503D1*
X5327566Y695192D1*
X5324681Y692307D1*
X5320370Y690881D1*
X5316092D1*
X5311781Y692307D1*
X5310355Y693766D1*
X5308896Y696618D1*
X5346877Y720992D2*
X5342566Y719566D1*
X5339681Y715255D1*
X5338255Y708092D1*
Y703781D1*
X5339681Y696618D1*
X5342566Y692307D1*
X5346877Y690881D1*
X5349729D1*
X5354040Y692307D1*
X5356892Y696618D1*
X5358351Y703781D1*
Y708092D1*
X5356892Y715255D1*
X5354040Y719566D1*
X5349729Y720992D1*
X5346877D1*
X5356892Y715255D2*
X5339681Y696618D1*
X3658430Y3352303D2*
D55*
X3656053Y3357056D1*
X3651245Y3361865D1*
X3646492Y3364241D1*
X3636930D1*
X3632121Y3361865D1*
X3627368Y3357056D1*
X3624936Y3352303D1*
X3622560Y3345118D1*
Y3333125D1*
X3624936Y3325995D1*
X3627368Y3321186D1*
X3632121Y3316433D1*
X3636930Y3314001D1*
X3646492D1*
X3651245Y3316433D1*
X3656053Y3321186D1*
X3658430Y3325995D1*
X3685807Y3347495D2*
X3681054Y3345118D1*
X3676246Y3340310D1*
X3673869Y3333125D1*
Y3328371D1*
X3676246Y3321186D1*
X3681054Y3316433D1*
X3685807Y3314001D1*
X3692992D1*
X3697801Y3316433D1*
X3702554Y3321186D1*
X3704986Y3328371D1*
Y3333125D1*
X3702554Y3340310D1*
X3697801Y3345118D1*
X3692992Y3347495D1*
X3685807D1*
X3720425D2*
Y3314001D1*
Y3337933D2*
X3727610Y3345118D1*
X3732418Y3347495D1*
X3739548D1*
X3744357Y3345118D1*
X3746733Y3337933D1*
Y3314001D1*
Y3337933D2*
X3753918Y3345118D1*
X3758727Y3347495D1*
X3765857D1*
X3770665Y3345118D1*
X3773097Y3337933D1*
Y3314001D1*
X3788536Y3347495D2*
Y3297255D1*
Y3340310D2*
X3793345Y3345063D1*
X3798098Y3347495D1*
X3805283D1*
X3810091Y3345063D1*
X3814844Y3340310D1*
X3817276Y3333125D1*
Y3328316D1*
X3814844Y3321186D1*
X3810091Y3316378D1*
X3805283Y3314001D1*
X3798098D1*
X3793345Y3316378D1*
X3788536Y3321186D1*
X3832715Y3347495D2*
Y3323563D1*
X3835092Y3316433D1*
X3839901Y3314001D1*
X3847086D1*
X3851839Y3316433D1*
X3859024Y3323563D1*
Y3347495D2*
Y3314001D1*
X3881648Y3364241D2*
Y3323563D1*
X3884025Y3316433D1*
X3888833Y3314001D1*
X3893586D1*
X3874463Y3347495D2*
X3891210D1*
X3909026Y3333125D2*
X3937710D1*
Y3337933D1*
X3935334Y3342741D1*
X3932957Y3345118D1*
X3928149Y3347495D1*
X3920964D1*
X3916211Y3345118D1*
X3911402Y3340310D1*
X3909026Y3333125D1*
Y3328371D1*
X3911402Y3321186D1*
X3916211Y3316433D1*
X3920964Y3314001D1*
X3928149D1*
X3932957Y3316433D1*
X3937710Y3321186D1*
X3953150Y3347495D2*
Y3314001D1*
Y3333125D2*
X3955582Y3340310D1*
X3960335Y3345118D1*
X3965143Y3347495D1*
X3972328D1*
X4036368Y3340310D2*
X4057868D1*
X4065053Y3342741D1*
X4067485Y3345118D1*
X4069862Y3349871D1*
Y3354680D1*
X4067485Y3359433D1*
X4065053Y3361865D1*
X4057868Y3364241D1*
X4036368D1*
Y3314001D1*
X4053115Y3340310D2*
X4069862Y3314001D1*
X4085301Y3333125D2*
X4113986D1*
Y3337933D1*
X4111609Y3342741D1*
X4109233Y3345118D1*
X4104424Y3347495D1*
X4097239D1*
X4092486Y3345118D1*
X4087678Y3340310D1*
X4085301Y3333125D1*
Y3328371D1*
X4087678Y3321186D1*
X4092486Y3316433D1*
X4097239Y3314001D1*
X4104424D1*
X4109233Y3316433D1*
X4113986Y3321186D1*
X4158110Y3347495D2*
Y3314001D1*
Y3340310D2*
X4153357Y3345118D1*
X4148548Y3347495D1*
X4141419D1*
X4136610Y3345118D1*
X4131857Y3340310D1*
X4129425Y3333125D1*
Y3328371D1*
X4131857Y3321186D1*
X4136610Y3316433D1*
X4141419Y3314001D1*
X4148548D1*
X4153357Y3316433D1*
X4158110Y3321186D1*
X4173549Y3347495D2*
Y3314001D1*
Y3333125D2*
X4175981Y3340310D1*
X4180734Y3345118D1*
X4185543Y3347495D1*
X4192728D1*
X1336619Y3617328D2*
D58*
Y3577136D1*
Y3600084D2*
X1339537Y3608706D1*
X1345241Y3614476D1*
X1351011Y3617328D1*
X1359633D1*
X1378161Y3637424D2*
X1381012Y3634572D1*
X1383931Y3637424D1*
X1381012Y3640343D1*
X1378161Y3637424D1*
X1381012Y3617328D2*
Y3577136D1*
X1436880Y3614476D2*
Y3568514D1*
X1434028Y3559959D1*
X1431176Y3557040D1*
X1425406Y3554188D1*
X1416784D1*
X1411080Y3557040D1*
X1436880Y3605854D2*
X1431176Y3611558D1*
X1425406Y3614476D1*
X1416784D1*
X1411080Y3611558D1*
X1405310Y3605854D1*
X1402458Y3597232D1*
Y3591462D1*
X1405310Y3582907D1*
X1411080Y3577136D1*
X1416784Y3574284D1*
X1425406D1*
X1431176Y3577136D1*
X1436880Y3582907D1*
X1455407Y3637424D2*
Y3577136D1*
Y3605854D2*
X1464029Y3614476D1*
X1469799Y3617328D1*
X1478421D1*
X1484125Y3614476D1*
X1486977Y3605854D1*
Y3577136D1*
X1514126Y3637424D2*
Y3588610D1*
X1516978Y3580055D1*
X1522748Y3577136D1*
X1528452D1*
X1505504Y3617328D2*
X1525600D1*
X1639722D2*
Y3577136D1*
Y3608706D2*
X1634018Y3614476D1*
X1628248Y3617328D1*
X1619692D1*
X1613922Y3614476D1*
X1608218Y3608706D1*
X1605300Y3600084D1*
Y3594380D1*
X1608218Y3585758D1*
X1613922Y3580055D1*
X1619692Y3577136D1*
X1628248D1*
X1634018Y3580055D1*
X1639722Y3585758D1*
X1658249Y3617328D2*
Y3577136D1*
Y3605854D2*
X1666871Y3614476D1*
X1672641Y3617328D1*
X1681197D1*
X1686967Y3614476D1*
X1689819Y3605854D1*
Y3577136D1*
X1742768Y3614476D2*
Y3568514D1*
X1739916Y3559959D1*
X1737064Y3557040D1*
X1731294Y3554188D1*
X1722672D1*
X1716968Y3557040D1*
X1742768Y3605854D2*
X1737064Y3611558D1*
X1731294Y3614476D1*
X1722672D1*
X1716968Y3611558D1*
X1711198Y3605854D1*
X1708346Y3597232D1*
Y3591462D1*
X1711198Y3582907D1*
X1716968Y3577136D1*
X1722672Y3574284D1*
X1731294D1*
X1737064Y3577136D1*
X1742768Y3582907D1*
X1761295Y3637424D2*
Y3577136D1*
X1779822Y3600084D2*
X1814244D1*
Y3605854D1*
X1811392Y3611625D1*
X1808540Y3614476D1*
X1802770Y3617328D1*
X1794148D1*
X1788444Y3614476D1*
X1782674Y3608706D1*
X1779822Y3600084D1*
Y3594380D1*
X1782674Y3585758D1*
X1788444Y3580055D1*
X1794148Y3577136D1*
X1802770D1*
X1808540Y3580055D1*
X1814244Y3585758D1*
X1891092Y3637424D2*
Y3577136D1*
X1949811Y3628802D2*
X1944107Y3634572D1*
X1935485Y3637424D1*
X1924011D1*
X1915389Y3634572D1*
X1909619Y3628802D1*
Y3623099D1*
X1912537Y3617328D1*
X1915389Y3614476D1*
X1921093Y3611625D1*
X1938337Y3605854D1*
X1944107Y3603003D1*
X1946959Y3600084D1*
X1949811Y3594380D1*
Y3585758D1*
X1944107Y3580055D1*
X1935485Y3577136D1*
X1924011D1*
X1915389Y3580055D1*
X1909619Y3585758D1*
X2014300Y3577136D2*
X1991286Y3637424D1*
X1968338Y3577136D1*
X1976960Y3597232D2*
X2005678D1*
X2122719Y3608706D2*
X2119867Y3614476D1*
X2111245Y3617328D1*
X2102623D1*
X2094001Y3614476D1*
X2091149Y3608706D1*
X2094001Y3603003D1*
X2099771Y3600084D1*
X2114097Y3597232D1*
X2119867Y3594380D1*
X2122719Y3588610D1*
Y3585758D1*
X2119867Y3580055D1*
X2111245Y3577136D1*
X2102623D1*
X2094001Y3580055D1*
X2091149Y3585758D1*
X2141246Y3637424D2*
Y3577136D1*
X2174099Y3617328D2*
X2168395Y3614476D1*
X2162625Y3608706D1*
X2159773Y3600084D1*
Y3594380D1*
X2162625Y3585758D1*
X2168395Y3580055D1*
X2174099Y3577136D1*
X2182721D1*
X2188491Y3580055D1*
X2194195Y3585758D1*
X2197113Y3594380D1*
Y3600084D1*
X2194195Y3608706D1*
X2188491Y3614476D1*
X2182721Y3617328D1*
X2174099D1*
X2224262Y3637424D2*
Y3588610D1*
X2227114Y3580055D1*
X2232884Y3577136D1*
X2238588D1*
X2215640Y3617328D2*
X2235736D1*
X2329762D2*
X2324058Y3614476D1*
X2318288Y3608706D1*
X2315436Y3600084D1*
Y3594380D1*
X2318288Y3585758D1*
X2324058Y3580055D1*
X2329762Y3577136D1*
X2338384D1*
X2344154Y3580055D1*
X2349858Y3585758D1*
X2352776Y3594380D1*
Y3600084D1*
X2349858Y3608706D1*
X2344154Y3614476D1*
X2338384Y3617328D1*
X2329762D1*
X2371303D2*
Y3577136D1*
Y3605854D2*
X2379925Y3614476D1*
X2385696Y3617328D1*
X2394251D1*
X2400021Y3614476D1*
X2402873Y3605854D1*
Y3577136D1*
X2494047Y3617328D2*
X2488344Y3614476D1*
X2482574Y3608706D1*
X2479722Y3600084D1*
Y3594380D1*
X2482574Y3585758D1*
X2488344Y3580055D1*
X2494047Y3577136D1*
X2502670D1*
X2508440Y3580055D1*
X2514143Y3585758D1*
X2517062Y3594380D1*
Y3600084D1*
X2514143Y3608706D1*
X2508440Y3614476D1*
X2502670Y3617328D1*
X2494047D1*
X2544211Y3637424D2*
Y3588610D1*
X2547063Y3580055D1*
X2552833Y3577136D1*
X2558537D1*
X2535589Y3617328D2*
X2555685D1*
X2577064Y3637424D2*
Y3577136D1*
Y3605854D2*
X2585686Y3614476D1*
X2591456Y3617328D1*
X2600078D1*
X2605782Y3614476D1*
X2608634Y3605854D1*
Y3577136D1*
X2627161Y3600084D2*
X2661583D1*
Y3605854D1*
X2658731Y3611625D1*
X2655879Y3614476D1*
X2650109Y3617328D1*
X2641487D1*
X2635783Y3614476D1*
X2630013Y3608706D1*
X2627161Y3600084D1*
Y3594380D1*
X2630013Y3585758D1*
X2635783Y3580055D1*
X2641487Y3577136D1*
X2650109D1*
X2655879Y3580055D1*
X2661583Y3585758D1*
X2680110Y3617328D2*
Y3577136D1*
Y3600084D2*
X2683028Y3608706D1*
X2688732Y3614476D1*
X2694502Y3617328D1*
X2703124D1*
X2811542Y3608706D2*
X2808690Y3614476D1*
X2800068Y3617328D1*
X2791446D1*
X2782824Y3614476D1*
X2779972Y3608706D1*
X2782824Y3603003D1*
X2788594Y3600084D1*
X2802920Y3597232D1*
X2808690Y3594380D1*
X2811542Y3588610D1*
Y3585758D1*
X2808690Y3580055D1*
X2800068Y3577136D1*
X2791446D1*
X2782824Y3580055D1*
X2779972Y3585758D1*
X2830069Y3637424D2*
X2832921Y3634572D1*
X2835840Y3637424D1*
X2832921Y3640343D1*
X2830069Y3637424D1*
X2832921Y3617328D2*
Y3577136D1*
X2888788Y3637424D2*
Y3577136D1*
Y3608706D2*
X2883085Y3614476D1*
X2877315Y3617328D1*
X2868692D1*
X2862989Y3614476D1*
X2857219Y3608706D1*
X2854367Y3600084D1*
Y3594380D1*
X2857219Y3585758D1*
X2862989Y3580055D1*
X2868692Y3577136D1*
X2877315D1*
X2883085Y3580055D1*
X2888788Y3585758D1*
X2907316Y3600084D2*
X2941737D1*
Y3605854D1*
X2938886Y3611625D1*
X2936034Y3614476D1*
X2930263Y3617328D1*
X2921641D1*
X2915938Y3614476D1*
X2910167Y3608706D1*
X2907316Y3600084D1*
Y3594380D1*
X2910167Y3585758D1*
X2915938Y3580055D1*
X2921641Y3577136D1*
X2930263D1*
X2936034Y3580055D1*
X2941737Y3585758D1*
X3041534Y3637424D2*
X3035830D1*
X3030060Y3634572D1*
X3027208Y3625950D1*
Y3577136D1*
X3018586Y3617328D2*
X3038682D1*
X3094483D2*
Y3577136D1*
Y3608706D2*
X3088779Y3614476D1*
X3083009Y3617328D1*
X3074453D1*
X3068683Y3614476D1*
X3062979Y3608706D1*
X3060061Y3600084D1*
Y3594380D1*
X3062979Y3585758D1*
X3068683Y3580055D1*
X3074453Y3577136D1*
X3083009D1*
X3088779Y3580055D1*
X3094483Y3585758D1*
X3147498Y3608706D2*
X3141728Y3614476D1*
X3135958Y3617328D1*
X3127402D1*
X3121632Y3614476D1*
X3115928Y3608706D1*
X3113010Y3600084D1*
Y3594380D1*
X3115928Y3585758D1*
X3121632Y3580055D1*
X3127402Y3577136D1*
X3135958D1*
X3141728Y3580055D1*
X3147498Y3585758D1*
X3166025Y3637424D2*
X3168877Y3634572D1*
X3171795Y3637424D1*
X3168877Y3640343D1*
X3166025Y3637424D1*
X3168877Y3617328D2*
Y3577136D1*
X3190322Y3617328D2*
Y3577136D1*
Y3605854D2*
X3198944Y3614476D1*
X3204714Y3617328D1*
X3213270D1*
X3219040Y3614476D1*
X3221892Y3605854D1*
Y3577136D1*
X3274841Y3614476D2*
Y3568514D1*
X3271989Y3559959D1*
X3269137Y3557040D1*
X3263367Y3554188D1*
X3254745D1*
X3249041Y3557040D1*
X3274841Y3605854D2*
X3269137Y3611558D1*
X3263367Y3614476D1*
X3254745D1*
X3249041Y3611558D1*
X3243271Y3605854D1*
X3240419Y3597232D1*
Y3591462D1*
X3243271Y3582907D1*
X3249041Y3577136D1*
X3254745Y3574284D1*
X3263367D1*
X3269137Y3577136D1*
X3274841Y3582907D1*
X1345241Y3528187D2*
Y3479373D1*
X1348093Y3470818D1*
X1353863Y3467899D1*
X1359567D1*
X1336619Y3508091D2*
X1356715D1*
X1392420D2*
X1386716Y3505239D1*
X1380946Y3499469D1*
X1378094Y3490847D1*
Y3485143D1*
X1380946Y3476521D1*
X1386716Y3470818D1*
X1392420Y3467899D1*
X1401042D1*
X1406812Y3470818D1*
X1412516Y3476521D1*
X1415434Y3485143D1*
Y3490847D1*
X1412516Y3499469D1*
X1406812Y3505239D1*
X1401042Y3508091D1*
X1392420D1*
X1433961D2*
X1445435Y3467899D1*
X1456909Y3508091D1*
X1468383Y3467899D1*
X1479857Y3508091D1*
X1532806D2*
Y3467899D1*
Y3499469D2*
X1527102Y3505239D1*
X1521332Y3508091D1*
X1512776D1*
X1507006Y3505239D1*
X1501303Y3499469D1*
X1498384Y3490847D1*
Y3485143D1*
X1501303Y3476521D1*
X1507006Y3470818D1*
X1512776Y3467899D1*
X1521332D1*
X1527102Y3470818D1*
X1532806Y3476521D1*
X1551333Y3508091D2*
Y3467899D1*
Y3490847D2*
X1554251Y3499469D1*
X1559955Y3505239D1*
X1565725Y3508091D1*
X1574347D1*
X1627296Y3528187D2*
Y3467899D1*
Y3499469D2*
X1621593Y3505239D1*
X1615822Y3508091D1*
X1607200D1*
X1601497Y3505239D1*
X1595726Y3499469D1*
X1592875Y3490847D1*
Y3485143D1*
X1595726Y3476521D1*
X1601497Y3470818D1*
X1607200Y3467899D1*
X1615822D1*
X1621593Y3470818D1*
X1627296Y3476521D1*
X1727093Y3528187D2*
X1721389D1*
X1715619Y3525335D1*
X1712767Y3516713D1*
Y3467899D1*
X1704145Y3508091D2*
X1724241D1*
X1745620D2*
Y3467899D1*
Y3490847D2*
X1748538Y3499469D1*
X1754242Y3505239D1*
X1760012Y3508091D1*
X1768634D1*
X1801487D2*
X1795783Y3505239D1*
X1790013Y3499469D1*
X1787161Y3490847D1*
Y3485143D1*
X1790013Y3476521D1*
X1795783Y3470818D1*
X1801487Y3467899D1*
X1810109D1*
X1815879Y3470818D1*
X1821583Y3476521D1*
X1824501Y3485143D1*
Y3490847D1*
X1821583Y3499469D1*
X1815879Y3505239D1*
X1810109Y3508091D1*
X1801487D1*
X1843028D2*
Y3467899D1*
Y3496617D2*
X1851650Y3505239D1*
X1857420Y3508091D1*
X1865976D1*
X1871746Y3505239D1*
X1874598Y3496617D1*
Y3467899D1*
X1901747Y3528187D2*
Y3479373D1*
X1904599Y3470818D1*
X1910369Y3467899D1*
X1916073D1*
X1893125Y3508091D2*
X1913221D1*
X2007247D2*
X2001543Y3505239D1*
X1995773Y3499469D1*
X1992921Y3490847D1*
Y3485143D1*
X1995773Y3476521D1*
X2001543Y3470818D1*
X2007247Y3467899D1*
X2015869D1*
X2021640Y3470818D1*
X2027343Y3476521D1*
X2030262Y3485143D1*
Y3490847D1*
X2027343Y3499469D1*
X2021640Y3505239D1*
X2015869Y3508091D1*
X2007247D1*
X2071737Y3528187D2*
X2066033D1*
X2060263Y3525335D1*
X2057411Y3516713D1*
Y3467899D1*
X2048789Y3508091D2*
X2068885D1*
X2157207Y3528187D2*
Y3479373D1*
X2160059Y3470818D1*
X2165829Y3467899D1*
X2171533D1*
X2148585Y3508091D2*
X2168681D1*
X2190060Y3528187D2*
Y3467899D1*
Y3496617D2*
X2198682Y3505239D1*
X2204452Y3508091D1*
X2213074D1*
X2218778Y3505239D1*
X2221630Y3496617D1*
Y3467899D1*
X2240157Y3490847D2*
X2274579D1*
Y3496617D1*
X2271727Y3502388D1*
X2268875Y3505239D1*
X2263105Y3508091D1*
X2254483D1*
X2248779Y3505239D1*
X2243009Y3499469D1*
X2240157Y3490847D1*
Y3485143D1*
X2243009Y3476521D1*
X2248779Y3470818D1*
X2254483Y3467899D1*
X2263105D1*
X2268875Y3470818D1*
X2274579Y3476521D1*
X2385915Y3499469D2*
X2380145Y3505239D1*
X2374375Y3508091D1*
X2365819D1*
X2360049Y3505239D1*
X2354345Y3499469D1*
X2351427Y3490847D1*
Y3485143D1*
X2354345Y3476521D1*
X2360049Y3470818D1*
X2365819Y3467899D1*
X2374375D1*
X2380145Y3470818D1*
X2385915Y3476521D1*
X2418768Y3508091D2*
X2413064Y3505239D1*
X2407294Y3499469D1*
X2404442Y3490847D1*
Y3485143D1*
X2407294Y3476521D1*
X2413064Y3470818D1*
X2418768Y3467899D1*
X2427390D1*
X2433160Y3470818D1*
X2438864Y3476521D1*
X2441782Y3485143D1*
Y3490847D1*
X2438864Y3499469D1*
X2433160Y3505239D1*
X2427390Y3508091D1*
X2418768D1*
X2460309D2*
Y3467899D1*
Y3496617D2*
X2468932Y3505239D1*
X2474702Y3508091D1*
X2483257D1*
X2489028Y3505239D1*
X2491879Y3496617D1*
Y3467899D1*
Y3496617D2*
X2500501Y3505239D1*
X2506272Y3508091D1*
X2514827D1*
X2520597Y3505239D1*
X2523516Y3496617D1*
Y3467899D1*
X2542043Y3508091D2*
Y3447803D1*
Y3499469D2*
X2547813Y3505173D1*
X2553517Y3508091D1*
X2562139D1*
X2567909Y3505173D1*
X2573613Y3499469D1*
X2576531Y3490847D1*
Y3485077D1*
X2573613Y3476521D1*
X2567909Y3470751D1*
X2562139Y3467899D1*
X2553517D1*
X2547813Y3470751D1*
X2542043Y3476521D1*
X2595058Y3508091D2*
Y3479373D1*
X2597910Y3470818D1*
X2603680Y3467899D1*
X2612302D1*
X2618006Y3470818D1*
X2626628Y3479373D1*
Y3508091D2*
Y3467899D1*
X2653777Y3528187D2*
Y3479373D1*
X2656629Y3470818D1*
X2662399Y3467899D1*
X2668103D1*
X2645155Y3508091D2*
X2665251D1*
X2686630Y3490847D2*
X2721052D1*
Y3496617D1*
X2718200Y3502388D1*
X2715348Y3505239D1*
X2709578Y3508091D1*
X2700956D1*
X2695252Y3505239D1*
X2689482Y3499469D1*
X2686630Y3490847D1*
Y3485143D1*
X2689482Y3476521D1*
X2695252Y3470818D1*
X2700956Y3467899D1*
X2709578D1*
X2715348Y3470818D1*
X2721052Y3476521D1*
X2739579Y3508091D2*
Y3467899D1*
Y3490847D2*
X2742497Y3499469D1*
X2748201Y3505239D1*
X2753971Y3508091D1*
X2762593D1*
X1323332Y1253254D2*
Y1213062D1*
Y1236009D2*
X1326250Y1244632D1*
X1331954Y1250402D1*
X1337724Y1253254D1*
X1346346D1*
X1364873Y1273350D2*
X1367725Y1270498D1*
X1370643Y1273350D1*
X1367725Y1276268D1*
X1364873Y1273350D1*
X1367725Y1253254D2*
Y1213062D1*
X1423592Y1250402D2*
Y1204440D1*
X1420740Y1195884D1*
X1417888Y1192966D1*
X1412118Y1190114D1*
X1403496D1*
X1397792Y1192966D1*
X1423592Y1241780D2*
X1417888Y1247483D1*
X1412118Y1250402D1*
X1403496D1*
X1397792Y1247483D1*
X1392022Y1241780D1*
X1389170Y1233158D1*
Y1227387D1*
X1392022Y1218832D1*
X1397792Y1213062D1*
X1403496Y1210210D1*
X1412118D1*
X1417888Y1213062D1*
X1423592Y1218832D1*
X1442119Y1273350D2*
Y1213062D1*
Y1241780D2*
X1450741Y1250402D1*
X1456511Y1253254D1*
X1465134D1*
X1470837Y1250402D1*
X1473689Y1241780D1*
Y1213062D1*
X1500838Y1273350D2*
Y1224536D1*
X1503690Y1215980D1*
X1509460Y1213062D1*
X1515164D1*
X1492216Y1253254D2*
X1512312D1*
X1626434D2*
Y1213062D1*
Y1244632D2*
X1620731Y1250402D1*
X1614960Y1253254D1*
X1606405D1*
X1600635Y1250402D1*
X1594931Y1244632D1*
X1592013Y1236009D1*
Y1230306D1*
X1594931Y1221684D1*
X1600635Y1215980D1*
X1606405Y1213062D1*
X1614960D1*
X1620731Y1215980D1*
X1626434Y1221684D1*
X1644961Y1253254D2*
Y1213062D1*
Y1241780D2*
X1653584Y1250402D1*
X1659354Y1253254D1*
X1667909D1*
X1673680Y1250402D1*
X1676531Y1241780D1*
Y1213062D1*
X1729480Y1250402D2*
Y1204440D1*
X1726628Y1195884D1*
X1723777Y1192966D1*
X1718006Y1190114D1*
X1709384D1*
X1703681Y1192966D1*
X1729480Y1241780D2*
X1723777Y1247483D1*
X1718006Y1250402D1*
X1709384D1*
X1703681Y1247483D1*
X1697910Y1241780D1*
X1695059Y1233158D1*
Y1227387D1*
X1697910Y1218832D1*
X1703681Y1213062D1*
X1709384Y1210210D1*
X1718006D1*
X1723777Y1213062D1*
X1729480Y1218832D1*
X1748007Y1273350D2*
Y1213062D1*
X1766535Y1236009D2*
X1800956D1*
Y1241780D1*
X1798105Y1247550D1*
X1795253Y1250402D1*
X1789483Y1253254D1*
X1780860D1*
X1775157Y1250402D1*
X1769387Y1244632D1*
X1766535Y1236009D1*
Y1230306D1*
X1769387Y1221684D1*
X1775157Y1215980D1*
X1780860Y1213062D1*
X1789483D1*
X1795253Y1215980D1*
X1800956Y1221684D1*
X1877805Y1273350D2*
Y1213062D1*
X1936524Y1264728D2*
X1930820Y1270498D1*
X1922198Y1273350D1*
X1910724D1*
X1902102Y1270498D1*
X1896332Y1264728D1*
Y1259024D1*
X1899250Y1253254D1*
X1902102Y1250402D1*
X1907806Y1247550D1*
X1925050Y1241780D1*
X1930820Y1238928D1*
X1933672Y1236009D1*
X1936524Y1230306D1*
Y1221684D1*
X1930820Y1215980D1*
X1922198Y1213062D1*
X1910724D1*
X1902102Y1215980D1*
X1896332Y1221684D1*
X2001013Y1213062D2*
X1977999Y1273350D1*
X1955051Y1213062D1*
X1963673Y1233158D2*
X1992391D1*
X2109431Y1244632D2*
X2106579Y1250402D1*
X2097957Y1253254D1*
X2089335D1*
X2080713Y1250402D1*
X2077861Y1244632D1*
X2080713Y1238928D1*
X2086483Y1236009D1*
X2100809Y1233158D1*
X2106579Y1230306D1*
X2109431Y1224536D1*
Y1221684D1*
X2106579Y1215980D1*
X2097957Y1213062D1*
X2089335D1*
X2080713Y1215980D1*
X2077861Y1221684D1*
X2127958Y1273350D2*
Y1213062D1*
X2160811Y1253254D2*
X2155108Y1250402D1*
X2149337Y1244632D1*
X2146485Y1236009D1*
Y1230306D1*
X2149337Y1221684D1*
X2155108Y1215980D1*
X2160811Y1213062D1*
X2169433D1*
X2175204Y1215980D1*
X2180907Y1221684D1*
X2183826Y1230306D1*
Y1236009D1*
X2180907Y1244632D1*
X2175204Y1250402D1*
X2169433Y1253254D1*
X2160811D1*
X2210975Y1273350D2*
Y1224536D1*
X2213827Y1215980D1*
X2219597Y1213062D1*
X2225301D1*
X2202353Y1253254D2*
X2222449D1*
X2316475D2*
X2310771Y1250402D1*
X2305001Y1244632D1*
X2302149Y1236009D1*
Y1230306D1*
X2305001Y1221684D1*
X2310771Y1215980D1*
X2316475Y1213062D1*
X2325097D1*
X2330867Y1215980D1*
X2336571Y1221684D1*
X2339489Y1230306D1*
Y1236009D1*
X2336571Y1244632D1*
X2330867Y1250402D1*
X2325097Y1253254D1*
X2316475D1*
X2358016D2*
Y1213062D1*
Y1241780D2*
X2366638Y1250402D1*
X2372408Y1253254D1*
X2380964D1*
X2386734Y1250402D1*
X2389586Y1241780D1*
Y1213062D1*
X2475056Y1273350D2*
Y1224536D1*
X2477908Y1215980D1*
X2483678Y1213062D1*
X2489382D1*
X2466434Y1253254D2*
X2486530D1*
X2507909Y1273350D2*
Y1213062D1*
Y1241780D2*
X2516531Y1250402D1*
X2522301Y1253254D1*
X2530923D1*
X2536627Y1250402D1*
X2539479Y1241780D1*
Y1213062D1*
X2558006Y1273350D2*
X2560858Y1270498D1*
X2563776Y1273350D1*
X2560858Y1276268D1*
X2558006Y1273350D1*
X2560858Y1253254D2*
Y1213062D1*
X2613873Y1244632D2*
X2611022Y1250402D1*
X2602400Y1253254D1*
X2593777D1*
X2585155Y1250402D1*
X2582304Y1244632D1*
X2585155Y1238928D1*
X2590926Y1236009D1*
X2605251Y1233158D1*
X2611022Y1230306D1*
X2613873Y1224536D1*
Y1221684D1*
X2611022Y1215980D1*
X2602400Y1213062D1*
X2593777D1*
X2585155Y1215980D1*
X2582304Y1221684D1*
X2722292Y1244632D2*
X2719440Y1250402D1*
X2710818Y1253254D1*
X2702196D1*
X2693574Y1250402D1*
X2690722Y1244632D1*
X2693574Y1238928D1*
X2699344Y1236009D1*
X2713670Y1233158D1*
X2719440Y1230306D1*
X2722292Y1224536D1*
Y1221684D1*
X2719440Y1215980D1*
X2710818Y1213062D1*
X2702196D1*
X2693574Y1215980D1*
X2690722Y1221684D1*
X2740819Y1273350D2*
X2743671Y1270498D1*
X2746589Y1273350D1*
X2743671Y1276268D1*
X2740819Y1273350D1*
X2743671Y1253254D2*
Y1213062D1*
X2799538Y1273350D2*
Y1213062D1*
Y1244632D2*
X2793834Y1250402D1*
X2788064Y1253254D1*
X2779442D1*
X2773738Y1250402D1*
X2767968Y1244632D1*
X2765116Y1236009D1*
Y1230306D1*
X2767968Y1221684D1*
X2773738Y1215980D1*
X2779442Y1213062D1*
X2788064D1*
X2793834Y1215980D1*
X2799538Y1221684D1*
X2818065Y1236009D2*
X2852487D1*
Y1241780D1*
X2849635Y1247550D1*
X2846783Y1250402D1*
X2841013Y1253254D1*
X2832391D1*
X2826687Y1250402D1*
X2820917Y1244632D1*
X2818065Y1236009D1*
Y1230306D1*
X2820917Y1221684D1*
X2826687Y1215980D1*
X2832391Y1213062D1*
X2841013D1*
X2846783Y1215980D1*
X2852487Y1221684D1*
X2952283Y1273350D2*
X2946579D1*
X2940809Y1270498D1*
X2937957Y1261876D1*
Y1213062D1*
X2929335Y1253254D2*
X2949431D1*
X3005232D2*
Y1213062D1*
Y1244632D2*
X2999528Y1250402D1*
X2993758Y1253254D1*
X2985202D1*
X2979432Y1250402D1*
X2973728Y1244632D1*
X2970810Y1236009D1*
Y1230306D1*
X2973728Y1221684D1*
X2979432Y1215980D1*
X2985202Y1213062D1*
X2993758D1*
X2999528Y1215980D1*
X3005232Y1221684D1*
X3058247Y1244632D2*
X3052477Y1250402D1*
X3046707Y1253254D1*
X3038151D1*
X3032381Y1250402D1*
X3026677Y1244632D1*
X3023759Y1236009D1*
Y1230306D1*
X3026677Y1221684D1*
X3032381Y1215980D1*
X3038151Y1213062D1*
X3046707D1*
X3052477Y1215980D1*
X3058247Y1221684D1*
X3076774Y1273350D2*
X3079626Y1270498D1*
X3082544Y1273350D1*
X3079626Y1276268D1*
X3076774Y1273350D1*
X3079626Y1253254D2*
Y1213062D1*
X3101072Y1253254D2*
Y1213062D1*
Y1241780D2*
X3109694Y1250402D1*
X3115464Y1253254D1*
X3124020D1*
X3129790Y1250402D1*
X3132642Y1241780D1*
Y1213062D1*
X3185591Y1250402D2*
Y1204440D1*
X3182739Y1195884D1*
X3179887Y1192966D1*
X3174117Y1190114D1*
X3165495D1*
X3159791Y1192966D1*
X3185591Y1241780D2*
X3179887Y1247483D1*
X3174117Y1250402D1*
X3165495D1*
X3159791Y1247483D1*
X3154021Y1241780D1*
X3151169Y1233158D1*
Y1227387D1*
X3154021Y1218832D1*
X3159791Y1213062D1*
X3165495Y1210210D1*
X3174117D1*
X3179887Y1213062D1*
X3185591Y1218832D1*
X1331954Y1164113D2*
Y1115299D1*
X1334806Y1106743D1*
X1340576Y1103825D1*
X1346280D1*
X1323332Y1144017D2*
X1343428D1*
X1379133D2*
X1373429Y1141165D1*
X1367659Y1135395D1*
X1364807Y1126773D1*
Y1121069D1*
X1367659Y1112447D1*
X1373429Y1106743D1*
X1379133Y1103825D1*
X1387755D1*
X1393525Y1106743D1*
X1399229Y1112447D1*
X1402147Y1121069D1*
Y1126773D1*
X1399229Y1135395D1*
X1393525Y1141165D1*
X1387755Y1144017D1*
X1379133D1*
X1420674D2*
X1432148Y1103825D1*
X1443622Y1144017D1*
X1455096Y1103825D1*
X1466570Y1144017D1*
X1519519D2*
Y1103825D1*
Y1135395D2*
X1513815Y1141165D1*
X1508045Y1144017D1*
X1499489D1*
X1493719Y1141165D1*
X1488015Y1135395D1*
X1485097Y1126773D1*
Y1121069D1*
X1488015Y1112447D1*
X1493719Y1106743D1*
X1499489Y1103825D1*
X1508045D1*
X1513815Y1106743D1*
X1519519Y1112447D1*
X1538046Y1144017D2*
Y1103825D1*
Y1126773D2*
X1540964Y1135395D1*
X1546668Y1141165D1*
X1552438Y1144017D1*
X1561060D1*
X1614009Y1164113D2*
Y1103825D1*
Y1135395D2*
X1608305Y1141165D1*
X1602535Y1144017D1*
X1593913D1*
X1588209Y1141165D1*
X1582439Y1135395D1*
X1579587Y1126773D1*
Y1121069D1*
X1582439Y1112447D1*
X1588209Y1106743D1*
X1593913Y1103825D1*
X1602535D1*
X1608305Y1106743D1*
X1614009Y1112447D1*
X1690857Y1144017D2*
Y1103825D1*
Y1126773D2*
X1693776Y1135395D1*
X1699479Y1141165D1*
X1705249Y1144017D1*
X1713872D1*
X1732399Y1126773D2*
X1766820D1*
Y1132543D1*
X1763969Y1138313D1*
X1761117Y1141165D1*
X1755347Y1144017D1*
X1746724D1*
X1741021Y1141165D1*
X1735251Y1135395D1*
X1732399Y1126773D1*
Y1121069D1*
X1735251Y1112447D1*
X1741021Y1106743D1*
X1746724Y1103825D1*
X1755347D1*
X1761117Y1106743D1*
X1766820Y1112447D1*
X1819769Y1144017D2*
Y1103825D1*
Y1135395D2*
X1814066Y1141165D1*
X1808296Y1144017D1*
X1799740D1*
X1793970Y1141165D1*
X1788266Y1135395D1*
X1785348Y1126773D1*
Y1121069D1*
X1788266Y1112447D1*
X1793970Y1106743D1*
X1799740Y1103825D1*
X1808296D1*
X1814066Y1106743D1*
X1819769Y1112447D1*
X1838297Y1144017D2*
Y1103825D1*
Y1126773D2*
X1841215Y1135395D1*
X1846919Y1141165D1*
X1852689Y1144017D1*
X1861311D1*
X1952485D2*
X1946781Y1141165D1*
X1941011Y1135395D1*
X1938159Y1126773D1*
Y1121069D1*
X1941011Y1112447D1*
X1946781Y1106743D1*
X1952485Y1103825D1*
X1961107D1*
X1966877Y1106743D1*
X1972581Y1112447D1*
X1975499Y1121069D1*
Y1126773D1*
X1972581Y1135395D1*
X1966877Y1141165D1*
X1961107Y1144017D1*
X1952485D1*
X2016974Y1164113D2*
X2011270D1*
X2005500Y1161261D1*
X2002648Y1152639D1*
Y1103825D1*
X1994026Y1144017D2*
X2014122D1*
X2102444Y1164113D2*
Y1115299D1*
X2105296Y1106743D1*
X2111066Y1103825D1*
X2116770D1*
X2093822Y1144017D2*
X2113918D1*
X2135297Y1164113D2*
Y1103825D1*
Y1132543D2*
X2143919Y1141165D1*
X2149690Y1144017D1*
X2158312D1*
X2164015Y1141165D1*
X2166867Y1132543D1*
Y1103825D1*
X2185394Y1126773D2*
X2219816D1*
Y1132543D1*
X2216964Y1138313D1*
X2214113Y1141165D1*
X2208342Y1144017D1*
X2199720D1*
X2194017Y1141165D1*
X2188246Y1135395D1*
X2185394Y1126773D1*
Y1121069D1*
X2188246Y1112447D1*
X2194017Y1106743D1*
X2199720Y1103825D1*
X2208342D1*
X2214113Y1106743D1*
X2219816Y1112447D1*
X2331153Y1135395D2*
X2325383Y1141165D1*
X2319612Y1144017D1*
X2311057D1*
X2305287Y1141165D1*
X2299583Y1135395D1*
X2296665Y1126773D1*
Y1121069D1*
X2299583Y1112447D1*
X2305287Y1106743D1*
X2311057Y1103825D1*
X2319612D1*
X2325383Y1106743D1*
X2331153Y1112447D1*
X2364006Y1144017D2*
X2358302Y1141165D1*
X2352532Y1135395D1*
X2349680Y1126773D1*
Y1121069D1*
X2352532Y1112447D1*
X2358302Y1106743D1*
X2364006Y1103825D1*
X2372628D1*
X2378398Y1106743D1*
X2384102Y1112447D1*
X2387020Y1121069D1*
Y1126773D1*
X2384102Y1135395D1*
X2378398Y1141165D1*
X2372628Y1144017D1*
X2364006D1*
X2405547D2*
Y1103825D1*
Y1132543D2*
X2414169Y1141165D1*
X2419939Y1144017D1*
X2428495D1*
X2434265Y1141165D1*
X2437117Y1132543D1*
Y1103825D1*
Y1132543D2*
X2445739Y1141165D1*
X2451509Y1144017D1*
X2460065D1*
X2465835Y1141165D1*
X2468753Y1132543D1*
Y1103825D1*
X2487280Y1144017D2*
Y1083729D1*
Y1135395D2*
X2493051Y1141098D1*
X2498754Y1144017D1*
X2507376D1*
X2513147Y1141098D1*
X2518850Y1135395D1*
X2521769Y1126773D1*
Y1121002D1*
X2518850Y1112447D1*
X2513147Y1106676D1*
X2507376Y1103825D1*
X2498754D1*
X2493051Y1106676D1*
X2487280Y1112447D1*
X2540296Y1144017D2*
Y1115299D1*
X2543148Y1106743D1*
X2548918Y1103825D1*
X2557540D1*
X2563244Y1106743D1*
X2571866Y1115299D1*
Y1144017D2*
Y1103825D1*
X2599015Y1164113D2*
Y1115299D1*
X2601867Y1106743D1*
X2607637Y1103825D1*
X2613341D1*
X2590393Y1144017D2*
X2610489D1*
X2631868Y1126773D2*
X2666290D1*
Y1132543D1*
X2663438Y1138313D1*
X2660586Y1141165D1*
X2654816Y1144017D1*
X2646194D1*
X2640490Y1141165D1*
X2634720Y1135395D1*
X2631868Y1126773D1*
Y1121069D1*
X2634720Y1112447D1*
X2640490Y1106743D1*
X2646194Y1103825D1*
X2654816D1*
X2660586Y1106743D1*
X2666290Y1112447D1*
X2684817Y1144017D2*
Y1103825D1*
Y1126773D2*
X2687735Y1135395D1*
X2693439Y1141165D1*
X2699209Y1144017D1*
X2707831D1*
X1365523Y2821803D2*
D56*
X1327166Y2922283D1*
X1288920Y2821803D1*
X1303290Y2855296D2*
X1351153D1*
X1410772Y2922283D2*
Y2840926D1*
X1415525Y2826666D1*
X1425142Y2821803D1*
X1434648D1*
X1396402Y2888789D2*
X1429895D1*
X1522896D2*
Y2821803D1*
Y2874419D2*
X1513390Y2884036D1*
X1503773Y2888789D1*
X1489514D1*
X1479897Y2884036D1*
X1470390Y2874419D1*
X1465527Y2860049D1*
Y2850543D1*
X1470390Y2836173D1*
X1479897Y2826666D1*
X1489514Y2821803D1*
X1503773D1*
X1513390Y2826666D1*
X1522896Y2836173D1*
X1553775Y2888789D2*
Y2821803D1*
Y2860049D2*
X1558639Y2874419D1*
X1568145Y2884036D1*
X1577762Y2888789D1*
X1592132D1*
X1623011Y2922283D2*
X1627764Y2917529D1*
X1632627Y2922283D1*
X1627764Y2927146D1*
X1623011Y2922283D1*
X1627764Y2888789D2*
Y2821803D1*
X1760708Y2869666D2*
X1803818D1*
X1818078Y2874419D1*
X1822941Y2879283D1*
X1827695Y2888789D1*
Y2903159D1*
X1822941Y2912666D1*
X1818078Y2917529D1*
X1803818Y2922283D1*
X1760708D1*
Y2821803D1*
X1930313Y2898406D2*
X1925560Y2907913D1*
X1915943Y2917529D1*
X1906436Y2922283D1*
X1887313D1*
X1877696Y2917529D1*
X1868190Y2907913D1*
X1863326Y2898406D1*
X1858573Y2884036D1*
Y2860049D1*
X1863326Y2845790D1*
X1868190Y2836173D1*
X1877696Y2826666D1*
X1887313Y2821803D1*
X1906436D1*
X1915943Y2826666D1*
X1925560Y2836173D1*
X1930313Y2845790D1*
X1961191Y2903049D2*
X1970808Y2907913D1*
X1985178Y2922172D1*
Y2821803D1*
X2170629Y2922283D2*
Y2821803D1*
Y2874419D2*
X2161122Y2884036D1*
X2151505Y2888789D1*
X2137135D1*
X2127629Y2884036D1*
X2118012Y2874419D1*
X2113259Y2860049D1*
Y2850543D1*
X2118012Y2836173D1*
X2127629Y2826666D1*
X2137135Y2821803D1*
X2151505D1*
X2161122Y2826666D1*
X2170629Y2836173D1*
X2201507Y2888789D2*
Y2840926D1*
X2206260Y2826666D1*
X2215877Y2821803D1*
X2230247D1*
X2239754Y2826666D1*
X2254124Y2840926D1*
Y2888789D2*
Y2821803D1*
X2342372Y2888789D2*
Y2821803D1*
Y2874419D2*
X2332866Y2884036D1*
X2323249Y2888789D1*
X2308989D1*
X2299372Y2884036D1*
X2289866Y2874419D1*
X2285002Y2860049D1*
Y2850543D1*
X2289866Y2836173D1*
X2299372Y2826666D1*
X2308989Y2821803D1*
X2323249D1*
X2332866Y2826666D1*
X2342372Y2836173D1*
X2373250Y2922283D2*
Y2821803D1*
X2501331Y2922283D2*
Y2821803D1*
X2599196Y2907913D2*
X2589690Y2917529D1*
X2575320Y2922283D1*
X2556196D1*
X2541826Y2917529D1*
X2532209Y2907913D1*
Y2898406D1*
X2537073Y2888789D1*
X2541826Y2884036D1*
X2551333Y2879283D1*
X2580073Y2869666D1*
X2589690Y2864913D1*
X2594443Y2860049D1*
X2599196Y2850543D1*
Y2836173D1*
X2589690Y2826666D1*
X2575320Y2821803D1*
X2556196D1*
X2541826Y2826666D1*
X2532209Y2836173D1*
X2706678Y2821803D2*
X2668321Y2922283D1*
X2630074Y2821803D1*
X2644445Y2855296D2*
X2692308D1*
X2892128Y2888789D2*
Y2821803D1*
Y2874419D2*
X2882622Y2884036D1*
X2873005Y2888789D1*
X2858745D1*
X2849129Y2884036D1*
X2839622Y2874419D1*
X2834758Y2860049D1*
Y2850543D1*
X2839622Y2836173D1*
X2849129Y2826666D1*
X2858745Y2821803D1*
X2873005D1*
X2882622Y2826666D1*
X2892128Y2836173D1*
X2980377Y2922283D2*
Y2821803D1*
Y2874419D2*
X2970870Y2884036D1*
X2961253Y2888789D1*
X2946883D1*
X2937377Y2884036D1*
X2927760Y2874419D1*
X2923007Y2860049D1*
Y2850543D1*
X2927760Y2836173D1*
X2937377Y2826666D1*
X2946883Y2821803D1*
X2961253D1*
X2970870Y2826666D1*
X2980377Y2836173D1*
X3068625Y2888789D2*
Y2821803D1*
Y2874419D2*
X3059118Y2884036D1*
X3049502Y2888789D1*
X3035242D1*
X3025625Y2884036D1*
X3016119Y2874419D1*
X3011255Y2860049D1*
Y2850543D1*
X3016119Y2836173D1*
X3025625Y2826666D1*
X3035242Y2821803D1*
X3049502D1*
X3059118Y2826666D1*
X3068625Y2836173D1*
X3099503Y2888789D2*
Y2788309D1*
Y2874419D2*
X3109120Y2883926D1*
X3118627Y2888789D1*
X3132997D1*
X3142614Y2883926D1*
X3152120Y2874419D1*
X3156984Y2860049D1*
Y2850432D1*
X3152120Y2836173D1*
X3142614Y2826556D1*
X3132997Y2821803D1*
X3118627D1*
X3109120Y2826556D1*
X3099503Y2836173D1*
X3202232Y2922283D2*
Y2840926D1*
X3206985Y2826666D1*
X3216602Y2821803D1*
X3226109D1*
X3187862Y2888789D2*
X3221355D1*
X3256987Y2860049D2*
X3314357D1*
Y2869666D1*
X3309604Y2879283D1*
X3304851Y2884036D1*
X3295234Y2888789D1*
X3280864D1*
X3271357Y2884036D1*
X3261740Y2874419D1*
X3256987Y2860049D1*
Y2850543D1*
X3261740Y2836173D1*
X3271357Y2826666D1*
X3280864Y2821803D1*
X3295234D1*
X3304851Y2826666D1*
X3314357Y2836173D1*
X3345235Y2888789D2*
Y2821803D1*
Y2860049D2*
X3350099Y2874419D1*
X3359605Y2884036D1*
X3369222Y2888789D1*
X3383592D1*
X1288920Y2740221D2*
Y2639741D1*
X1377168Y2706728D2*
Y2639741D1*
Y2692358D2*
X1367662Y2701974D1*
X1358045Y2706728D1*
X1343785D1*
X1334168Y2701974D1*
X1324662Y2692358D1*
X1319798Y2677988D1*
Y2668481D1*
X1324662Y2654111D1*
X1334168Y2644605D1*
X1343785Y2639741D1*
X1358045D1*
X1367662Y2644605D1*
X1377168Y2654111D1*
X1412910Y2706728D2*
X1441540Y2639741D1*
X1432033Y2620618D1*
X1422416Y2611001D1*
X1412910Y2606248D1*
X1408046D1*
X1470280Y2706728D2*
X1441540Y2639741D1*
X1525035Y2706728D2*
X1515528Y2701974D1*
X1505912Y2692358D1*
X1501158Y2677988D1*
Y2668481D1*
X1505912Y2654111D1*
X1515528Y2644605D1*
X1525035Y2639741D1*
X1539405D1*
X1549022Y2644605D1*
X1558528Y2654111D1*
X1563392Y2668481D1*
Y2677988D1*
X1558528Y2692358D1*
X1549022Y2701974D1*
X1539405Y2706728D1*
X1525035D1*
X1594270D2*
Y2658864D1*
X1599024Y2644605D1*
X1608640Y2639741D1*
X1623011D1*
X1632517Y2644605D1*
X1646887Y2658864D1*
Y2706728D2*
Y2639741D1*
X1692136Y2740221D2*
Y2658864D1*
X1696889Y2644605D1*
X1706506Y2639741D1*
X1716012D1*
X1677765Y2706728D2*
X1711259D1*
X1844092Y2740221D2*
Y2639741D1*
Y2692358D2*
X1853709Y2701974D1*
X1863216Y2706728D1*
X1877586D1*
X1887092Y2701974D1*
X1896709Y2692358D1*
X1901462Y2677988D1*
Y2668481D1*
X1896709Y2654111D1*
X1887092Y2644605D1*
X1877586Y2639741D1*
X1863216D1*
X1853709Y2644605D1*
X1844092Y2654111D1*
X1937204Y2706728D2*
X1965834Y2639741D1*
X1956328Y2620618D1*
X1946711Y2611001D1*
X1937204Y2606248D1*
X1932341D1*
X1994574Y2706728D2*
X1965834Y2639741D1*
X2194394Y2716345D2*
X2189641Y2725851D1*
X2180024Y2735468D1*
X2170518Y2740221D1*
X2151395D1*
X2141778Y2735468D1*
X2132271Y2725851D1*
X2127408Y2716345D1*
X2122655Y2701974D1*
Y2677988D1*
X2127408Y2663728D1*
X2132271Y2654111D1*
X2141778Y2644605D1*
X2151395Y2639741D1*
X2170518D1*
X2180024Y2644605D1*
X2189641Y2654111D1*
X2194394Y2663728D1*
Y2677988D1*
X2170518D1*
X2225273Y2706728D2*
Y2639741D1*
Y2677988D2*
X2230137Y2692358D1*
X2239643Y2701974D1*
X2249260Y2706728D1*
X2263630D1*
X2351878D2*
Y2639741D1*
Y2692358D2*
X2342372Y2701974D1*
X2332755Y2706728D1*
X2318495D1*
X2308879Y2701974D1*
X2299372Y2692358D1*
X2294508Y2677988D1*
Y2668481D1*
X2299372Y2654111D1*
X2308879Y2644605D1*
X2318495Y2639741D1*
X2332755D1*
X2342372Y2644605D1*
X2351878Y2654111D1*
X2382757Y2740221D2*
Y2639741D1*
Y2687604D2*
X2397127Y2701974D1*
X2406744Y2706728D1*
X2421114D1*
X2430620Y2701974D1*
X2435373Y2687604D1*
Y2639741D1*
X2523622Y2706728D2*
Y2639741D1*
Y2692358D2*
X2514115Y2701974D1*
X2504498Y2706728D1*
X2490239D1*
X2480622Y2701974D1*
X2471116Y2692358D1*
X2466252Y2677988D1*
Y2668481D1*
X2471116Y2654111D1*
X2480622Y2644605D1*
X2490239Y2639741D1*
X2504498D1*
X2514115Y2644605D1*
X2523622Y2654111D1*
X2554500Y2706728D2*
Y2639741D1*
Y2687604D2*
X2568870Y2701974D1*
X2578487Y2706728D1*
X2592747D1*
X2602364Y2701974D1*
X2607117Y2687604D1*
Y2639741D1*
Y2687604D2*
X2621487Y2701974D1*
X2631104Y2706728D1*
X2645363D1*
X2654980Y2701974D1*
X2659844Y2687604D1*
Y2639741D1*
X2821418Y2740221D2*
Y2639741D1*
X2787924Y2740221D2*
X2854911D1*
X2885789D2*
Y2639741D1*
Y2687604D2*
X2900160Y2701974D1*
X2909776Y2706728D1*
X2924146D1*
X2933653Y2701974D1*
X2938406Y2687604D1*
Y2639741D1*
X2993161Y2706728D2*
X2983655Y2701974D1*
X2974038Y2692358D1*
X2969285Y2677988D1*
Y2668481D1*
X2974038Y2654111D1*
X2983655Y2644605D1*
X2993161Y2639741D1*
X3007531D1*
X3017148Y2644605D1*
X3026654Y2654111D1*
X3031518Y2668481D1*
Y2677988D1*
X3026654Y2692358D1*
X3017148Y2701974D1*
X3007531Y2706728D1*
X2993161D1*
X3062397D2*
Y2639741D1*
Y2677988D2*
X3067260Y2692358D1*
X3076767Y2701974D1*
X3086383Y2706728D1*
X3100754D1*
X3131632D2*
Y2639741D1*
Y2687604D2*
X3146002Y2701974D1*
X3155619Y2706728D1*
X3169879D1*
X3179495Y2701974D1*
X3184249Y2687604D1*
Y2639741D1*
X3229497Y2740221D2*
Y2658864D1*
X3234250Y2644605D1*
X3243867Y2639741D1*
X3253374D1*
X3215127Y2706728D2*
X3248620D1*
X3308129D2*
X3298622Y2701974D1*
X3289005Y2692358D1*
X3284252Y2677988D1*
Y2668481D1*
X3289005Y2654111D1*
X3298622Y2644605D1*
X3308129Y2639741D1*
X3322499D1*
X3332116Y2644605D1*
X3341622Y2654111D1*
X3346486Y2668481D1*
Y2677988D1*
X3341622Y2692358D1*
X3332116Y2701974D1*
X3322499Y2706728D1*
X3308129D1*
X3377364D2*
Y2639741D1*
Y2687604D2*
X3391734Y2701974D1*
X3401351Y2706728D1*
X3415611D1*
X3425228Y2701974D1*
X3429981Y2687604D1*
Y2639741D1*
X3558061Y2689926D2*
X3613331D1*
X3803645Y2740221D2*
X3741411D1*
Y2639741D1*
Y2692358D2*
X3779658D1*
X3834523Y2677988D2*
X3891893D1*
Y2687604D1*
X3887140Y2697221D1*
X3882387Y2701974D1*
X3872770Y2706728D1*
X3858400D1*
X3848893Y2701974D1*
X3839276Y2692358D1*
X3834523Y2677988D1*
Y2668481D1*
X3839276Y2654111D1*
X3848893Y2644605D1*
X3858400Y2639741D1*
X3872770D1*
X3882387Y2644605D1*
X3891893Y2654111D1*
X3922771Y2740221D2*
Y2639741D1*
Y2692358D2*
X3932388Y2701974D1*
X3941895Y2706728D1*
X3956265D1*
X3965771Y2701974D1*
X3975388Y2692358D1*
X3980141Y2677988D1*
Y2668481D1*
X3975388Y2654111D1*
X3965771Y2644605D1*
X3956265Y2639741D1*
X3941895D1*
X3932388Y2644605D1*
X3922771Y2654111D1*
X4113085Y2716234D2*
Y2720987D1*
X4117838Y2730604D1*
X4122592Y2735357D1*
X4132209Y2740110D1*
X4151332D1*
X4160838Y2735357D1*
X4165591Y2730604D1*
X4170455Y2720987D1*
Y2711481D1*
X4165591Y2701864D1*
X4156085Y2687604D1*
X4108222Y2639741D1*
X4175208D1*
X4234827Y2740110D2*
X4220457Y2735357D1*
X4210840Y2720987D1*
X4206087Y2697111D1*
Y2682741D1*
X4210840Y2658864D1*
X4220457Y2644494D1*
X4234827Y2639741D1*
X4244333D1*
X4258703Y2644494D1*
X4268210Y2658864D1*
X4273073Y2682741D1*
Y2697111D1*
X4268210Y2720987D1*
X4258703Y2735357D1*
X4244333Y2740110D1*
X4234827D1*
X4268210Y2720987D2*
X4210840Y2658864D1*
X4308816Y2716234D2*
Y2720987D1*
X4313569Y2730604D1*
X4318322Y2735357D1*
X4327939Y2740110D1*
X4347062D1*
X4356569Y2735357D1*
X4361322Y2730604D1*
X4366185Y2720987D1*
Y2711481D1*
X4361322Y2701864D1*
X4351815Y2687604D1*
X4303952Y2639741D1*
X4370939D1*
X4406681Y2716234D2*
Y2720987D1*
X4411434Y2730604D1*
X4416187Y2735357D1*
X4425804Y2740110D1*
X4444927D1*
X4454434Y2735357D1*
X4459187Y2730604D1*
X4464051Y2720987D1*
Y2711481D1*
X4459187Y2701864D1*
X4449681Y2687604D1*
X4401817Y2639741D1*
X4468804D1*
X1355906Y2194036D2*
Y2093556D1*
X1288920Y2194036D1*
Y2093556D1*
X1415525Y2194036D2*
X1405908Y2189283D1*
X1396402Y2179666D1*
X1391538Y2170160D1*
X1386785Y2155790D1*
Y2131803D1*
X1391538Y2117543D1*
X1396402Y2107926D1*
X1405908Y2098420D1*
X1415525Y2093556D1*
X1434648D1*
X1444155Y2098420D1*
X1453771Y2107926D1*
X1458525Y2117543D1*
X1463278Y2131803D1*
Y2155790D1*
X1458525Y2170160D1*
X1453771Y2179666D1*
X1444155Y2189283D1*
X1434648Y2194036D1*
X1415525D1*
X1527650D2*
Y2093556D1*
X1494156Y2194036D2*
X1561143D1*
X1654144D2*
X1592021D1*
Y2093556D1*
X1654144D1*
X1592021Y2146173D2*
X1630268D1*
X1689887Y2160543D2*
X1685023Y2155679D1*
X1689887Y2150926D1*
X1694640Y2155679D1*
X1689887Y2160543D1*
Y2103173D2*
X1685023Y2098309D1*
X1689887Y2093556D1*
X1694640Y2098309D1*
X1689887Y2103173D1*
X1822720Y2194036D2*
Y2122296D1*
X1827473Y2107926D1*
X1837090Y2098420D1*
X1851460Y2093556D1*
X1860967D1*
X1875337Y2098420D1*
X1884954Y2107926D1*
X1889707Y2122296D1*
Y2194036D1*
X1987572Y2179666D2*
X1978066Y2189283D1*
X1963696Y2194036D1*
X1944572D1*
X1930202Y2189283D1*
X1920585Y2179666D1*
Y2170160D1*
X1925449Y2160543D1*
X1930202Y2155790D1*
X1939709Y2151036D1*
X1968449Y2141420D1*
X1978066Y2136666D1*
X1982819Y2131803D1*
X1987572Y2122296D1*
Y2107926D1*
X1978066Y2098420D1*
X1963696Y2093556D1*
X1944572D1*
X1930202Y2098420D1*
X1920585Y2107926D1*
X2080574Y2194036D2*
X2018451D1*
Y2093556D1*
X2080574D1*
X2018451Y2146173D2*
X2056697D1*
X2285258Y2093556D2*
X2246900Y2194036D1*
X2208654Y2093556D1*
X2223024Y2127049D2*
X2270887D1*
X2349629Y2194036D2*
Y2093556D1*
X2316136Y2194036D2*
X2383123D1*
X2511203D2*
X2549450Y2146173D1*
Y2093556D1*
X2587696Y2194036D2*
X2549450Y2146173D1*
X2647315Y2194036D2*
X2637698Y2189283D1*
X2628192Y2179666D1*
X2623328Y2170160D1*
X2618575Y2155790D1*
Y2131803D1*
X2623328Y2117543D1*
X2628192Y2107926D1*
X2637698Y2098420D1*
X2647315Y2093556D1*
X2666438D1*
X2675944Y2098420D1*
X2685561Y2107926D1*
X2690315Y2117543D1*
X2695068Y2131803D1*
Y2155790D1*
X2690315Y2170160D1*
X2685561Y2179666D1*
X2675944Y2189283D1*
X2666438Y2194036D1*
X2647315D1*
X2725946D2*
Y2122296D1*
X2730699Y2107926D1*
X2740316Y2098420D1*
X2754686Y2093556D1*
X2764193D1*
X2778563Y2098420D1*
X2788180Y2107926D1*
X2792933Y2122296D1*
Y2194036D1*
X2823811Y2146173D2*
X2866811D1*
X2881181Y2151036D1*
X2886045Y2155790D1*
X2890798Y2165296D1*
Y2174913D1*
X2886045Y2184419D1*
X2881181Y2189283D1*
X2866811Y2194036D1*
X2823811D1*
Y2093556D1*
X2857305Y2146173D2*
X2890798Y2093556D1*
X3047619Y2194036D2*
X3038002Y2189283D1*
X3028495Y2179666D1*
X3023632Y2170160D1*
X3018878Y2155790D1*
Y2131803D1*
X3023632Y2117543D1*
X3028495Y2107926D1*
X3038002Y2098420D1*
X3047619Y2093556D1*
X3066742D1*
X3076248Y2098420D1*
X3085865Y2107926D1*
X3090618Y2117543D1*
X3095372Y2131803D1*
Y2155790D1*
X3090618Y2170160D1*
X3085865Y2179666D1*
X3076248Y2189283D1*
X3066742Y2194036D1*
X3047619D1*
X3126250D2*
X3150237Y2093556D1*
X3174113Y2194036D1*
X3197990Y2093556D1*
X3221977Y2194036D1*
X3319842D2*
Y2093556D1*
X3252855Y2194036D1*
Y2093556D1*
X3447922Y2146173D2*
X3490922D1*
X3505292Y2151036D1*
X3510156Y2155790D1*
X3514909Y2165296D1*
Y2174913D1*
X3510156Y2184419D1*
X3505292Y2189283D1*
X3490922Y2194036D1*
X3447922D1*
Y2093556D1*
X3481416Y2146173D2*
X3514909Y2093556D1*
X3545788Y2194036D2*
Y2093556D1*
X3643653Y2179666D2*
X3634146Y2189283D1*
X3619776Y2194036D1*
X3600653D1*
X3586283Y2189283D1*
X3576666Y2179666D1*
Y2170160D1*
X3581530Y2160543D1*
X3586283Y2155790D1*
X3595789Y2151036D1*
X3624530Y2141420D1*
X3634146Y2136666D1*
X3638900Y2131803D1*
X3643653Y2122296D1*
Y2107926D1*
X3634146Y2098420D1*
X3619776Y2093556D1*
X3600653D1*
X3586283Y2098420D1*
X3576666Y2107926D1*
X3674531Y2194036D2*
Y2093556D1*
X3741518Y2194036D2*
X3674531Y2127049D1*
X3698408Y2151036D2*
X3741518Y2093556D1*
X878677Y1626741D2*
D55*
X847560D1*
Y1576501D1*
Y1602810D2*
X866683D1*
X906054Y1609995D2*
X901301Y1607618D1*
X896492Y1602810D1*
X894116Y1595625D1*
Y1590871D1*
X896492Y1583686D1*
X901301Y1578933D1*
X906054Y1576501D1*
X913239D1*
X918048Y1578933D1*
X922801Y1583686D1*
X925233Y1590871D1*
Y1595625D1*
X922801Y1602810D1*
X918048Y1607618D1*
X913239Y1609995D1*
X906054D1*
X940672D2*
Y1576501D1*
Y1595625D2*
X943104Y1602810D1*
X947857Y1607618D1*
X952665Y1609995D1*
X959850D1*
X1052631Y1602810D2*
X1047822Y1607618D1*
X1043014Y1609995D1*
X1035884D1*
X1031076Y1607618D1*
X1026322Y1602810D1*
X1023891Y1595625D1*
Y1590871D1*
X1026322Y1583686D1*
X1031076Y1578933D1*
X1035884Y1576501D1*
X1043014D1*
X1047822Y1578933D1*
X1052631Y1583686D1*
X1096755Y1609995D2*
Y1576501D1*
Y1602810D2*
X1092002Y1607618D1*
X1087193Y1609995D1*
X1080063D1*
X1075255Y1607618D1*
X1070502Y1602810D1*
X1068070Y1595625D1*
Y1590871D1*
X1070502Y1583686D1*
X1075255Y1578933D1*
X1080063Y1576501D1*
X1087193D1*
X1092002Y1578933D1*
X1096755Y1583686D1*
X1112194Y1609995D2*
Y1576501D1*
Y1595625D2*
X1114626Y1602810D1*
X1119379Y1607618D1*
X1124188Y1609995D1*
X1131373D1*
X1175497Y1626741D2*
Y1576501D1*
Y1602810D2*
X1170744Y1607618D1*
X1165935Y1609995D1*
X1158750D1*
X1153997Y1607618D1*
X1149188Y1602810D1*
X1146812Y1595625D1*
Y1590871D1*
X1149188Y1583686D1*
X1153997Y1578933D1*
X1158750Y1576501D1*
X1165935D1*
X1170744Y1578933D1*
X1175497Y1583686D1*
X1217244Y1602810D2*
X1214868Y1607618D1*
X1207683Y1609995D1*
X1200498D1*
X1193313Y1607618D1*
X1190936Y1602810D1*
X1193313Y1598056D1*
X1198121Y1595625D1*
X1210059Y1593248D1*
X1214868Y1590871D1*
X1217244Y1586063D1*
Y1583686D1*
X1214868Y1578933D1*
X1207683Y1576501D1*
X1200498D1*
X1193313Y1578933D1*
X1190936Y1583686D1*
X1281285Y1626741D2*
X1283661Y1624365D1*
X1286093Y1626741D1*
X1283661Y1629173D1*
X1281285Y1626741D1*
X1283661Y1609995D2*
Y1576501D1*
X1301532Y1609995D2*
Y1576501D1*
Y1600433D2*
X1308717Y1607618D1*
X1313526Y1609995D1*
X1320655D1*
X1325464Y1607618D1*
X1327840Y1600433D1*
Y1576501D1*
X1369588Y1602810D2*
X1367211Y1607618D1*
X1360026Y1609995D1*
X1352841D1*
X1345656Y1607618D1*
X1343280Y1602810D1*
X1345656Y1598056D1*
X1350465Y1595625D1*
X1362403Y1593248D1*
X1367211Y1590871D1*
X1369588Y1586063D1*
Y1583686D1*
X1367211Y1578933D1*
X1360026Y1576501D1*
X1352841D1*
X1345656Y1578933D1*
X1343280Y1583686D1*
X1392212Y1626741D2*
Y1586063D1*
X1394589Y1578933D1*
X1399397Y1576501D1*
X1404151D1*
X1385027Y1609995D2*
X1401774D1*
X1448275D2*
Y1576501D1*
Y1602810D2*
X1443521Y1607618D1*
X1438713Y1609995D1*
X1431583D1*
X1426775Y1607618D1*
X1422022Y1602810D1*
X1419590Y1595625D1*
Y1590871D1*
X1422022Y1583686D1*
X1426775Y1578933D1*
X1431583Y1576501D1*
X1438713D1*
X1443521Y1578933D1*
X1448275Y1583686D1*
X1463714Y1626741D2*
Y1576501D1*
X1479153Y1626741D2*
Y1576501D1*
X1494592Y1595625D2*
X1523277D1*
Y1600433D1*
X1520901Y1605241D1*
X1518524Y1607618D1*
X1513716Y1609995D1*
X1506531D1*
X1501777Y1607618D1*
X1496969Y1602810D1*
X1494592Y1595625D1*
Y1590871D1*
X1496969Y1583686D1*
X1501777Y1578933D1*
X1506531Y1576501D1*
X1513716D1*
X1518524Y1578933D1*
X1523277Y1583686D1*
X1567401Y1626741D2*
Y1576501D1*
Y1602810D2*
X1562648Y1607618D1*
X1557840Y1609995D1*
X1550655D1*
X1545902Y1607618D1*
X1541093Y1602810D1*
X1538717Y1595625D1*
Y1590871D1*
X1541093Y1583686D1*
X1545902Y1578933D1*
X1550655Y1576501D1*
X1557840D1*
X1562648Y1578933D1*
X1567401Y1583686D1*
X1643380Y1609995D2*
X1638627Y1607618D1*
X1633818Y1602810D1*
X1631442Y1595625D1*
Y1590871D1*
X1633818Y1583686D1*
X1638627Y1578933D1*
X1643380Y1576501D1*
X1650565D1*
X1655373Y1578933D1*
X1660127Y1583686D1*
X1662558Y1590871D1*
Y1595625D1*
X1660127Y1602810D1*
X1655373Y1607618D1*
X1650565Y1609995D1*
X1643380D1*
X1677998D2*
Y1576501D1*
Y1600433D2*
X1685183Y1607618D1*
X1689991Y1609995D1*
X1697121D1*
X1701929Y1607618D1*
X1704306Y1600433D1*
Y1576501D1*
X1775531Y1626741D2*
Y1586063D1*
X1777908Y1578933D1*
X1782716Y1576501D1*
X1787469D1*
X1768346Y1609995D2*
X1785093D1*
X1802909Y1626741D2*
Y1576501D1*
Y1600433D2*
X1810094Y1607618D1*
X1814902Y1609995D1*
X1822087D1*
X1826840Y1607618D1*
X1829217Y1600433D1*
Y1576501D1*
X1844656Y1626741D2*
X1847033Y1624365D1*
X1849465Y1626741D1*
X1847033Y1629173D1*
X1844656Y1626741D1*
X1847033Y1609995D2*
Y1576501D1*
X1891212Y1602810D2*
X1888836Y1607618D1*
X1881651Y1609995D1*
X1874466D1*
X1867280Y1607618D1*
X1864904Y1602810D1*
X1867280Y1598056D1*
X1872089Y1595625D1*
X1884027Y1593248D1*
X1888836Y1590871D1*
X1891212Y1586063D1*
Y1583686D1*
X1888836Y1578933D1*
X1881651Y1576501D1*
X1874466D1*
X1867280Y1578933D1*
X1864904Y1583686D1*
X1981561Y1602810D2*
X1979184Y1607618D1*
X1971999Y1609995D1*
X1964814D1*
X1957629Y1607618D1*
X1955252Y1602810D1*
X1957629Y1598056D1*
X1962437Y1595625D1*
X1974376Y1593248D1*
X1979184Y1590871D1*
X1981561Y1586063D1*
Y1583686D1*
X1979184Y1578933D1*
X1971999Y1576501D1*
X1964814D1*
X1957629Y1578933D1*
X1955252Y1583686D1*
X1997000Y1626741D2*
X1999377Y1624365D1*
X2001808Y1626741D1*
X1999377Y1629173D1*
X1997000Y1626741D1*
X1999377Y1609995D2*
Y1576501D1*
X2045933Y1626741D2*
Y1576501D1*
Y1602810D2*
X2041179Y1607618D1*
X2036371Y1609995D1*
X2029186D1*
X2024433Y1607618D1*
X2019624Y1602810D1*
X2017248Y1595625D1*
Y1590871D1*
X2019624Y1583686D1*
X2024433Y1578933D1*
X2029186Y1576501D1*
X2036371D1*
X2041179Y1578933D1*
X2045933Y1583686D1*
X2061372Y1595625D2*
X2090057D1*
Y1600433D1*
X2087680Y1605241D1*
X2085303Y1607618D1*
X2080495Y1609995D1*
X2073310D1*
X2068557Y1607618D1*
X2063748Y1602810D1*
X2061372Y1595625D1*
Y1590871D1*
X2063748Y1583686D1*
X2068557Y1578933D1*
X2073310Y1576501D1*
X2080495D1*
X2085303Y1578933D1*
X2090057Y1583686D1*
X2110304Y1578878D2*
X2107873Y1576501D1*
X2105496Y1578878D1*
X2107873Y1581310D1*
X2110304Y1578878D1*
Y1574125D1*
X2107873Y1569316D1*
X2105496Y1566940D1*
X2203085Y1602810D2*
X2198276Y1607618D1*
X2193468Y1609995D1*
X2186338D1*
X2181530Y1607618D1*
X2176776Y1602810D1*
X2174345Y1595625D1*
Y1590871D1*
X2176776Y1583686D1*
X2181530Y1578933D1*
X2186338Y1576501D1*
X2193468D1*
X2198276Y1578933D1*
X2203085Y1583686D1*
X2230462Y1609995D2*
X2225709Y1607618D1*
X2220901Y1602810D1*
X2218524Y1595625D1*
Y1590871D1*
X2220901Y1583686D1*
X2225709Y1578933D1*
X2230462Y1576501D1*
X2237647D1*
X2242456Y1578933D1*
X2247209Y1583686D1*
X2249641Y1590871D1*
Y1595625D1*
X2247209Y1602810D1*
X2242456Y1607618D1*
X2237647Y1609995D1*
X2230462D1*
X2265080D2*
Y1576501D1*
Y1600433D2*
X2272265Y1607618D1*
X2277073Y1609995D1*
X2284203D1*
X2289012Y1607618D1*
X2291388Y1600433D1*
Y1576501D1*
Y1600433D2*
X2298573Y1607618D1*
X2303382Y1609995D1*
X2310512D1*
X2315320Y1607618D1*
X2317752Y1600433D1*
Y1576501D1*
X2333191Y1609995D2*
Y1559755D1*
Y1602810D2*
X2338000Y1607563D1*
X2342753Y1609995D1*
X2349938D1*
X2354746Y1607563D1*
X2359499Y1602810D1*
X2361931Y1595625D1*
Y1590816D1*
X2359499Y1583686D1*
X2354746Y1578878D1*
X2349938Y1576501D1*
X2342753D1*
X2338000Y1578878D1*
X2333191Y1583686D1*
X2389309Y1609995D2*
X2384556Y1607618D1*
X2379747Y1602810D1*
X2377371Y1595625D1*
Y1590871D1*
X2379747Y1583686D1*
X2384556Y1578933D1*
X2389309Y1576501D1*
X2396494D1*
X2401302Y1578933D1*
X2406055Y1583686D1*
X2408487Y1590871D1*
Y1595625D1*
X2406055Y1602810D1*
X2401302Y1607618D1*
X2396494Y1609995D1*
X2389309D1*
X2423926D2*
Y1576501D1*
Y1600433D2*
X2431112Y1607618D1*
X2435920Y1609995D1*
X2443050D1*
X2447858Y1607618D1*
X2450235Y1600433D1*
Y1576501D1*
X2465674Y1595625D2*
X2494359D1*
Y1600433D1*
X2491982Y1605241D1*
X2489606Y1607618D1*
X2484797Y1609995D1*
X2477612D1*
X2472859Y1607618D1*
X2468051Y1602810D1*
X2465674Y1595625D1*
Y1590871D1*
X2468051Y1583686D1*
X2472859Y1578933D1*
X2477612Y1576501D1*
X2484797D1*
X2489606Y1578933D1*
X2494359Y1583686D1*
X2509798Y1609995D2*
Y1576501D1*
Y1600433D2*
X2516983Y1607618D1*
X2521792Y1609995D1*
X2528921D1*
X2533730Y1607618D1*
X2536106Y1600433D1*
Y1576501D1*
X2558731Y1626741D2*
Y1586063D1*
X2561107Y1578933D1*
X2565916Y1576501D1*
X2570669D1*
X2551546Y1609995D2*
X2568292D1*
X2612417Y1602810D2*
X2610040Y1607618D1*
X2602855Y1609995D1*
X2595670D1*
X2588485Y1607618D1*
X2586108Y1602810D1*
X2588485Y1598056D1*
X2593293Y1595625D1*
X2605231Y1593248D1*
X2610040Y1590871D1*
X2612417Y1586063D1*
Y1583686D1*
X2610040Y1578933D1*
X2602855Y1576501D1*
X2595670D1*
X2588485Y1578933D1*
X2586108Y1583686D1*
X2702765Y1602810D2*
X2700388Y1607618D1*
X2693203Y1609995D1*
X2686018D1*
X2678833Y1607618D1*
X2676457Y1602810D1*
X2678833Y1598056D1*
X2683642Y1595625D1*
X2695580Y1593248D1*
X2700388Y1590871D1*
X2702765Y1586063D1*
Y1583686D1*
X2700388Y1578933D1*
X2693203Y1576501D1*
X2686018D1*
X2678833Y1578933D1*
X2676457Y1583686D1*
X2718204Y1626741D2*
Y1576501D1*
Y1600433D2*
X2725389Y1607618D1*
X2730198Y1609995D1*
X2737383D1*
X2742136Y1607618D1*
X2744513Y1600433D1*
Y1576501D1*
X2771890Y1609995D2*
X2767137Y1607618D1*
X2762328Y1602810D1*
X2759952Y1595625D1*
Y1590871D1*
X2762328Y1583686D1*
X2767137Y1578933D1*
X2771890Y1576501D1*
X2779075D1*
X2783884Y1578933D1*
X2788637Y1583686D1*
X2791069Y1590871D1*
Y1595625D1*
X2788637Y1602810D1*
X2783884Y1607618D1*
X2779075Y1609995D1*
X2771890D1*
X2806508D2*
Y1586063D1*
X2808884Y1578933D1*
X2813693Y1576501D1*
X2820878D1*
X2825631Y1578933D1*
X2832816Y1586063D1*
Y1609995D2*
Y1576501D1*
X2848255Y1626741D2*
Y1576501D1*
X2892379Y1626741D2*
Y1576501D1*
Y1602810D2*
X2887626Y1607618D1*
X2882818Y1609995D1*
X2875633D1*
X2870880Y1607618D1*
X2866071Y1602810D1*
X2863695Y1595625D1*
Y1590871D1*
X2866071Y1583686D1*
X2870880Y1578933D1*
X2875633Y1576501D1*
X2882818D1*
X2887626Y1578933D1*
X2892379Y1583686D1*
X2975543Y1626741D2*
X2970790D1*
X2965981Y1624365D1*
X2963605Y1617180D1*
Y1576501D1*
X2956420Y1609995D2*
X2973166D1*
X3019667D2*
Y1576501D1*
Y1602810D2*
X3014914Y1607618D1*
X3010105Y1609995D1*
X3002976D1*
X2998167Y1607618D1*
X2993414Y1602810D1*
X2990982Y1595625D1*
Y1590871D1*
X2993414Y1583686D1*
X2998167Y1578933D1*
X3002976Y1576501D1*
X3010105D1*
X3014914Y1578933D1*
X3019667Y1583686D1*
X3063847Y1602810D2*
X3059038Y1607618D1*
X3054230Y1609995D1*
X3047100D1*
X3042291Y1607618D1*
X3037538Y1602810D1*
X3035106Y1595625D1*
Y1590871D1*
X3037538Y1583686D1*
X3042291Y1578933D1*
X3047100Y1576501D1*
X3054230D1*
X3059038Y1578933D1*
X3063847Y1583686D1*
X3079286Y1595625D2*
X3107971D1*
Y1600433D1*
X3105594Y1605241D1*
X3103217Y1607618D1*
X3098409Y1609995D1*
X3091224D1*
X3086471Y1607618D1*
X3081662Y1602810D1*
X3079286Y1595625D1*
Y1590871D1*
X3081662Y1583686D1*
X3086471Y1578933D1*
X3091224Y1576501D1*
X3098409D1*
X3103217Y1578933D1*
X3107971Y1583686D1*
X3172011Y1609995D2*
Y1586063D1*
X3174387Y1578933D1*
X3179196Y1576501D1*
X3186381D1*
X3191134Y1578933D1*
X3198319Y1586063D1*
Y1609995D2*
Y1576501D1*
X3213758Y1609995D2*
Y1559755D1*
Y1602810D2*
X3218567Y1607563D1*
X3223320Y1609995D1*
X3230505D1*
X3235314Y1607563D1*
X3240067Y1602810D1*
X3242499Y1595625D1*
Y1590816D1*
X3240067Y1583686D1*
X3235314Y1578878D1*
X3230505Y1576501D1*
X3223320D1*
X3218567Y1578878D1*
X3213758Y1583686D1*
X3313724Y1626741D2*
Y1586063D1*
X3316100Y1578933D1*
X3320909Y1576501D1*
X3325662D1*
X3306539Y1609995D2*
X3323285D1*
X3353039D2*
X3348286Y1607618D1*
X3343478Y1602810D1*
X3341101Y1595625D1*
Y1590871D1*
X3343478Y1583686D1*
X3348286Y1578933D1*
X3353039Y1576501D1*
X3360225D1*
X3365033Y1578933D1*
X3369786Y1583686D1*
X3372218Y1590871D1*
Y1595625D1*
X3369786Y1602810D1*
X3365033Y1607618D1*
X3360225Y1609995D1*
X3353039D1*
X3387657D2*
X3397219Y1576501D1*
X3406781Y1609995D1*
X3416342Y1576501D1*
X3425904Y1609995D1*
X3470028D2*
Y1576501D1*
Y1602810D2*
X3465275Y1607618D1*
X3460466Y1609995D1*
X3453337D1*
X3448528Y1607618D1*
X3443775Y1602810D1*
X3441343Y1595625D1*
Y1590871D1*
X3443775Y1583686D1*
X3448528Y1578933D1*
X3453337Y1576501D1*
X3460466D1*
X3465275Y1578933D1*
X3470028Y1583686D1*
X3485467Y1609995D2*
Y1576501D1*
Y1595625D2*
X3487899Y1602810D1*
X3492652Y1607618D1*
X3497461Y1609995D1*
X3504646D1*
X3548770Y1626741D2*
Y1576501D1*
Y1602810D2*
X3544017Y1607618D1*
X3539208Y1609995D1*
X3532023D1*
X3527270Y1607618D1*
X3522462Y1602810D1*
X3520085Y1595625D1*
Y1590871D1*
X3522462Y1583686D1*
X3527270Y1578933D1*
X3532023Y1576501D1*
X3539208D1*
X3544017Y1578933D1*
X3548770Y1583686D1*
X3619995Y1626741D2*
Y1586063D1*
X3622372Y1578933D1*
X3627180Y1576501D1*
X3631933D1*
X3612810Y1609995D2*
X3629557D1*
X3647373Y1626741D2*
Y1576501D1*
Y1600433D2*
X3654558Y1607618D1*
X3659366Y1609995D1*
X3666551D1*
X3671304Y1607618D1*
X3673681Y1600433D1*
Y1576501D1*
X3689120Y1595625D2*
X3717805D1*
Y1600433D1*
X3715428Y1605241D1*
X3713052Y1607618D1*
X3708243Y1609995D1*
X3701058D1*
X3696305Y1607618D1*
X3691497Y1602810D1*
X3689120Y1595625D1*
Y1590871D1*
X3691497Y1583686D1*
X3696305Y1578933D1*
X3701058Y1576501D1*
X3708243D1*
X3713052Y1578933D1*
X3717805Y1583686D1*
X3789030Y1626741D2*
Y1586063D1*
X3791407Y1578933D1*
X3796215Y1576501D1*
X3800968D1*
X3781845Y1609995D2*
X3798592D1*
X3828346D2*
X3823593Y1607618D1*
X3818784Y1602810D1*
X3816408Y1595625D1*
Y1590871D1*
X3818784Y1583686D1*
X3823593Y1578933D1*
X3828346Y1576501D1*
X3835531D1*
X3840339Y1578933D1*
X3845093Y1583686D1*
X3847524Y1590871D1*
Y1595625D1*
X3845093Y1602810D1*
X3840339Y1607618D1*
X3835531Y1609995D1*
X3828346D1*
X3862964D2*
Y1559755D1*
Y1602810D2*
X3867772Y1607563D1*
X3872525Y1609995D1*
X3879710D1*
X3884519Y1607563D1*
X3889272Y1602810D1*
X3891704Y1595625D1*
Y1590816D1*
X3889272Y1583686D1*
X3884519Y1578878D1*
X3879710Y1576501D1*
X3872525D1*
X3867772Y1578878D1*
X3862964Y1583686D1*
X3967682Y1609995D2*
X3962929Y1607618D1*
X3958121Y1602810D1*
X3955744Y1595625D1*
Y1590871D1*
X3958121Y1583686D1*
X3962929Y1578933D1*
X3967682Y1576501D1*
X3974867D1*
X3979676Y1578933D1*
X3984429Y1583686D1*
X3986861Y1590871D1*
Y1595625D1*
X3984429Y1602810D1*
X3979676Y1607618D1*
X3974867Y1609995D1*
X3967682D1*
X4021423Y1626741D2*
X4016670D1*
X4011862Y1624365D1*
X4009485Y1617180D1*
Y1576501D1*
X4002300Y1609995D2*
X4019047D1*
X4092649Y1626741D2*
Y1586063D1*
X4095025Y1578933D1*
X4099834Y1576501D1*
X4104587D1*
X4085464Y1609995D2*
X4102210D1*
X4120026Y1626741D2*
Y1576501D1*
Y1600433D2*
X4127211Y1607618D1*
X4132020Y1609995D1*
X4139205D1*
X4143958Y1607618D1*
X4146334Y1600433D1*
Y1576501D1*
X4161774Y1595625D2*
X4190458D1*
Y1600433D1*
X4188082Y1605241D1*
X4185705Y1607618D1*
X4180897Y1609995D1*
X4173712D1*
X4168959Y1607618D1*
X4164150Y1602810D1*
X4161774Y1595625D1*
Y1590871D1*
X4164150Y1583686D1*
X4168959Y1578933D1*
X4173712Y1576501D1*
X4180897D1*
X4185705Y1578933D1*
X4190458Y1583686D1*
X4254499Y1600433D2*
X4276054D1*
X4283184Y1602810D1*
X4285615Y1605241D1*
X4287992Y1609995D1*
Y1617180D1*
X4285615Y1621933D1*
X4283184Y1624365D1*
X4276054Y1626741D1*
X4254499D1*
Y1576501D1*
X4339301Y1614803D2*
X4336925Y1619556D1*
X4332116Y1624365D1*
X4327363Y1626741D1*
X4317801D1*
X4312993Y1624365D1*
X4308240Y1619556D1*
X4305808Y1614803D1*
X4303431Y1607618D1*
Y1595625D1*
X4305808Y1588495D1*
X4308240Y1583686D1*
X4312993Y1578933D1*
X4317801Y1576501D1*
X4327363D1*
X4332116Y1578933D1*
X4336925Y1583686D1*
X4339301Y1588495D1*
X4354740Y1617124D2*
X4359549Y1619556D1*
X4366734Y1626686D1*
Y1576501D1*
X1828677Y1776741D2*
X1797560D1*
Y1726501D1*
Y1752810D2*
X1816683D1*
X1856054Y1759995D2*
X1851301Y1757618D1*
X1846492Y1752810D1*
X1844116Y1745625D1*
Y1740871D1*
X1846492Y1733686D1*
X1851301Y1728933D1*
X1856054Y1726501D1*
X1863239D1*
X1868048Y1728933D1*
X1872801Y1733686D1*
X1875233Y1740871D1*
Y1745625D1*
X1872801Y1752810D1*
X1868048Y1757618D1*
X1863239Y1759995D1*
X1856054D1*
X1890672D2*
Y1726501D1*
Y1745625D2*
X1893104Y1752810D1*
X1897857Y1757618D1*
X1902665Y1759995D1*
X1909850D1*
X2002631Y1752810D2*
X1997822Y1757618D1*
X1993014Y1759995D1*
X1985884D1*
X1981076Y1757618D1*
X1976322Y1752810D1*
X1973891Y1745625D1*
Y1740871D1*
X1976322Y1733686D1*
X1981076Y1728933D1*
X1985884Y1726501D1*
X1993014D1*
X1997822Y1728933D1*
X2002631Y1733686D1*
X2046755Y1759995D2*
Y1726501D1*
Y1752810D2*
X2042002Y1757618D1*
X2037193Y1759995D1*
X2030063D1*
X2025255Y1757618D1*
X2020502Y1752810D1*
X2018070Y1745625D1*
Y1740871D1*
X2020502Y1733686D1*
X2025255Y1728933D1*
X2030063Y1726501D1*
X2037193D1*
X2042002Y1728933D1*
X2046755Y1733686D1*
X2062194Y1759995D2*
Y1726501D1*
Y1745625D2*
X2064626Y1752810D1*
X2069379Y1757618D1*
X2074188Y1759995D1*
X2081373D1*
X2125497Y1776741D2*
Y1726501D1*
Y1752810D2*
X2120744Y1757618D1*
X2115935Y1759995D1*
X2108750D1*
X2103997Y1757618D1*
X2099188Y1752810D1*
X2096812Y1745625D1*
Y1740871D1*
X2099188Y1733686D1*
X2103997Y1728933D1*
X2108750Y1726501D1*
X2115935D1*
X2120744Y1728933D1*
X2125497Y1733686D1*
X2167244Y1752810D2*
X2164868Y1757618D1*
X2157683Y1759995D1*
X2150498D1*
X2143313Y1757618D1*
X2140936Y1752810D1*
X2143313Y1748056D1*
X2148121Y1745625D1*
X2160059Y1743248D1*
X2164868Y1740871D1*
X2167244Y1736063D1*
Y1733686D1*
X2164868Y1728933D1*
X2157683Y1726501D1*
X2150498D1*
X2143313Y1728933D1*
X2140936Y1733686D1*
X2231285Y1776741D2*
X2233661Y1774365D1*
X2236093Y1776741D1*
X2233661Y1779173D1*
X2231285Y1776741D1*
X2233661Y1759995D2*
Y1726501D1*
X2251532Y1759995D2*
Y1726501D1*
Y1750433D2*
X2258717Y1757618D1*
X2263526Y1759995D1*
X2270655D1*
X2275464Y1757618D1*
X2277840Y1750433D1*
Y1726501D1*
X2319588Y1752810D2*
X2317211Y1757618D1*
X2310026Y1759995D1*
X2302841D1*
X2295656Y1757618D1*
X2293280Y1752810D1*
X2295656Y1748056D1*
X2300465Y1745625D1*
X2312403Y1743248D1*
X2317211Y1740871D1*
X2319588Y1736063D1*
Y1733686D1*
X2317211Y1728933D1*
X2310026Y1726501D1*
X2302841D1*
X2295656Y1728933D1*
X2293280Y1733686D1*
X2342212Y1776741D2*
Y1736063D1*
X2344589Y1728933D1*
X2349397Y1726501D1*
X2354151D1*
X2335027Y1759995D2*
X2351774D1*
X2398275D2*
Y1726501D1*
Y1752810D2*
X2393521Y1757618D1*
X2388713Y1759995D1*
X2381583D1*
X2376775Y1757618D1*
X2372022Y1752810D1*
X2369590Y1745625D1*
Y1740871D1*
X2372022Y1733686D1*
X2376775Y1728933D1*
X2381583Y1726501D1*
X2388713D1*
X2393521Y1728933D1*
X2398275Y1733686D1*
X2413714Y1776741D2*
Y1726501D1*
X2429153Y1776741D2*
Y1726501D1*
X2444592Y1745625D2*
X2473277D1*
Y1750433D1*
X2470901Y1755241D1*
X2468524Y1757618D1*
X2463716Y1759995D1*
X2456531D1*
X2451777Y1757618D1*
X2446969Y1752810D1*
X2444592Y1745625D1*
Y1740871D1*
X2446969Y1733686D1*
X2451777Y1728933D1*
X2456531Y1726501D1*
X2463716D1*
X2468524Y1728933D1*
X2473277Y1733686D1*
X2517401Y1776741D2*
Y1726501D1*
Y1752810D2*
X2512648Y1757618D1*
X2507840Y1759995D1*
X2500655D1*
X2495902Y1757618D1*
X2491093Y1752810D1*
X2488717Y1745625D1*
Y1740871D1*
X2491093Y1733686D1*
X2495902Y1728933D1*
X2500655Y1726501D1*
X2507840D1*
X2512648Y1728933D1*
X2517401Y1733686D1*
X2593380Y1759995D2*
X2588627Y1757618D1*
X2583818Y1752810D1*
X2581442Y1745625D1*
Y1740871D1*
X2583818Y1733686D1*
X2588627Y1728933D1*
X2593380Y1726501D1*
X2600565D1*
X2605373Y1728933D1*
X2610127Y1733686D1*
X2612558Y1740871D1*
Y1745625D1*
X2610127Y1752810D1*
X2605373Y1757618D1*
X2600565Y1759995D1*
X2593380D1*
X2627998D2*
Y1726501D1*
Y1750433D2*
X2635183Y1757618D1*
X2639991Y1759995D1*
X2647121D1*
X2651929Y1757618D1*
X2654306Y1750433D1*
Y1726501D1*
X2725531Y1776741D2*
Y1736063D1*
X2727908Y1728933D1*
X2732716Y1726501D1*
X2737469D1*
X2718346Y1759995D2*
X2735093D1*
X2752909Y1776741D2*
Y1726501D1*
Y1750433D2*
X2760094Y1757618D1*
X2764902Y1759995D1*
X2772087D1*
X2776840Y1757618D1*
X2779217Y1750433D1*
Y1726501D1*
X2794656Y1776741D2*
X2797033Y1774365D1*
X2799465Y1776741D1*
X2797033Y1779173D1*
X2794656Y1776741D1*
X2797033Y1759995D2*
Y1726501D1*
X2841212Y1752810D2*
X2838836Y1757618D1*
X2831651Y1759995D1*
X2824466D1*
X2817280Y1757618D1*
X2814904Y1752810D1*
X2817280Y1748056D1*
X2822089Y1745625D1*
X2834027Y1743248D1*
X2838836Y1740871D1*
X2841212Y1736063D1*
Y1733686D1*
X2838836Y1728933D1*
X2831651Y1726501D1*
X2824466D1*
X2817280Y1728933D1*
X2814904Y1733686D1*
X2931561Y1752810D2*
X2929184Y1757618D1*
X2921999Y1759995D1*
X2914814D1*
X2907629Y1757618D1*
X2905252Y1752810D1*
X2907629Y1748056D1*
X2912437Y1745625D1*
X2924376Y1743248D1*
X2929184Y1740871D1*
X2931561Y1736063D1*
Y1733686D1*
X2929184Y1728933D1*
X2921999Y1726501D1*
X2914814D1*
X2907629Y1728933D1*
X2905252Y1733686D1*
X2947000Y1776741D2*
X2949377Y1774365D1*
X2951808Y1776741D1*
X2949377Y1779173D1*
X2947000Y1776741D1*
X2949377Y1759995D2*
Y1726501D1*
X2995933Y1776741D2*
Y1726501D1*
Y1752810D2*
X2991179Y1757618D1*
X2986371Y1759995D1*
X2979186D1*
X2974433Y1757618D1*
X2969624Y1752810D1*
X2967248Y1745625D1*
Y1740871D1*
X2969624Y1733686D1*
X2974433Y1728933D1*
X2979186Y1726501D1*
X2986371D1*
X2991179Y1728933D1*
X2995933Y1733686D1*
X3011372Y1745625D2*
X3040057D1*
Y1750433D1*
X3037680Y1755241D1*
X3035303Y1757618D1*
X3030495Y1759995D1*
X3023310D1*
X3018557Y1757618D1*
X3013748Y1752810D1*
X3011372Y1745625D1*
Y1740871D1*
X3013748Y1733686D1*
X3018557Y1728933D1*
X3023310Y1726501D1*
X3030495D1*
X3035303Y1728933D1*
X3040057Y1733686D1*
X3060304Y1728878D2*
X3057873Y1726501D1*
X3055496Y1728878D1*
X3057873Y1731310D1*
X3060304Y1728878D1*
Y1724125D1*
X3057873Y1719316D1*
X3055496Y1716940D1*
X3131530Y1776741D2*
Y1736063D1*
X3133906Y1728933D1*
X3138715Y1726501D1*
X3143468D1*
X3124345Y1759995D2*
X3141091D1*
X3158907Y1776741D2*
Y1726501D1*
Y1750433D2*
X3166092Y1757618D1*
X3170901Y1759995D1*
X3178086D1*
X3182839Y1757618D1*
X3185215Y1750433D1*
Y1726501D1*
X3200655Y1745625D2*
X3229340D1*
Y1750433D1*
X3226963Y1755241D1*
X3224586Y1757618D1*
X3219778Y1759995D1*
X3212593D1*
X3207840Y1757618D1*
X3203031Y1752810D1*
X3200655Y1745625D1*
Y1740871D1*
X3203031Y1733686D1*
X3207840Y1728933D1*
X3212593Y1726501D1*
X3219778D1*
X3224586Y1728933D1*
X3229340Y1733686D1*
X3293380Y1759995D2*
Y1726501D1*
Y1745625D2*
X3295812Y1752810D1*
X3300565Y1757618D1*
X3305373Y1759995D1*
X3312558D1*
X3327998Y1745625D2*
X3356682D1*
Y1750433D1*
X3354306Y1755241D1*
X3351929Y1757618D1*
X3347121Y1759995D1*
X3339936D1*
X3335183Y1757618D1*
X3330374Y1752810D1*
X3327998Y1745625D1*
Y1740871D1*
X3330374Y1733686D1*
X3335183Y1728933D1*
X3339936Y1726501D1*
X3347121D1*
X3351929Y1728933D1*
X3356682Y1733686D1*
X3400807Y1759995D2*
Y1726501D1*
Y1752810D2*
X3396053Y1757618D1*
X3391245Y1759995D1*
X3384115D1*
X3379307Y1757618D1*
X3374554Y1752810D1*
X3372122Y1745625D1*
Y1740871D1*
X3374554Y1733686D1*
X3379307Y1728933D1*
X3384115Y1726501D1*
X3391245D1*
X3396053Y1728933D1*
X3400807Y1733686D1*
X3416246Y1759995D2*
Y1726501D1*
Y1745625D2*
X3418678Y1752810D1*
X3423431Y1757618D1*
X3428239Y1759995D1*
X3435424D1*
X3511403D2*
X3506650Y1757618D1*
X3501841Y1752810D1*
X3499465Y1745625D1*
Y1740871D1*
X3501841Y1733686D1*
X3506650Y1728933D1*
X3511403Y1726501D1*
X3518588D1*
X3523396Y1728933D1*
X3528149Y1733686D1*
X3530581Y1740871D1*
Y1745625D1*
X3528149Y1752810D1*
X3523396Y1757618D1*
X3518588Y1759995D1*
X3511403D1*
X3565144Y1776741D2*
X3560391D1*
X3555582Y1774365D1*
X3553206Y1767180D1*
Y1726501D1*
X3546021Y1759995D2*
X3562767D1*
X3636369Y1776741D2*
Y1736063D1*
X3638746Y1728933D1*
X3643554Y1726501D1*
X3648307D1*
X3629184Y1759995D2*
X3645931D1*
X3663746Y1776741D2*
Y1726501D1*
Y1750433D2*
X3670932Y1757618D1*
X3675740Y1759995D1*
X3682925D1*
X3687678Y1757618D1*
X3690055Y1750433D1*
Y1726501D1*
X3705494Y1745625D2*
X3734179D1*
Y1750433D1*
X3731802Y1755241D1*
X3729426Y1757618D1*
X3724617Y1759995D1*
X3717432D1*
X3712679Y1757618D1*
X3707871Y1752810D1*
X3705494Y1745625D1*
Y1740871D1*
X3707871Y1733686D1*
X3712679Y1728933D1*
X3717432Y1726501D1*
X3724617D1*
X3729426Y1728933D1*
X3734179Y1733686D1*
X3798219Y1750433D2*
X3819774D1*
X3826904Y1752810D1*
X3829336Y1755241D1*
X3831712Y1759995D1*
Y1767180D1*
X3829336Y1771933D1*
X3826904Y1774365D1*
X3819774Y1776741D1*
X3798219D1*
Y1726501D1*
X3883022Y1764803D2*
X3880645Y1769556D1*
X3875837Y1774365D1*
X3871083Y1776741D1*
X3861522D1*
X3856713Y1774365D1*
X3851960Y1769556D1*
X3849528Y1764803D1*
X3847152Y1757618D1*
Y1745625D1*
X3849528Y1738495D1*
X3851960Y1733686D1*
X3856713Y1728933D1*
X3861522Y1726501D1*
X3871083D1*
X3875837Y1728933D1*
X3880645Y1733686D1*
X3883022Y1738495D1*
X3947062Y1776741D2*
X3949438Y1774365D1*
X3951870Y1776741D1*
X3949438Y1779173D1*
X3947062Y1776741D1*
X3949438Y1759995D2*
Y1726501D1*
X3993618Y1752810D2*
X3991241Y1757618D1*
X3984056Y1759995D1*
X3976871D1*
X3969686Y1757618D1*
X3967310Y1752810D1*
X3969686Y1748056D1*
X3974495Y1745625D1*
X3986433Y1743248D1*
X3991241Y1740871D1*
X3993618Y1736063D1*
Y1733686D1*
X3991241Y1728933D1*
X3984056Y1726501D1*
X3976871D1*
X3969686Y1728933D1*
X3967310Y1733686D1*
X4057658Y1776741D2*
Y1726501D1*
Y1750433D2*
X4064843Y1757618D1*
X4069652Y1759995D1*
X4076837D1*
X4081590Y1757618D1*
X4083966Y1750433D1*
Y1726501D1*
X4099406Y1745625D2*
X4128091D1*
Y1750433D1*
X4125714Y1755241D1*
X4123337Y1757618D1*
X4118529Y1759995D1*
X4111344D1*
X4106591Y1757618D1*
X4101782Y1752810D1*
X4099406Y1745625D1*
Y1740871D1*
X4101782Y1733686D1*
X4106591Y1728933D1*
X4111344Y1726501D1*
X4118529D1*
X4123337Y1728933D1*
X4128091Y1733686D1*
X4143530Y1759995D2*
Y1726501D1*
Y1745625D2*
X4145962Y1752810D1*
X4150715Y1757618D1*
X4155523Y1759995D1*
X4162708D1*
X4178148Y1745625D2*
X4206832D1*
Y1750433D1*
X4204456Y1755241D1*
X4202079Y1757618D1*
X4197271Y1759995D1*
X4190086D1*
X4185333Y1757618D1*
X4180524Y1752810D1*
X4178148Y1745625D1*
Y1740871D1*
X4180524Y1733686D1*
X4185333Y1728933D1*
X4190086Y1726501D1*
X4197271D1*
X4202079Y1728933D1*
X4206832Y1733686D1*
X4270873Y1751594D2*
X4298507D1*
X4313947Y1773121D2*
X4352193Y1751566D1*
X4313947Y1730066D1*
X4919060Y1173121D2*
Y1130066D1*
X4897560Y1151566D2*
X4940615D1*
X4984739Y1176686D2*
X4960862D1*
X4958486Y1155186D1*
X4960862Y1157563D1*
X4968048Y1159995D1*
X4975177D1*
X4982362Y1157563D1*
X4987171Y1152810D1*
X4989547Y1145625D1*
Y1140871D1*
X4987171Y1133686D1*
X4982362Y1128878D1*
X4975177Y1126501D1*
X4968048D1*
X4960862Y1128878D1*
X4958486Y1131310D1*
X4956054Y1136063D1*
X5004987Y1176741D2*
X5024110Y1126501D1*
X5043233Y1176741D1*
X5058672Y1126501D2*
X5092166Y1176686D1*
X5107605Y1152810D2*
X5129105D1*
X5136290Y1155241D1*
X5138722Y1157618D1*
X5141098Y1162371D1*
Y1167180D1*
X5138722Y1171933D1*
X5136290Y1174365D1*
X5129105Y1176741D1*
X5107605D1*
Y1126501D1*
X5124352Y1152810D2*
X5141098Y1126501D1*
X5187599Y1176741D2*
X5156538D1*
Y1126501D1*
X5187599D1*
X5156538Y1152810D2*
X5175661D1*
X5203038Y1176741D2*
Y1126501D1*
X5219785D1*
X5226970Y1128933D1*
X5231778Y1133686D1*
X5234155Y1138495D1*
X5236532Y1145625D1*
Y1157618D1*
X5234155Y1164803D1*
X5231778Y1169556D1*
X5226970Y1174365D1*
X5219785Y1176741D1*
X5203038D1*
X4894060Y660621D2*
Y617566D1*
X4872560Y639066D2*
X4915615D1*
X4931054Y654624D2*
X4935862Y657056D1*
X4943048Y664186D1*
Y614001D1*
X4960919Y652248D2*
Y654624D1*
X4963295Y659433D1*
X4965672Y661809D1*
X4970480Y664186D1*
X4980042D1*
X4984795Y661809D1*
X4987172Y659433D1*
X4989604Y654624D1*
Y649871D1*
X4987172Y645063D1*
X4982418Y637933D1*
X4958487Y614001D1*
X4991980D1*
X5007419Y664241D2*
X5026543Y614001D1*
X5045666Y664241D1*
X5061105Y614001D2*
X5094598Y664186D1*
X5110038Y664241D2*
X5129161Y640310D1*
Y614001D1*
X5148284Y664241D2*
X5129161Y640310D1*
X5194785Y664241D2*
X5163723D1*
Y614001D1*
X5194785D1*
X5163723Y640310D2*
X5182847D1*
X5210224Y664241D2*
Y614001D1*
X5238909D1*
X1297560Y2522495D2*
X1307121Y2489001D1*
X1316683Y2522495D1*
X1326245Y2489001D1*
X1335806Y2522495D1*
X1351246Y2539241D2*
X1353622Y2536865D1*
X1356054Y2539241D1*
X1353622Y2541673D1*
X1351246Y2539241D1*
X1353622Y2522495D2*
Y2489001D1*
X1378678Y2539241D2*
Y2498563D1*
X1381055Y2491433D1*
X1385863Y2489001D1*
X1390617D1*
X1371493Y2522495D2*
X1388240D1*
X1406056Y2539241D2*
Y2489001D1*
Y2512933D2*
X1413241Y2520118D1*
X1418049Y2522495D1*
X1425234D1*
X1429987Y2520118D1*
X1432364Y2512933D1*
Y2489001D1*
X1496404Y2539241D2*
Y2489001D1*
Y2512933D2*
X1503589Y2520118D1*
X1508398Y2522495D1*
X1515583D1*
X1520336Y2520118D1*
X1522713Y2512933D1*
Y2489001D1*
X1538152Y2508125D2*
X1566837D1*
Y2512933D1*
X1564460Y2517741D1*
X1562084Y2520118D1*
X1557275Y2522495D1*
X1550090D1*
X1545337Y2520118D1*
X1540528Y2515310D1*
X1538152Y2508125D1*
Y2503371D1*
X1540528Y2496186D1*
X1545337Y2491433D1*
X1550090Y2489001D1*
X1557275D1*
X1562084Y2491433D1*
X1566837Y2496186D1*
X1582276Y2539241D2*
Y2489001D1*
X1597715Y2522495D2*
Y2472255D1*
Y2515310D2*
X1602524Y2520063D1*
X1607277Y2522495D1*
X1614462D1*
X1619270Y2520063D1*
X1624024Y2515310D1*
X1626455Y2508125D1*
Y2503316D1*
X1624024Y2496186D1*
X1619270Y2491378D1*
X1614462Y2489001D1*
X1607277D1*
X1602524Y2491378D1*
X1597715Y2496186D1*
X1709619Y2539241D2*
X1704866D1*
X1700057Y2536865D1*
X1697681Y2529680D1*
Y2489001D1*
X1690496Y2522495D2*
X1707242D1*
X1725058D2*
Y2489001D1*
Y2508125D2*
X1727490Y2515310D1*
X1732243Y2520118D1*
X1737052Y2522495D1*
X1744237D1*
X1771614D2*
X1766861Y2520118D1*
X1762052Y2515310D1*
X1759676Y2508125D1*
Y2503371D1*
X1762052Y2496186D1*
X1766861Y2491433D1*
X1771614Y2489001D1*
X1778799D1*
X1783608Y2491433D1*
X1788361Y2496186D1*
X1790793Y2503371D1*
Y2508125D1*
X1788361Y2515310D1*
X1783608Y2520118D1*
X1778799Y2522495D1*
X1771614D1*
X1806232D2*
Y2489001D1*
Y2512933D2*
X1813417Y2520118D1*
X1818225Y2522495D1*
X1825355D1*
X1830164Y2520118D1*
X1832540Y2512933D1*
Y2489001D1*
Y2512933D2*
X1839725Y2520118D1*
X1844534Y2522495D1*
X1851663D1*
X1856472Y2520118D1*
X1858904Y2512933D1*
Y2489001D1*
X1946876Y2539241D2*
Y2500995D1*
X1944499Y2493810D1*
X1942067Y2491433D1*
X1937314Y2489001D1*
X1932506D1*
X1927752Y2491433D1*
X1925376Y2493810D1*
X1922944Y2500995D1*
Y2505748D1*
X1962315Y2508125D2*
X1991000D1*
Y2512933D1*
X1988623Y2517741D1*
X1986247Y2520118D1*
X1981438Y2522495D1*
X1974253D1*
X1969500Y2520118D1*
X1964691Y2515310D1*
X1962315Y2508125D1*
Y2503371D1*
X1964691Y2496186D1*
X1969500Y2491433D1*
X1974253Y2489001D1*
X1981438D1*
X1986247Y2491433D1*
X1991000Y2496186D1*
X2035124Y2539241D2*
Y2489001D1*
Y2515310D2*
X2030371Y2520118D1*
X2025562Y2522495D1*
X2018377D1*
X2013624Y2520118D1*
X2008816Y2515310D1*
X2006439Y2508125D1*
Y2503371D1*
X2008816Y2496186D1*
X2013624Y2491433D1*
X2018377Y2489001D1*
X2025562D1*
X2030371Y2491433D1*
X2035124Y2496186D1*
X2050563Y2539241D2*
X2052940Y2536865D1*
X2055372Y2539241D1*
X2052940Y2541673D1*
X2050563Y2539241D1*
X2052940Y2522495D2*
Y2489001D1*
X2109057D2*
Y2539241D1*
X2089934Y2489001D1*
X2070811Y2539241D1*
Y2489001D1*
X2153182Y2522495D2*
Y2489001D1*
Y2515310D2*
X2148428Y2520118D1*
X2143620Y2522495D1*
X2136490D1*
X2131682Y2520118D1*
X2126928Y2515310D1*
X2124497Y2508125D1*
Y2503371D1*
X2126928Y2496186D1*
X2131682Y2491433D1*
X2136490Y2489001D1*
X2143620D1*
X2148428Y2491433D1*
X2153182Y2496186D1*
X2175806Y2539241D2*
Y2498563D1*
X2178182Y2491433D1*
X2182991Y2489001D1*
X2187744D1*
X2168621Y2522495D2*
X2185367D1*
X2210368Y2539241D2*
Y2498563D1*
X2212745Y2491433D1*
X2217553Y2489001D1*
X2222307D1*
X2203183Y2522495D2*
X2219930D1*
X2261677Y2489001D2*
Y2539186D1*
X2237746Y2505748D1*
X2273616D1*
X2291487Y2527248D2*
Y2529624D1*
X2293863Y2534433D1*
X2296240Y2536809D1*
X2301048Y2539186D1*
X2310610D1*
X2315363Y2536809D1*
X2317740Y2534433D1*
X2320172Y2529624D1*
Y2524871D1*
X2317740Y2520063D1*
X2312987Y2512933D1*
X2289055Y2489001D1*
X2322548D1*
X2398527Y2522495D2*
X2393774Y2520118D1*
X2388965Y2515310D1*
X2386588Y2508125D1*
Y2503371D1*
X2388965Y2496186D1*
X2393774Y2491433D1*
X2398527Y2489001D1*
X2405712D1*
X2410520Y2491433D1*
X2415273Y2496186D1*
X2417705Y2503371D1*
Y2508125D1*
X2415273Y2515310D1*
X2410520Y2520118D1*
X2405712Y2522495D1*
X2398527D1*
X2433144D2*
Y2489001D1*
Y2512933D2*
X2440330Y2520118D1*
X2445138Y2522495D1*
X2452268D1*
X2457076Y2520118D1*
X2459453Y2512933D1*
Y2489001D1*
X2561795D2*
X2542616Y2539241D1*
X2523493Y2489001D1*
X2530678Y2505748D2*
X2554610D1*
X2584419Y2539241D2*
Y2498563D1*
X2586796Y2491433D1*
X2591604Y2489001D1*
X2596357D1*
X2577234Y2522495D2*
X2593981D1*
X2640481D2*
Y2489001D1*
Y2515310D2*
X2635728Y2520118D1*
X2630920Y2522495D1*
X2623790D1*
X2618982Y2520118D1*
X2614228Y2515310D1*
X2611797Y2508125D1*
Y2503371D1*
X2614228Y2496186D1*
X2618982Y2491433D1*
X2623790Y2489001D1*
X2630920D1*
X2635728Y2491433D1*
X2640481Y2496186D1*
X2655921Y2522495D2*
Y2489001D1*
Y2508125D2*
X2658353Y2515310D1*
X2663106Y2520118D1*
X2667914Y2522495D1*
X2675099D1*
X2690538Y2539241D2*
X2692915Y2536865D1*
X2695347Y2539241D1*
X2692915Y2541673D1*
X2690538Y2539241D1*
X2692915Y2522495D2*
Y2489001D1*
X2749088D2*
X2729909Y2539241D1*
X2710786Y2489001D1*
X2717971Y2505748D2*
X2741903D1*
X2793212Y2520118D2*
Y2481816D1*
X2790835Y2474686D1*
X2788459Y2472255D1*
X2783650Y2469878D1*
X2776465D1*
X2771712Y2472255D1*
X2793212Y2512933D2*
X2788459Y2517686D1*
X2783650Y2520118D1*
X2776465D1*
X2771712Y2517686D1*
X2766904Y2512933D1*
X2764527Y2505748D1*
Y2500940D1*
X2766904Y2493810D1*
X2771712Y2489001D1*
X2776465Y2486625D1*
X2783650D1*
X2788459Y2489001D1*
X2793212Y2493810D1*
X2808651Y2508125D2*
X2837336D1*
Y2512933D1*
X2834960Y2517741D1*
X2832583Y2520118D1*
X2827775Y2522495D1*
X2820590D1*
X2815836Y2520118D1*
X2811028Y2515310D1*
X2808651Y2508125D1*
Y2503371D1*
X2811028Y2496186D1*
X2815836Y2491433D1*
X2820590Y2489001D1*
X2827775D1*
X2832583Y2491433D1*
X2837336Y2496186D1*
X1297560Y2431464D2*
X1307121Y2397970D1*
X1316683Y2431464D1*
X1326245Y2397970D1*
X1335806Y2431464D1*
X1351246Y2448210D2*
X1353622Y2445834D1*
X1356054Y2448210D1*
X1353622Y2450642D1*
X1351246Y2448210D1*
X1353622Y2431464D2*
Y2397970D1*
X1378678Y2448210D2*
Y2407532D1*
X1381055Y2400402D1*
X1385863Y2397970D1*
X1390617D1*
X1371493Y2431464D2*
X1388240D1*
X1406056Y2448210D2*
Y2397970D1*
Y2421902D2*
X1413241Y2429087D1*
X1418049Y2431464D1*
X1425234D1*
X1429987Y2429087D1*
X1432364Y2421902D1*
Y2397970D1*
X1503589Y2448210D2*
Y2407532D1*
X1505966Y2400402D1*
X1510774Y2397970D1*
X1515528D1*
X1496404Y2431464D2*
X1513151D1*
X1530967Y2448210D2*
Y2397970D1*
Y2421902D2*
X1538152Y2429087D1*
X1542960Y2431464D1*
X1550145D1*
X1554899Y2429087D1*
X1557275Y2421902D1*
Y2397970D1*
X1601399Y2431464D2*
Y2397970D1*
Y2424279D2*
X1596646Y2429087D1*
X1591838Y2431464D1*
X1584708D1*
X1579899Y2429087D1*
X1575146Y2424279D1*
X1572714Y2417094D1*
Y2412341D1*
X1575146Y2405156D1*
X1579899Y2400402D1*
X1584708Y2397970D1*
X1591838D1*
X1596646Y2400402D1*
X1601399Y2405156D1*
X1616838Y2431464D2*
Y2397970D1*
Y2421902D2*
X1624024Y2429087D1*
X1628832Y2431464D1*
X1635962D1*
X1640770Y2429087D1*
X1643147Y2421902D1*
Y2397970D1*
X1658586Y2448210D2*
Y2397970D1*
X1682518Y2431464D2*
X1658586Y2407532D1*
X1668148Y2417094D2*
X1684894Y2397970D1*
X1726642Y2424279D2*
X1724265Y2429087D1*
X1717080Y2431464D1*
X1709895D1*
X1702710Y2429087D1*
X1700334Y2424279D1*
X1702710Y2419526D1*
X1707519Y2417094D1*
X1719457Y2414717D1*
X1724265Y2412341D1*
X1726642Y2407532D1*
Y2405156D1*
X1724265Y2400402D1*
X1717080Y2397970D1*
X1709895D1*
X1702710Y2400402D1*
X1700334Y2405156D1*
X1797867Y2448210D2*
Y2407532D1*
X1800244Y2400402D1*
X1805052Y2397970D1*
X1809805D1*
X1790682Y2431464D2*
X1807429D1*
X1837183D2*
X1832430Y2429087D1*
X1827621Y2424279D1*
X1825245Y2417094D1*
Y2412341D1*
X1827621Y2405156D1*
X1832430Y2400402D1*
X1837183Y2397970D1*
X1844368D1*
X1849176Y2400402D1*
X1853929Y2405156D1*
X1856361Y2412341D1*
Y2417094D1*
X1853929Y2424279D1*
X1849176Y2429087D1*
X1844368Y2431464D1*
X1837183D1*
X1920402Y2448210D2*
Y2397970D1*
X1937148D1*
X1944333Y2400402D1*
X1949142Y2405156D1*
X1951518Y2409964D1*
X1953895Y2417094D1*
Y2429087D1*
X1951518Y2436272D1*
X1949142Y2441025D1*
X1944333Y2445834D1*
X1937148Y2448210D1*
X1920402D1*
X1969334D2*
X1971711Y2445834D1*
X1974143Y2448210D1*
X1971711Y2450642D1*
X1969334Y2448210D1*
X1971711Y2431464D2*
Y2397970D1*
X1989582Y2431464D2*
Y2381224D1*
Y2424279D2*
X1994390Y2429032D1*
X1999143Y2431464D1*
X2006328D1*
X2011137Y2429032D1*
X2015890Y2424279D1*
X2018322Y2417094D1*
Y2412285D1*
X2015890Y2405156D1*
X2011137Y2400347D1*
X2006328Y2397970D1*
X1999143D1*
X1994390Y2400347D1*
X1989582Y2405156D1*
X2050508Y2448210D2*
Y2397970D1*
X2033761Y2448210D2*
X2067255D1*
X2082694Y2431464D2*
Y2397970D1*
Y2417094D2*
X2085126Y2424279D1*
X2089879Y2429087D1*
X2094687Y2431464D1*
X2101872D1*
X2145996D2*
Y2397970D1*
Y2424279D2*
X2141243Y2429087D1*
X2136435Y2431464D1*
X2129305D1*
X2124497Y2429087D1*
X2119743Y2424279D1*
X2117312Y2417094D1*
Y2412341D1*
X2119743Y2405156D1*
X2124497Y2400402D1*
X2129305Y2397970D1*
X2136435D1*
X2141243Y2400402D1*
X2145996Y2405156D1*
X2190176Y2424279D2*
X2185367Y2429087D1*
X2180559Y2431464D1*
X2173429D1*
X2168621Y2429087D1*
X2163868Y2424279D1*
X2161436Y2417094D1*
Y2412341D1*
X2163868Y2405156D1*
X2168621Y2400402D1*
X2173429Y2397970D1*
X2180559D1*
X2185367Y2400402D1*
X2190176Y2405156D1*
X2205615Y2417094D2*
X2234300D1*
Y2421902D1*
X2231923Y2426711D1*
X2229547Y2429087D1*
X2224738Y2431464D1*
X2217553D1*
X2212800Y2429087D1*
X2207992Y2424279D1*
X2205615Y2417094D1*
Y2412341D1*
X2207992Y2405156D1*
X2212800Y2400402D1*
X2217553Y2397970D1*
X2224738D1*
X2229547Y2400402D1*
X2234300Y2405156D1*
X2317463Y2448210D2*
X2312710D1*
X2307902Y2445834D1*
X2305525Y2438649D1*
Y2397970D1*
X2298340Y2431464D2*
X2315087D1*
X2344841D2*
X2340088Y2429087D1*
X2335279Y2424279D1*
X2332903Y2417094D1*
Y2412341D1*
X2335279Y2405156D1*
X2340088Y2400402D1*
X2344841Y2397970D1*
X2352026D1*
X2356834Y2400402D1*
X2361588Y2405156D1*
X2364019Y2412341D1*
Y2417094D1*
X2361588Y2424279D1*
X2356834Y2429087D1*
X2352026Y2431464D1*
X2344841D1*
X2379459D2*
Y2397970D1*
Y2417094D2*
X2381891Y2424279D1*
X2386644Y2429087D1*
X2391452Y2431464D1*
X2398637D1*
X2469863Y2448210D2*
Y2407532D1*
X2472239Y2400402D1*
X2477048Y2397970D1*
X2481801D1*
X2462677Y2431464D2*
X2479424D1*
X2497240Y2448210D2*
Y2397970D1*
Y2421902D2*
X2504425Y2429087D1*
X2509233Y2431464D1*
X2516418D1*
X2521172Y2429087D1*
X2523548Y2421902D1*
Y2397970D1*
X2538988Y2417094D2*
X2567672D1*
Y2421902D1*
X2565296Y2426711D1*
X2562919Y2429087D1*
X2558111Y2431464D1*
X2550926D1*
X2546173Y2429087D1*
X2541364Y2424279D1*
X2538988Y2417094D1*
Y2412341D1*
X2541364Y2405156D1*
X2546173Y2400402D1*
X2550926Y2397970D1*
X2558111D1*
X2562919Y2400402D1*
X2567672Y2405156D1*
X2631713Y2448210D2*
Y2397970D1*
Y2421902D2*
X2638898Y2429087D1*
X2643706Y2431464D1*
X2650891D1*
X2655644Y2429087D1*
X2658021Y2421902D1*
Y2397970D1*
X2685398Y2431464D2*
X2680645Y2429087D1*
X2675837Y2424279D1*
X2673460Y2417094D1*
Y2412341D1*
X2675837Y2405156D1*
X2680645Y2400402D1*
X2685398Y2397970D1*
X2692583D1*
X2697392Y2400402D1*
X2702145Y2405156D1*
X2704577Y2412341D1*
Y2417094D1*
X2702145Y2424279D1*
X2697392Y2429087D1*
X2692583Y2431464D1*
X2685398D1*
X2720016Y2448210D2*
Y2397970D1*
Y2424279D2*
X2724825Y2429087D1*
X2729578Y2431464D1*
X2736763D1*
X2741516Y2429087D1*
X2746324Y2424279D1*
X2748701Y2417094D1*
Y2412341D1*
X2746324Y2405156D1*
X2741516Y2400402D1*
X2736763Y2397970D1*
X2729578D1*
X2724825Y2400402D1*
X2720016Y2405156D1*
X2764140Y2448210D2*
Y2397970D1*
Y2424279D2*
X2768949Y2429087D1*
X2773702Y2431464D1*
X2780887D1*
X2785640Y2429087D1*
X2790449Y2424279D1*
X2792825Y2417094D1*
Y2412341D1*
X2790449Y2405156D1*
X2785640Y2400402D1*
X2780887Y2397970D1*
X2773702D1*
X2768949Y2400402D1*
X2764140Y2405156D1*
X2810696Y2431464D2*
X2825011Y2397970D1*
X2820258Y2388409D1*
X2815449Y2383600D1*
X2810696Y2381224D1*
X2808264D1*
X2839381Y2431464D2*
X2825011Y2397970D1*
X2854820Y2448210D2*
X2857197Y2445834D1*
X2859629Y2448210D1*
X2857197Y2450642D1*
X2854820Y2448210D1*
X2857197Y2431464D2*
Y2397970D1*
X2901376Y2424279D2*
X2899000Y2429087D1*
X2891815Y2431464D1*
X2884630D1*
X2877445Y2429087D1*
X2875068Y2424279D1*
X2877445Y2419526D1*
X2882253Y2417094D1*
X2894191Y2414717D1*
X2899000Y2412341D1*
X2901376Y2407532D1*
Y2405156D1*
X2899000Y2400402D1*
X2891815Y2397970D1*
X2884630D1*
X2877445Y2400402D1*
X2875068Y2405156D1*
X2924001Y2448210D2*
Y2407532D1*
X2926377Y2400402D1*
X2931186Y2397970D1*
X2935939D1*
X2916816Y2431464D2*
X2933562D1*
X2999979Y2448210D2*
Y2397970D1*
X3015418Y2448210D2*
X3017795Y2445834D1*
X3020227Y2448210D1*
X3017795Y2450642D1*
X3015418Y2448210D1*
X3017795Y2431464D2*
Y2397970D1*
X3064406Y2424279D2*
X3059598Y2429087D1*
X3054789Y2431464D1*
X3047660D1*
X3042851Y2429087D1*
X3038098Y2424279D1*
X3035666Y2417094D1*
Y2412341D1*
X3038098Y2405156D1*
X3042851Y2400402D1*
X3047660Y2397970D1*
X3054789D1*
X3059598Y2400402D1*
X3064406Y2405156D1*
X3079845Y2417094D2*
X3108530D1*
Y2421902D1*
X3106154Y2426711D1*
X3103777Y2429087D1*
X3098969Y2431464D1*
X3091784D1*
X3087031Y2429087D1*
X3082222Y2424279D1*
X3079845Y2417094D1*
Y2412341D1*
X3082222Y2405156D1*
X3087031Y2400402D1*
X3091784Y2397970D1*
X3098969D1*
X3103777Y2400402D1*
X3108530Y2405156D1*
X3123970Y2431464D2*
Y2397970D1*
Y2421902D2*
X3131155Y2429087D1*
X3135963Y2431464D1*
X3143093D1*
X3147901Y2429087D1*
X3150278Y2421902D1*
Y2397970D1*
X3192025Y2424279D2*
X3189649Y2429087D1*
X3182464Y2431464D1*
X3175279D1*
X3168094Y2429087D1*
X3165717Y2424279D1*
X3168094Y2419526D1*
X3172902Y2417094D1*
X3184840Y2414717D1*
X3189649Y2412341D1*
X3192025Y2407532D1*
Y2405156D1*
X3189649Y2400402D1*
X3182464Y2397970D1*
X3175279D1*
X3168094Y2400402D1*
X3165717Y2405156D1*
X3207465Y2417094D2*
X3236150D1*
Y2421902D1*
X3233773Y2426711D1*
X3231396Y2429087D1*
X3226588Y2431464D1*
X3219403D1*
X3214650Y2429087D1*
X3209841Y2424279D1*
X3207465Y2417094D1*
Y2412341D1*
X3209841Y2405156D1*
X3214650Y2400402D1*
X3219403Y2397970D1*
X3226588D1*
X3231396Y2400402D1*
X3236150Y2405156D1*
X3838862Y3794862D2*
D57*
X3841714Y3796288D1*
X3844599Y3799173D1*
X3846025Y3802025D1*
Y3807762D1*
X3844599Y3810647D1*
X3841714Y3813499D1*
X3838862Y3814958D1*
X3834551Y3816384D1*
X3827355D1*
X3823077Y3814958D1*
X3820192Y3813499D1*
X3817340Y3810647D1*
X3815881Y3807762D1*
Y3802025D1*
X3817340Y3799173D1*
X3820192Y3796288D1*
X3823077Y3794862D1*
X3827355D1*
Y3802025D1*
X3846025Y3765503D2*
X3815881D1*
X3846025Y3785599D1*
X3815881D1*
X3846025Y3756239D2*
X3815881D1*
Y3746191D1*
X3817340Y3741880D1*
X3820192Y3738995D1*
X3823077Y3737569D1*
X3827355Y3736143D1*
X3834551D1*
X3838862Y3737569D1*
X3841714Y3738995D1*
X3844599Y3741880D1*
X3846025Y3746191D1*
Y3756239D1*
X3732359Y3816384D2*
Y3803484D1*
X3733819Y3799173D1*
X3735244Y3797714D1*
X3738096Y3796288D1*
X3740981D1*
X3743833Y3797714D1*
X3745292Y3799173D1*
X3746718Y3803484D1*
Y3816384D1*
X3716574D1*
X3732359Y3806336D2*
X3716574Y3796288D1*
X3742407Y3766929D2*
X3745292Y3769780D1*
X3746718Y3774091D1*
Y3779828D1*
X3745292Y3784139D1*
X3742407Y3787025D1*
X3739556D1*
X3736670Y3785565D1*
X3735244Y3784139D1*
X3733819Y3781288D1*
X3730933Y3772666D1*
X3729508Y3769780D1*
X3728048Y3768355D1*
X3725196Y3766929D1*
X3720885D1*
X3718034Y3769780D1*
X3716574Y3774091D1*
Y3779828D1*
X3718034Y3784139D1*
X3720885Y3787025D1*
X3746718Y3747617D2*
X3716574D1*
X3746718Y3757665D2*
Y3737569D1*
Y3728305D2*
X3716574D1*
Y3718257D1*
X3718034Y3713946D1*
X3720885Y3711061D1*
X3723771Y3709635D1*
X3728048Y3708209D1*
X3735244D1*
X3739556Y3709635D1*
X3742407Y3711061D1*
X3745292Y3713946D1*
X3746718Y3718257D1*
Y3728305D1*
X3732359Y3698946D2*
Y3686046D1*
X3733819Y3681735D1*
X3735244Y3680276D1*
X3738096Y3678850D1*
X3740981D1*
X3743833Y3680276D1*
X3745292Y3681735D1*
X3746718Y3686046D1*
Y3698946D1*
X3716574D1*
X3732359Y3688898D2*
X3716574Y3678850D1*
X3746718Y3669586D2*
X3716574Y3658112D1*
X3746718Y3646638D1*
X3645240Y3803484D2*
X3619407D1*
X3632307Y3816384D2*
Y3790551D1*
X3647379Y3764077D2*
Y3778403D1*
X3634479Y3779828D1*
X3635905Y3778403D1*
X3637364Y3774091D1*
Y3769814D1*
X3635905Y3765503D1*
X3633053Y3762618D1*
X3628742Y3761192D1*
X3625890D1*
X3621579Y3762618D1*
X3618694Y3765503D1*
X3617268Y3769814D1*
Y3774091D1*
X3618694Y3778403D1*
X3620153Y3779828D1*
X3623005Y3781288D1*
X3647412Y3751928D2*
X3617268Y3740454D1*
X3647412Y3728980D1*
X3548106Y3816384D2*
X3517962D1*
X3533747Y3807121D2*
Y3794221D1*
X3535206Y3789910D1*
X3536632Y3788451D1*
X3539484Y3787025D1*
X3542369D1*
X3545221Y3788451D1*
X3546680Y3789910D1*
X3548106Y3794221D1*
Y3807121D1*
X3517962D1*
X3533747Y3797073D2*
X3517962Y3787025D1*
X3548106Y3769139D2*
X3546713Y3771991D1*
X3543828Y3774876D1*
X3540943Y3776302D1*
X3536632Y3777761D1*
X3529469D1*
X3525158Y3776302D1*
X3522306Y3774876D1*
X3519421Y3771991D1*
X3517995Y3769139D1*
Y3763402D1*
X3519421Y3760517D1*
X3522306Y3757665D1*
X3525158Y3756239D1*
X3529469Y3754780D1*
X3536632D1*
X3540943Y3756239D1*
X3543828Y3757665D1*
X3546713Y3760517D1*
X3548106Y3763402D1*
Y3769139D1*
X3523732Y3764828D2*
X3515110Y3756239D1*
X3540910Y3744057D2*
X3542336D1*
X3545221Y3742631D1*
X3546647Y3741205D1*
X3548073Y3738320D1*
Y3732583D1*
X3546647Y3729731D1*
X3545221Y3728305D1*
X3542336Y3726846D1*
X3539484D1*
X3536599Y3728305D1*
X3532321Y3731157D1*
X3517962Y3745516D1*
Y3725420D1*
X3433711Y3816384D2*
Y3799803D1*
X3448766Y3773329D2*
Y3787655D1*
X3435866Y3789081D1*
X3437292Y3787655D1*
X3438751Y3783344D1*
Y3779066D1*
X3437292Y3774755D1*
X3434440Y3771870D1*
X3430129Y3770444D1*
X3427277D1*
X3422966Y3771870D1*
X3420081Y3774755D1*
X3418655Y3779066D1*
Y3783344D1*
X3420081Y3787655D1*
X3421540Y3789081D1*
X3424392Y3790540D1*
X3448799Y3761180D2*
X3418655Y3749706D1*
X3448799Y3738232D1*
X3349493Y3816384D2*
X3319349D1*
Y3806336D1*
X3320808Y3802025D1*
X3323660Y3799140D1*
X3326545Y3797714D1*
X3330823Y3796288D1*
X3338019D1*
X3342330Y3797714D1*
X3345182Y3799140D1*
X3348067Y3802025D1*
X3349493Y3806336D1*
Y3816384D1*
X3335134Y3787025D2*
Y3774125D1*
X3336593Y3769814D1*
X3338019Y3768355D1*
X3340871Y3766929D1*
X3343756D1*
X3346608Y3768355D1*
X3348067Y3769814D1*
X3349493Y3774125D1*
Y3787025D1*
X3319349D1*
X3335134Y3776977D2*
X3319349Y3766929D1*
X3349493Y3749043D2*
X3348100Y3751895D1*
X3345215Y3754780D1*
X3342330Y3756206D1*
X3338019Y3757665D1*
X3330856D1*
X3326545Y3756206D1*
X3323693Y3754780D1*
X3320808Y3751895D1*
X3319382Y3749043D1*
Y3743306D1*
X3320808Y3740421D1*
X3323693Y3737569D1*
X3326545Y3736143D1*
X3330856Y3734684D1*
X3338019D1*
X3342330Y3736143D1*
X3345215Y3737569D1*
X3348100Y3740421D1*
X3349493Y3743306D1*
Y3749043D1*
X3325119Y3744732D2*
X3316497Y3736143D1*
X3342297Y3723961D2*
X3343723D1*
X3346608Y3722535D1*
X3348034Y3721109D1*
X3349460Y3718224D1*
Y3712487D1*
X3348034Y3709635D1*
X3346608Y3708209D1*
X3343723Y3706750D1*
X3340871D1*
X3337986Y3708209D1*
X3333708Y3711061D1*
X3319349Y3725420D1*
Y3705324D1*
X3235098Y3816384D2*
Y3799803D1*
X3244417Y3790540D2*
X3245876Y3787655D1*
X3250154Y3783344D1*
X3220043D1*
X3242991Y3772621D2*
X3244417D1*
X3247302Y3771195D1*
X3248728Y3769769D1*
X3250154Y3766884D1*
Y3761147D1*
X3248728Y3758295D1*
X3247302Y3756869D1*
X3244417Y3755410D1*
X3241565D1*
X3238680Y3756869D1*
X3234402Y3759721D1*
X3220043Y3774080D1*
Y3753984D1*
X3250187Y3744721D2*
X3220043Y3733247D1*
X3250187Y3721773D1*
X3136521Y3816384D2*
Y3803484D1*
X3137981Y3799173D1*
X3139406Y3797714D1*
X3142258Y3796288D1*
X3145143D1*
X3147995Y3797714D1*
X3149454Y3799173D1*
X3150880Y3803484D1*
Y3816384D1*
X3120736D1*
X3136521Y3806336D2*
X3120736Y3796288D1*
X3146569Y3766929D2*
X3149454Y3769780D1*
X3150880Y3774091D1*
Y3779828D1*
X3149454Y3784139D1*
X3146569Y3787025D1*
X3143717D1*
X3140832Y3785565D1*
X3139406Y3784139D1*
X3137981Y3781288D1*
X3135095Y3772666D1*
X3133669Y3769780D1*
X3132210Y3768355D1*
X3129358Y3766929D1*
X3125047D1*
X3122196Y3769780D1*
X3120736Y3774091D1*
Y3779828D1*
X3122196Y3784139D1*
X3125047Y3787025D1*
X3136521Y3757665D2*
Y3744765D1*
X3137981Y3740454D1*
X3139406Y3738995D1*
X3142258Y3737569D1*
X3145143D1*
X3147995Y3738995D1*
X3149454Y3740454D1*
X3150880Y3744765D1*
Y3757665D1*
X3120736D1*
X3136521Y3747617D2*
X3120736Y3737569D1*
X3150880Y3728305D2*
X3120736Y3716832D1*
X3150880Y3705358D1*
X3049402Y3803484D2*
X3023569D1*
X3036469Y3816384D2*
Y3790551D1*
X3045804Y3781288D2*
X3047263Y3778403D1*
X3051541Y3774091D1*
X3021430D1*
X3044378Y3763369D2*
X3045804D1*
X3048689Y3761943D1*
X3050115Y3760517D1*
X3051541Y3757632D1*
Y3751895D1*
X3050115Y3749043D1*
X3048689Y3747617D1*
X3045804Y3746158D1*
X3042952D1*
X3040067Y3747617D1*
X3035789Y3750469D1*
X3021430Y3764828D1*
Y3744732D1*
X3051574Y3735468D2*
X3021430Y3723994D1*
X3051574Y3712520D1*
X2945105Y3794862D2*
X2947957Y3796288D1*
X2950842Y3799173D1*
X2952268Y3802025D1*
Y3807762D1*
X2950842Y3810647D1*
X2947957Y3813499D1*
X2945105Y3814958D1*
X2940794Y3816384D1*
X2933598D1*
X2929320Y3814958D1*
X2926435Y3813499D1*
X2923583Y3810647D1*
X2922124Y3807762D1*
Y3802025D1*
X2923583Y3799173D1*
X2926435Y3796288D1*
X2929320Y3794862D1*
X2933598D1*
Y3802025D1*
X2952268Y3765503D2*
X2922124D1*
X2952268Y3785599D1*
X2922124D1*
X2952268Y3756239D2*
X2922124D1*
Y3746191D1*
X2923583Y3741880D1*
X2926435Y3738995D1*
X2929320Y3737569D1*
X2933598Y3736143D1*
X2940794D1*
X2945105Y3737569D1*
X2947957Y3738995D1*
X2950842Y3741880D1*
X2952268Y3746191D1*
Y3756239D1*
X2822817Y3793436D2*
X2852961D1*
X2822817Y3804910D1*
X2852961Y3816384D1*
X2822817D1*
X2852961Y3765536D2*
Y3784173D1*
X2822817D1*
Y3765536D1*
X2838602Y3784173D2*
Y3772699D1*
X2822817Y3733324D2*
X2852961D1*
X2822817Y3744798D1*
X2852961Y3756272D1*
X2822817D1*
X2852961Y3724061D2*
X2822817Y3716865D1*
X2852961Y3709702D1*
X2822817Y3702539D1*
X2852961Y3695343D1*
X2723511Y3793436D2*
X2753655D1*
X2723511Y3804910D1*
X2753655Y3816384D1*
X2723511D1*
X2753655Y3765536D2*
Y3784173D1*
X2723511D1*
Y3765536D1*
X2739296Y3784173D2*
Y3772699D1*
X2723511Y3733324D2*
X2753655D1*
X2723511Y3744798D1*
X2753655Y3756272D1*
X2723511D1*
X2739296Y3724061D2*
Y3711161D1*
X2740755Y3706850D1*
X2742181Y3705391D1*
X2745033Y3703965D1*
X2747918D1*
X2750770Y3705391D1*
X2752229Y3706850D1*
X2753655Y3711161D1*
Y3724061D1*
X2723511D1*
X2739296Y3714013D2*
X2723511Y3703965D1*
X2654349Y3816384D2*
X2624205D1*
X2654349Y3798499D2*
X2652923Y3801384D1*
X2650038Y3804235D1*
X2647186Y3805695D1*
X2642875Y3807121D1*
X2635679D1*
X2631401Y3805695D1*
X2628516Y3804235D1*
X2625664Y3801384D1*
X2624205Y3798499D1*
Y3792762D1*
X2625664Y3789910D1*
X2628516Y3787025D1*
X2631401Y3785599D1*
X2635679Y3784173D1*
X2642875D1*
X2647186Y3785599D1*
X2650038Y3787025D1*
X2652923Y3789910D1*
X2654349Y3792762D1*
Y3798499D1*
Y3774909D2*
X2624205Y3767713D1*
X2654349Y3760550D1*
X2624205Y3753387D1*
X2654349Y3746191D1*
X2555042Y3816384D2*
X2524898D1*
X2555042Y3798499D2*
X2553616Y3801384D1*
X2550731Y3804235D1*
X2547879Y3805695D1*
X2543568Y3807121D1*
X2536372D1*
X2532094Y3805695D1*
X2529209Y3804235D1*
X2526357Y3801384D1*
X2524898Y3798499D1*
Y3792762D1*
X2526357Y3789910D1*
X2529209Y3787025D1*
X2532094Y3785599D1*
X2536372Y3784173D1*
X2543568D1*
X2547879Y3785599D1*
X2550731Y3787025D1*
X2553616Y3789910D1*
X2555042Y3792762D1*
Y3798499D1*
X2540683Y3774909D2*
Y3762009D1*
X2542142Y3757698D1*
X2543568Y3756239D1*
X2546420Y3754813D1*
X2549305D1*
X2552157Y3756239D1*
X2553616Y3757698D1*
X2555042Y3762009D1*
Y3774909D1*
X2524898D1*
X2540683Y3764861D2*
X2524898Y3754813D1*
X2455736Y3816384D2*
X2425592D1*
Y3806336D1*
X2427051Y3802025D1*
X2429903Y3799140D1*
X2432788Y3797714D1*
X2437066Y3796288D1*
X2444262D1*
X2448573Y3797714D1*
X2451425Y3799140D1*
X2454310Y3802025D1*
X2455736Y3806336D1*
Y3816384D1*
X2425592Y3764043D2*
X2455736Y3775551D1*
X2425592Y3787025D1*
X2435640Y3782714D2*
Y3768355D1*
X2448573Y3733258D2*
X2451425Y3734684D1*
X2454310Y3737569D1*
X2455736Y3740421D1*
Y3746158D1*
X2454310Y3749043D1*
X2451425Y3751895D1*
X2448573Y3753354D1*
X2444262Y3754780D1*
X2437066D1*
X2432788Y3753354D1*
X2429903Y3751895D1*
X2427051Y3749043D1*
X2425592Y3746158D1*
Y3740421D1*
X2427051Y3737569D1*
X2429903Y3734684D1*
X2432788Y3733258D1*
X2455736Y3723994D2*
X2425592D1*
X2455736Y3703898D2*
X2435640Y3723994D1*
X2442836Y3716832D2*
X2425592Y3703898D1*
X2455703Y3691750D2*
Y3675998D1*
X2444229Y3684587D1*
Y3680276D1*
X2442803Y3677424D1*
X2441377Y3675998D1*
X2437066Y3674539D1*
X2434214D1*
X2429903Y3675998D1*
X2427018Y3678850D1*
X2425592Y3683161D1*
Y3687472D1*
X2427018Y3691750D1*
X2428477Y3693176D1*
X2431329Y3694635D1*
X2333525Y3816384D2*
X2303381D1*
Y3806336D1*
X2304840Y3802025D1*
X2307692Y3799140D1*
X2310577Y3797714D1*
X2314855Y3796288D1*
X2322051D1*
X2326362Y3797714D1*
X2329214Y3799140D1*
X2332099Y3802025D1*
X2333525Y3806336D1*
Y3816384D1*
X2319166Y3787025D2*
Y3774125D1*
X2320625Y3769814D1*
X2322051Y3768355D1*
X2324903Y3766929D1*
X2327788D1*
X2330640Y3768355D1*
X2332099Y3769814D1*
X2333525Y3774125D1*
Y3787025D1*
X2303381D1*
X2319166Y3776977D2*
X2303381Y3766929D1*
X2333525Y3749043D2*
X2332132Y3751895D1*
X2329247Y3754780D1*
X2326362Y3756206D1*
X2322051Y3757665D1*
X2314888D1*
X2310577Y3756206D1*
X2307725Y3754780D1*
X2304840Y3751895D1*
X2303414Y3749043D1*
Y3743306D1*
X2304840Y3740421D1*
X2307725Y3737569D1*
X2310577Y3736143D1*
X2314888Y3734684D1*
X2322051D1*
X2326362Y3736143D1*
X2329247Y3737569D1*
X2332132Y3740421D1*
X2333525Y3743306D1*
Y3749043D1*
X2309151Y3744732D2*
X2300529Y3736143D1*
X2333492Y3722535D2*
Y3706784D1*
X2322018Y3715372D1*
Y3711061D1*
X2320592Y3708209D1*
X2319166Y3706784D1*
X2314855Y3705324D1*
X2312003D1*
X2307692Y3706784D1*
X2304807Y3709635D1*
X2303381Y3713946D1*
Y3718257D1*
X2304807Y3722535D1*
X2306266Y3723961D1*
X2309118Y3725420D1*
X2234218Y3816384D2*
X2204074D1*
Y3806336D1*
X2205534Y3802025D1*
X2208385Y3799140D1*
X2211271Y3797714D1*
X2215548Y3796288D1*
X2222744D1*
X2227056Y3797714D1*
X2229907Y3799140D1*
X2232792Y3802025D1*
X2234218Y3806336D1*
Y3816384D1*
X2204074Y3764043D2*
X2234218Y3775551D1*
X2204074Y3787025D1*
X2214122Y3782714D2*
Y3768355D1*
X2227056Y3733258D2*
X2229907Y3734684D1*
X2232792Y3737569D1*
X2234218Y3740421D1*
Y3746158D1*
X2232792Y3749043D1*
X2229907Y3751895D1*
X2227056Y3753354D1*
X2222744Y3754780D1*
X2215548D1*
X2211271Y3753354D1*
X2208385Y3751895D1*
X2205534Y3749043D1*
X2204074Y3746158D1*
Y3740421D1*
X2205534Y3737569D1*
X2208385Y3734684D1*
X2211271Y3733258D1*
X2234218Y3723994D2*
X2204074D1*
X2234218Y3703898D2*
X2214122Y3723994D1*
X2221319Y3716832D2*
X2204074Y3703898D1*
X2228448Y3694635D2*
X2229907Y3691750D1*
X2234185Y3687439D1*
X2204074D1*
X2134912Y3816384D2*
X2104768D1*
Y3806336D1*
X2106227Y3802025D1*
X2109079Y3799140D1*
X2111964Y3797714D1*
X2116242Y3796288D1*
X2123438D1*
X2127749Y3797714D1*
X2130601Y3799140D1*
X2133486Y3802025D1*
X2134912Y3806336D1*
Y3816384D1*
X2120553Y3787025D2*
Y3774125D1*
X2122012Y3769814D1*
X2123438Y3768355D1*
X2126290Y3766929D1*
X2129175D1*
X2132027Y3768355D1*
X2133486Y3769814D1*
X2134912Y3774125D1*
Y3787025D1*
X2104768D1*
X2120553Y3776977D2*
X2104768Y3766929D1*
X2134912Y3749043D2*
X2133519Y3751895D1*
X2130634Y3754780D1*
X2127749Y3756206D1*
X2123438Y3757665D1*
X2116275D1*
X2111964Y3756206D1*
X2109112Y3754780D1*
X2106227Y3751895D1*
X2104801Y3749043D1*
Y3743306D1*
X2106227Y3740421D1*
X2109112Y3737569D1*
X2111964Y3736143D1*
X2116275Y3734684D1*
X2123438D1*
X2127749Y3736143D1*
X2130634Y3737569D1*
X2133519Y3740421D1*
X2134912Y3743306D1*
Y3749043D1*
X2110538Y3744732D2*
X2101916Y3736143D1*
X2129142Y3725420D2*
X2130601Y3722535D1*
X2134879Y3718224D1*
X2104768D1*
X2035606Y3816384D2*
X2005462D1*
Y3806336D1*
X2006921Y3802025D1*
X2009773Y3799140D1*
X2012658Y3797714D1*
X2016936Y3796288D1*
X2024132D1*
X2028443Y3797714D1*
X2031295Y3799140D1*
X2034180Y3802025D1*
X2035606Y3806336D1*
Y3816384D1*
X2005462Y3764043D2*
X2035606Y3775551D1*
X2005462Y3787025D1*
X2015510Y3782714D2*
Y3768355D1*
X2028443Y3733258D2*
X2031295Y3734684D1*
X2034180Y3737569D1*
X2035606Y3740421D1*
Y3746158D1*
X2034180Y3749043D1*
X2031295Y3751895D1*
X2028443Y3753354D1*
X2024132Y3754780D1*
X2016936D1*
X2012658Y3753354D1*
X2009773Y3751895D1*
X2006921Y3749043D1*
X2005462Y3746158D1*
Y3740421D1*
X2006921Y3737569D1*
X2009773Y3734684D1*
X2012658Y3733258D1*
X2035606Y3723994D2*
X2005462D1*
X2035606Y3703898D2*
X2015510Y3723994D1*
X2022706Y3716832D2*
X2005462Y3703898D1*
X2035573Y3686013D2*
X2034147Y3690324D1*
X2029836Y3693209D1*
X2022673Y3694635D1*
X2018362D1*
X2011199Y3693209D1*
X2006888Y3690324D1*
X2005462Y3686013D1*
Y3683161D1*
X2006888Y3678850D1*
X2011199Y3675998D1*
X2018362Y3674539D1*
X2022673D1*
X2029836Y3675998D1*
X2034147Y3678850D1*
X2035573Y3683161D1*
Y3686013D1*
X2029836Y3675998D2*
X2011199Y3693209D1*
X1929136Y3794862D2*
X1931988Y3796288D1*
X1934873Y3799173D1*
X1936299Y3802025D1*
Y3807762D1*
X1934873Y3810647D1*
X1931988Y3813499D1*
X1929136Y3814958D1*
X1924825Y3816384D1*
X1917629D1*
X1913352Y3814958D1*
X1910466Y3813499D1*
X1907615Y3810647D1*
X1906155Y3807762D1*
Y3802025D1*
X1907615Y3799173D1*
X1910466Y3796288D1*
X1913352Y3794862D1*
X1936299Y3785599D2*
X1906155D1*
Y3768388D1*
X1936299Y3750502D2*
X1934873Y3753387D1*
X1931988Y3756239D1*
X1929136Y3757698D1*
X1924825Y3759124D1*
X1917629D1*
X1913352Y3757698D1*
X1910466Y3756239D1*
X1907615Y3753387D1*
X1906155Y3750502D1*
Y3744765D1*
X1907615Y3741913D1*
X1910466Y3739028D1*
X1913352Y3737602D1*
X1917629Y3736176D1*
X1924825D1*
X1929136Y3737602D1*
X1931988Y3739028D1*
X1934873Y3741913D1*
X1936299Y3744765D1*
Y3750502D1*
X1929136Y3705391D2*
X1931988Y3706817D1*
X1934873Y3709702D1*
X1936299Y3712554D1*
Y3718291D1*
X1934873Y3721176D1*
X1931988Y3724028D1*
X1929136Y3725487D1*
X1924825Y3726913D1*
X1917629D1*
X1913352Y3725487D1*
X1910466Y3724028D1*
X1907615Y3721176D1*
X1906155Y3718291D1*
Y3712554D1*
X1907615Y3709702D1*
X1910466Y3706817D1*
X1913352Y3705391D1*
X1936299Y3696127D2*
X1906155D1*
X1936299Y3676031D2*
X1916203Y3696127D1*
X1923400Y3688964D2*
X1906155Y3676031D1*
X1836993Y3816384D2*
X1806849D1*
X1822634Y3807121D2*
Y3794221D1*
X1824093Y3789910D1*
X1825519Y3788451D1*
X1828371Y3787025D1*
X1831256D1*
X1834108Y3788451D1*
X1835567Y3789910D1*
X1836993Y3794221D1*
Y3807121D1*
X1806849D1*
X1822634Y3797073D2*
X1806849Y3787025D1*
X1836993Y3769139D2*
X1835600Y3771991D1*
X1832715Y3774876D1*
X1829830Y3776302D1*
X1825519Y3777761D1*
X1818356D1*
X1814045Y3776302D1*
X1811193Y3774876D1*
X1808308Y3771991D1*
X1806882Y3769139D1*
Y3763402D1*
X1808308Y3760517D1*
X1811193Y3757665D1*
X1814045Y3756239D1*
X1818356Y3754780D1*
X1825519D1*
X1829830Y3756239D1*
X1832715Y3757665D1*
X1835600Y3760517D1*
X1836993Y3763402D1*
Y3769139D1*
X1812619Y3764828D2*
X1803997Y3756239D1*
X1806849Y3739779D2*
X1836960Y3725420D1*
Y3745516D1*
X1737687Y3816384D2*
X1707543D1*
X1723328Y3807121D2*
Y3794221D1*
X1724787Y3789910D1*
X1726213Y3788451D1*
X1729065Y3787025D1*
X1731950D1*
X1734802Y3788451D1*
X1736261Y3789910D1*
X1737687Y3794221D1*
Y3807121D1*
X1707543D1*
X1723328Y3797073D2*
X1707543Y3787025D1*
X1730524Y3756239D2*
X1733376Y3757665D1*
X1736261Y3760550D1*
X1737687Y3763402D1*
Y3769139D1*
X1736261Y3772024D1*
X1733376Y3774876D1*
X1730524Y3776335D1*
X1726213Y3777761D1*
X1719017D1*
X1714739Y3776335D1*
X1711854Y3774876D1*
X1709002Y3772024D1*
X1707543Y3769139D1*
Y3763402D1*
X1709002Y3760550D1*
X1711854Y3757665D1*
X1714739Y3756239D1*
X1733376Y3729765D2*
X1736228Y3731191D1*
X1737654Y3735502D1*
Y3738353D1*
X1736228Y3742664D1*
X1731917Y3745550D1*
X1724754Y3746976D1*
X1717591D1*
X1711854Y3745550D1*
X1708969Y3742664D1*
X1707543Y3738353D1*
Y3736928D1*
X1708969Y3732650D1*
X1711854Y3729765D1*
X1716165Y3728339D1*
X1717591D1*
X1721902Y3729765D1*
X1724754Y3732650D1*
X1726180Y3736928D1*
Y3738353D1*
X1724754Y3742664D1*
X1721902Y3745550D1*
X1717591Y3746976D1*
X1638380Y3816384D2*
X1608236D1*
X1624021Y3807121D2*
Y3794221D1*
X1625481Y3789910D1*
X1626906Y3788451D1*
X1629758Y3787025D1*
X1632643D1*
X1635495Y3788451D1*
X1636954Y3789910D1*
X1638380Y3794221D1*
Y3807121D1*
X1608236D1*
X1624021Y3797073D2*
X1608236Y3787025D1*
X1638380Y3769139D2*
X1636988Y3771991D1*
X1634103Y3774876D1*
X1631217Y3776302D1*
X1626906Y3777761D1*
X1619744D1*
X1615433Y3776302D1*
X1612581Y3774876D1*
X1609696Y3771991D1*
X1608270Y3769139D1*
Y3763402D1*
X1609696Y3760517D1*
X1612581Y3757665D1*
X1615433Y3756239D1*
X1619744Y3754780D1*
X1626906D1*
X1631217Y3756239D1*
X1634103Y3757665D1*
X1636988Y3760517D1*
X1638380Y3763402D1*
Y3769139D1*
X1614007Y3764828D2*
X1605384Y3756239D1*
X1638347Y3728305D2*
Y3742631D1*
X1625447Y3744057D1*
X1626873Y3742631D1*
X1628332Y3738320D1*
Y3734042D1*
X1626873Y3729731D1*
X1624021Y3726846D1*
X1619710Y3725420D1*
X1616858D1*
X1612547Y3726846D1*
X1609662Y3729731D1*
X1608236Y3734042D1*
Y3738320D1*
X1609662Y3742631D1*
X1611121Y3744057D1*
X1613973Y3745516D1*
X1539074Y3816384D2*
X1508930D1*
X1524715Y3807121D2*
Y3794221D1*
X1526174Y3789910D1*
X1527600Y3788451D1*
X1530452Y3787025D1*
X1533337D1*
X1536189Y3788451D1*
X1537648Y3789910D1*
X1539074Y3794221D1*
Y3807121D1*
X1508930D1*
X1524715Y3797073D2*
X1508930Y3787025D1*
X1539074Y3769139D2*
X1537681Y3771991D1*
X1534796Y3774876D1*
X1531911Y3776302D1*
X1527600Y3777761D1*
X1520437D1*
X1516126Y3776302D1*
X1513274Y3774876D1*
X1510389Y3771991D1*
X1508963Y3769139D1*
Y3763402D1*
X1510389Y3760517D1*
X1513274Y3757665D1*
X1516126Y3756239D1*
X1520437Y3754780D1*
X1527600D1*
X1531911Y3756239D1*
X1534796Y3757665D1*
X1537681Y3760517D1*
X1539074Y3763402D1*
Y3769139D1*
X1514700Y3764828D2*
X1506078Y3756239D1*
X1508930Y3731157D2*
X1539041D1*
X1518978Y3745516D1*
Y3723994D1*
X1439768Y3816384D2*
X1409624D1*
X1425409Y3807121D2*
Y3794221D1*
X1426868Y3789910D1*
X1428294Y3788451D1*
X1431146Y3787025D1*
X1434031D1*
X1436883Y3788451D1*
X1438342Y3789910D1*
X1439768Y3794221D1*
Y3807121D1*
X1409624D1*
X1425409Y3797073D2*
X1409624Y3787025D1*
X1439768Y3769139D2*
X1438375Y3771991D1*
X1435490Y3774876D1*
X1432605Y3776302D1*
X1428294Y3777761D1*
X1421131D1*
X1416820Y3776302D1*
X1413968Y3774876D1*
X1411083Y3771991D1*
X1409657Y3769139D1*
Y3763402D1*
X1411083Y3760517D1*
X1413968Y3757665D1*
X1416820Y3756239D1*
X1421131Y3754780D1*
X1428294D1*
X1432605Y3756239D1*
X1435490Y3757665D1*
X1438375Y3760517D1*
X1439768Y3763402D1*
Y3769139D1*
X1415394Y3764828D2*
X1406772Y3756239D1*
X1439735Y3742631D2*
Y3726880D1*
X1428261Y3735468D1*
Y3731157D1*
X1426835Y3728305D1*
X1425409Y3726880D1*
X1421098Y3725420D1*
X1418246D1*
X1413935Y3726880D1*
X1411050Y3729731D1*
X1409624Y3734042D1*
Y3738353D1*
X1411050Y3742631D1*
X1412509Y3744057D1*
X1415361Y3745516D1*
X1340461Y3816384D2*
X1310317D1*
Y3806336D1*
X1311777Y3802025D1*
X1314628Y3799140D1*
X1317513Y3797714D1*
X1321791Y3796288D1*
X1328987D1*
X1333298Y3797714D1*
X1336150Y3799140D1*
X1339035Y3802025D1*
X1340461Y3806336D1*
Y3816384D1*
X1310317Y3764043D2*
X1340461Y3775551D1*
X1310317Y3787025D1*
X1320365Y3782714D2*
Y3768355D1*
X1333298Y3733258D2*
X1336150Y3734684D1*
X1339035Y3737569D1*
X1340461Y3740421D1*
Y3746158D1*
X1339035Y3749043D1*
X1336150Y3751895D1*
X1333298Y3753354D1*
X1328987Y3754780D1*
X1321791D1*
X1317513Y3753354D1*
X1314628Y3751895D1*
X1311777Y3749043D1*
X1310317Y3746158D1*
Y3740421D1*
X1311777Y3737569D1*
X1314628Y3734684D1*
X1317513Y3733258D1*
X1340461Y3723994D2*
X1310317D1*
X1340461Y3703898D2*
X1320365Y3723994D1*
X1327561Y3716832D2*
X1310317Y3703898D1*
X1333265Y3693176D2*
X1334691D1*
X1337576Y3691750D1*
X1339002Y3690324D1*
X1340428Y3687439D1*
Y3681702D1*
X1339002Y3678850D1*
X1337576Y3677424D1*
X1334691Y3675965D1*
X1331839D1*
X1328954Y3677424D1*
X1324676Y3680276D1*
X1310317Y3694635D1*
Y3674539D1*
X1241155Y3806336D2*
X1211011D1*
X1241155Y3816384D2*
Y3796288D1*
X1211011Y3787025D2*
X1241122Y3766929D1*
X1233992Y3736143D2*
X1236844Y3737569D1*
X1239729Y3740454D1*
X1241155Y3743306D1*
Y3749043D1*
X1239729Y3751928D1*
X1236844Y3754780D1*
X1233992Y3756239D1*
X1229681Y3757665D1*
X1222485D1*
X1218207Y3756239D1*
X1215322Y3754780D1*
X1212470Y3751928D1*
X1211011Y3749043D1*
Y3743306D1*
X1212470Y3740454D1*
X1215322Y3737569D1*
X1218207Y3736143D1*
X1111705Y3793403D2*
X1141849Y3804910D1*
X1111705Y3816384D1*
X1121753Y3812073D2*
Y3797714D1*
X1141849Y3784139D2*
X1111705D1*
Y3766929D1*
X1141849Y3739028D2*
Y3757665D1*
X1111705D1*
Y3739028D1*
X1127490Y3757665D2*
Y3746191D1*
X1040370Y3803484D2*
X1014537D1*
X1027437Y3816384D2*
Y3790551D1*
X1042509Y3764077D2*
Y3778403D1*
X1029609Y3779828D1*
X1031035Y3778403D1*
X1032494Y3774091D1*
Y3769814D1*
X1031035Y3765503D1*
X1028183Y3762618D1*
X1023872Y3761192D1*
X1021020D1*
X1016709Y3762618D1*
X1013824Y3765503D1*
X1012398Y3769814D1*
Y3774091D1*
X1013824Y3778403D1*
X1015283Y3779828D1*
X1018135Y3781288D1*
X1042542Y3751928D2*
X1012398Y3740454D1*
X1042542Y3728980D1*
X943236Y3807762D2*
X941810Y3810647D1*
X938925Y3813499D1*
X936073Y3814958D1*
X931762Y3816384D1*
X924566D1*
X920288Y3814958D1*
X917403Y3813499D1*
X914551Y3810647D1*
X913092Y3807762D1*
Y3802025D1*
X914551Y3799173D1*
X917403Y3796288D1*
X920288Y3794862D1*
X924566Y3793436D1*
X931762D1*
X936073Y3794862D1*
X938925Y3796288D1*
X941810Y3799173D1*
X943236Y3802025D1*
Y3807762D1*
X938925Y3764077D2*
X941810Y3766929D1*
X943236Y3771240D1*
Y3776977D1*
X941810Y3781288D1*
X938925Y3784173D1*
X936073D1*
X933188Y3782714D1*
X931762Y3781288D1*
X930336Y3778436D1*
X927451Y3769814D1*
X926025Y3766929D1*
X924566Y3765503D1*
X921714Y3764077D1*
X917403D1*
X914551Y3766929D1*
X913092Y3771240D1*
Y3776977D1*
X914551Y3781288D1*
X917403Y3784173D1*
X936073Y3733291D2*
X938925Y3734717D1*
X941810Y3737602D1*
X943236Y3740454D1*
Y3746191D1*
X941810Y3749076D1*
X938925Y3751928D1*
X936073Y3753387D1*
X931762Y3754813D1*
X924566D1*
X920288Y3753387D1*
X917403Y3751928D1*
X914551Y3749076D1*
X913092Y3746191D1*
Y3740454D1*
X914551Y3737602D1*
X917403Y3734717D1*
X920288Y3733291D1*
X836767Y3794862D2*
X839619Y3796288D1*
X842504Y3799173D1*
X843930Y3802025D1*
Y3807762D1*
X842504Y3810647D1*
X839619Y3813499D1*
X836767Y3814958D1*
X832456Y3816384D1*
X825260D1*
X820982Y3814958D1*
X818097Y3813499D1*
X815245Y3810647D1*
X813786Y3807762D1*
Y3802025D1*
X815245Y3799173D1*
X818097Y3796288D1*
X820982Y3794862D1*
X825260D1*
Y3802025D1*
X843930Y3765503D2*
X813786D1*
X843930Y3785599D1*
X813786D1*
X843930Y3756239D2*
X813786D1*
Y3746191D1*
X815245Y3741880D1*
X818097Y3738995D1*
X820982Y3737569D1*
X825260Y3736143D1*
X832456D1*
X836767Y3737569D1*
X839619Y3738995D1*
X842504Y3741880D1*
X843930Y3746191D1*
Y3756239D1*
X3746025Y3991384D2*
X3715881D1*
Y3981336D1*
X3717340Y3977025D1*
X3720192Y3974140D1*
X3723077Y3972714D1*
X3727355Y3971288D1*
X3734551D1*
X3738862Y3972714D1*
X3741714Y3974140D1*
X3744599Y3977025D1*
X3746025Y3981336D1*
Y3991384D1*
X3715881Y3956288D2*
X3745992Y3941929D1*
Y3962025D1*
X3646718Y3991384D2*
X3616574D1*
Y3981336D1*
X3618034Y3977025D1*
X3620885Y3974140D1*
X3623771Y3972714D1*
X3628048Y3971288D1*
X3635244D1*
X3639556Y3972714D1*
X3642407Y3974140D1*
X3645292Y3977025D1*
X3646718Y3981336D1*
Y3991384D1*
X3642407Y3944814D2*
X3645259Y3946240D1*
X3646685Y3950551D1*
Y3953403D1*
X3645259Y3957714D1*
X3640948Y3960599D1*
X3633785Y3962025D1*
X3626622D1*
X3620885Y3960599D1*
X3618000Y3957714D1*
X3616574Y3953403D1*
Y3951977D1*
X3618000Y3947699D1*
X3620885Y3944814D1*
X3625196Y3943388D1*
X3626622D1*
X3630933Y3944814D1*
X3633785Y3947699D1*
X3635211Y3951977D1*
Y3953403D1*
X3633785Y3957714D1*
X3630933Y3960599D1*
X3626622Y3962025D1*
X3547412Y3991384D2*
X3517268D1*
Y3981336D1*
X3518727Y3977025D1*
X3521579Y3974140D1*
X3524464Y3972714D1*
X3528742Y3971288D1*
X3535938D1*
X3540249Y3972714D1*
X3543101Y3974140D1*
X3545986Y3977025D1*
X3547412Y3981336D1*
Y3991384D1*
X3547379Y3944814D2*
Y3959139D1*
X3534479Y3960565D1*
X3535905Y3959139D1*
X3537364Y3954828D1*
Y3950551D1*
X3535905Y3946240D1*
X3533053Y3943355D1*
X3528742Y3941929D1*
X3525890D1*
X3521579Y3943355D1*
X3518694Y3946240D1*
X3517268Y3950551D1*
Y3954828D1*
X3518694Y3959139D1*
X3520153Y3960565D1*
X3523005Y3962025D1*
X3448106Y3991384D2*
X3417962D1*
Y3981336D1*
X3419421Y3977025D1*
X3422273Y3974140D1*
X3425158Y3972714D1*
X3429436Y3971288D1*
X3436632D1*
X3440943Y3972714D1*
X3443795Y3974140D1*
X3446680Y3977025D1*
X3448106Y3981336D1*
Y3991384D1*
X3417962Y3947666D2*
X3448073D1*
X3428010Y3962025D1*
Y3940503D1*
X3348799Y3991384D2*
X3318655D1*
Y3981336D1*
X3320115Y3977025D1*
X3322966Y3974140D1*
X3325852Y3972714D1*
X3330129Y3971288D1*
X3337325D1*
X3341636Y3972714D1*
X3344488Y3974140D1*
X3347373Y3977025D1*
X3348799Y3981336D1*
Y3991384D1*
X3348766Y3959139D2*
Y3943388D1*
X3337292Y3951977D1*
Y3947666D1*
X3335866Y3944814D1*
X3334440Y3943388D1*
X3330129Y3941929D1*
X3327277D1*
X3322966Y3943388D1*
X3320081Y3946240D1*
X3318655Y3950551D1*
Y3954862D1*
X3320081Y3959139D1*
X3321540Y3960565D1*
X3324392Y3962025D1*
X3249493Y3991384D2*
X3219349D1*
Y3981336D1*
X3220808Y3977025D1*
X3223660Y3974140D1*
X3226545Y3972714D1*
X3230823Y3971288D1*
X3238019D1*
X3242330Y3972714D1*
X3245182Y3974140D1*
X3248067Y3977025D1*
X3249493Y3981336D1*
Y3991384D1*
X3242297Y3960565D2*
X3243723D1*
X3246608Y3959139D1*
X3248034Y3957714D1*
X3249460Y3954828D1*
Y3949091D1*
X3248034Y3946240D1*
X3246608Y3944814D1*
X3243723Y3943355D1*
X3240871D1*
X3237986Y3944814D1*
X3233708Y3947666D1*
X3219349Y3962025D1*
Y3941929D1*
X3150187Y3991384D2*
X3120043D1*
Y3981336D1*
X3121502Y3977025D1*
X3124354Y3974140D1*
X3127239Y3972714D1*
X3131517Y3971288D1*
X3138713D1*
X3143024Y3972714D1*
X3145876Y3974140D1*
X3148761Y3977025D1*
X3150187Y3981336D1*
Y3991384D1*
X3144417Y3962025D2*
X3145876Y3959139D1*
X3150154Y3954828D1*
X3120043D1*
X3050880Y3991384D2*
X3020736D1*
Y3981336D1*
X3022196Y3977025D1*
X3025047Y3974140D1*
X3027933Y3972714D1*
X3032210Y3971288D1*
X3039406D1*
X3043717Y3972714D1*
X3046569Y3974140D1*
X3049454Y3977025D1*
X3050880Y3981336D1*
Y3991384D1*
X3050847Y3953403D2*
X3049421Y3957714D1*
X3045110Y3960599D1*
X3037947Y3962025D1*
X3033636D1*
X3026473Y3960599D1*
X3022162Y3957714D1*
X3020736Y3953403D1*
Y3950551D1*
X3022162Y3946240D1*
X3026473Y3943388D1*
X3033636Y3941929D1*
X3037947D1*
X3045110Y3943388D1*
X3049421Y3946240D1*
X3050847Y3950551D1*
Y3953403D1*
X3045110Y3943388D2*
X3026473Y3960599D1*
X3001227Y3991384D2*
X2971083D1*
X3001227Y3973499D2*
X2999801Y3976384D1*
X2996916Y3979235D1*
X2994064Y3980695D1*
X2989753Y3982121D1*
X2982557D1*
X2978279Y3980695D1*
X2975394Y3979235D1*
X2972542Y3976384D1*
X2971083Y3973499D1*
Y3967762D1*
X2972542Y3964910D1*
X2975394Y3962025D1*
X2978279Y3960599D1*
X2982557Y3959173D1*
X2989753D1*
X2994064Y3960599D1*
X2996916Y3962025D1*
X2999801Y3964910D1*
X3001227Y3967762D1*
Y3973499D1*
X2944411Y3969862D2*
X2947263Y3971288D1*
X2950148Y3974173D1*
X2951574Y3977025D1*
Y3982762D1*
X2950148Y3985647D1*
X2947263Y3988499D1*
X2944411Y3989958D1*
X2940100Y3991384D1*
X2932904D1*
X2928626Y3989958D1*
X2925741Y3988499D1*
X2922889Y3985647D1*
X2921430Y3982762D1*
Y3977025D1*
X2922889Y3974173D1*
X2925741Y3971288D1*
X2928626Y3969862D1*
X2951574Y3960599D2*
X2921430D1*
X2951574Y3940503D2*
X2921430D1*
X2937215Y3960599D2*
Y3940503D1*
X2887562Y3991384D2*
Y3978484D1*
X2889021Y3974173D1*
X2890447Y3972714D1*
X2893299Y3971288D1*
X2896184D1*
X2899036Y3972714D1*
X2900495Y3974173D1*
X2901921Y3978484D1*
Y3991384D1*
X2871777D1*
X2887562Y3981336D2*
X2871777Y3971288D1*
X2901921Y3962025D2*
X2871777D1*
Y3951977D1*
X2873236Y3947666D1*
X2876088Y3944780D1*
X2878973Y3943355D1*
X2883251Y3941929D1*
X2890447D1*
X2894758Y3943355D1*
X2897610Y3944780D1*
X2900495Y3947666D1*
X2901921Y3951977D1*
Y3962025D1*
Y3932665D2*
X2887562Y3921191D1*
X2871777D1*
X2901921Y3909717D2*
X2887562Y3921191D1*
X2822124Y3968403D2*
X2852268Y3979910D1*
X2822124Y3991384D1*
X2832172Y3987073D2*
Y3972714D1*
X2852268Y3940503D2*
Y3959139D1*
X2822124D1*
Y3940503D1*
X2837909Y3959139D2*
Y3947666D1*
X2852268Y3911143D2*
X2822124D1*
X2852268Y3931239D1*
X2822124D1*
X2722817Y3968403D2*
X2752961Y3979910D1*
X2722817Y3991384D1*
X2732865Y3987073D2*
Y3972714D1*
X2747191Y3959139D2*
X2748650Y3956254D1*
X2752928Y3951943D1*
X2722817D1*
X2742913Y3924010D2*
X2738602Y3925469D1*
X2735717Y3928321D1*
X2734291Y3932632D1*
Y3934058D1*
X2735717Y3938369D1*
X2738602Y3941221D1*
X2742913Y3942680D1*
X2744339D1*
X2748650Y3941221D1*
X2751502Y3938369D1*
X2752928Y3934058D1*
Y3932632D1*
X2751502Y3928321D1*
X2748650Y3925469D1*
X2742913Y3924010D1*
X2735717D1*
X2728554Y3925469D1*
X2724243Y3928321D1*
X2722817Y3932632D1*
Y3935484D1*
X2724243Y3939795D1*
X2727128Y3941221D1*
X2623511Y3968403D2*
X2653655Y3979910D1*
X2623511Y3991384D1*
X2633559Y3987073D2*
Y3972714D1*
X2647885Y3959139D2*
X2649344Y3956254D1*
X2653622Y3951943D1*
X2623511D1*
X2653622Y3935517D2*
X2652196Y3939795D1*
X2649344Y3941254D1*
X2646459D1*
X2643607Y3939795D1*
X2642148Y3936943D1*
X2640722Y3931206D1*
X2639296Y3926895D1*
X2636411Y3924043D1*
X2633559Y3922617D1*
X2629248D1*
X2626396Y3924043D1*
X2624937Y3925469D1*
X2623511Y3929780D1*
Y3935517D1*
X2624937Y3939795D1*
X2626396Y3941254D1*
X2629248Y3942680D1*
X2633559D1*
X2636411Y3941254D1*
X2639296Y3938369D1*
X2640722Y3934091D1*
X2642148Y3928354D1*
X2643607Y3925469D1*
X2646459Y3924043D1*
X2649344D1*
X2652196Y3925469D1*
X2653622Y3929780D1*
Y3935517D1*
X2524205Y3968403D2*
X2554349Y3979910D1*
X2524205Y3991384D1*
X2534253Y3987073D2*
Y3972714D1*
X2548579Y3959139D2*
X2550038Y3956254D1*
X2554316Y3951943D1*
X2524205D1*
Y3936943D2*
X2554316Y3922584D1*
Y3942680D1*
X2424898Y3968403D2*
X2455042Y3979910D1*
X2424898Y3991384D1*
X2434946Y3987073D2*
Y3972714D1*
X2449272Y3959139D2*
X2450731Y3956254D1*
X2455009Y3951943D1*
X2424898D1*
X2450731Y3925469D2*
X2453583Y3926895D1*
X2455009Y3931206D1*
Y3934058D1*
X2453583Y3938369D1*
X2449272Y3941254D1*
X2442109Y3942680D1*
X2434946D1*
X2429209Y3941254D1*
X2426324Y3938369D1*
X2424898Y3934058D1*
Y3932632D1*
X2426324Y3928354D1*
X2429209Y3925469D1*
X2433520Y3924043D1*
X2434946D1*
X2439257Y3925469D1*
X2442109Y3928354D1*
X2443535Y3932632D1*
Y3934058D1*
X2442109Y3938369D1*
X2439257Y3941254D1*
X2434946Y3942680D1*
X2315881Y3968403D2*
X2346025Y3979910D1*
X2315881Y3991384D1*
X2325929Y3987073D2*
Y3972714D1*
X2340255Y3959139D2*
X2341714Y3956254D1*
X2345992Y3951943D1*
X2315881D1*
X2345992Y3925469D2*
Y3939795D1*
X2333092Y3941221D1*
X2334518Y3939795D1*
X2335977Y3935484D1*
Y3931206D1*
X2334518Y3926895D1*
X2331666Y3924010D1*
X2327355Y3922584D1*
X2324503D1*
X2320192Y3924010D1*
X2317307Y3926895D1*
X2315881Y3931206D1*
Y3935484D1*
X2317307Y3939795D1*
X2318766Y3941221D1*
X2321618Y3942680D1*
X2216574Y3968403D2*
X2246718Y3979910D1*
X2216574Y3991384D1*
X2226622Y3987073D2*
Y3972714D1*
X2240948Y3959139D2*
X2242407Y3956254D1*
X2246685Y3951943D1*
X2216574D1*
Y3928321D2*
X2246685D1*
X2226622Y3942680D1*
Y3921158D1*
X2117268Y3968403D2*
X2147412Y3979910D1*
X2117268Y3991384D1*
X2127316Y3987073D2*
Y3972714D1*
X2141642Y3959139D2*
X2143101Y3956254D1*
X2147379Y3951943D1*
X2117268D1*
X2147379Y3939795D2*
Y3924043D1*
X2135905Y3932632D1*
Y3928321D1*
X2134479Y3925469D1*
X2133053Y3924043D1*
X2128742Y3922584D1*
X2125890D1*
X2121579Y3924043D1*
X2118694Y3926895D1*
X2117268Y3931206D1*
Y3935517D1*
X2118694Y3939795D1*
X2120153Y3941221D1*
X2123005Y3942680D1*
X2017962Y3968403D2*
X2048106Y3979910D1*
X2017962Y3991384D1*
X2028010Y3987073D2*
Y3972714D1*
X2042336Y3959139D2*
X2043795Y3956254D1*
X2048073Y3951943D1*
X2017962D1*
X2040910Y3941221D2*
X2042336D1*
X2045221Y3939795D1*
X2046647Y3938369D1*
X2048073Y3935484D1*
Y3929747D1*
X2046647Y3926895D1*
X2045221Y3925469D1*
X2042336Y3924010D1*
X2039484D1*
X2036599Y3925469D1*
X2032321Y3928321D1*
X2017962Y3942680D1*
Y3922584D1*
X1918655Y3968403D2*
X1948799Y3979910D1*
X1918655Y3991384D1*
X1928703Y3987073D2*
Y3972714D1*
X1943029Y3959139D2*
X1944488Y3956254D1*
X1948766Y3951943D1*
X1918655D1*
X1943029Y3942680D2*
X1944488Y3939795D1*
X1948766Y3935484D1*
X1918655D1*
X1819349Y3968403D2*
X1849493Y3979910D1*
X1819349Y3991384D1*
X1829397Y3987073D2*
Y3972714D1*
X1843723Y3959139D2*
X1845182Y3956254D1*
X1849460Y3951943D1*
X1819349D1*
X1849460Y3934058D2*
X1848034Y3938369D1*
X1843723Y3941254D1*
X1836560Y3942680D1*
X1832249D1*
X1825086Y3941254D1*
X1820775Y3938369D1*
X1819349Y3934058D1*
Y3931206D1*
X1820775Y3926895D1*
X1825086Y3924043D1*
X1832249Y3922584D1*
X1836560D1*
X1843723Y3924043D1*
X1848034Y3926895D1*
X1849460Y3931206D1*
Y3934058D1*
X1843723Y3924043D2*
X1825086Y3941254D1*
X1720043Y3968403D2*
X1750187Y3979910D1*
X1720043Y3991384D1*
X1730091Y3987073D2*
Y3972714D1*
X1740139Y3940469D2*
X1735828Y3941929D1*
X1732943Y3944780D1*
X1731517Y3949091D1*
Y3950517D1*
X1732943Y3954828D1*
X1735828Y3957680D1*
X1740139Y3959139D1*
X1741565D1*
X1745876Y3957680D1*
X1748728Y3954828D1*
X1750154Y3950517D1*
Y3949091D1*
X1748728Y3944780D1*
X1745876Y3941929D1*
X1740139Y3940469D1*
X1732943D1*
X1725780Y3941929D1*
X1721469Y3944780D1*
X1720043Y3949091D1*
Y3951943D1*
X1721469Y3956254D1*
X1724354Y3957680D1*
X1620736Y3968403D2*
X1650880Y3979910D1*
X1620736Y3991384D1*
X1630784Y3987073D2*
Y3972714D1*
X1650847Y3951977D2*
X1649421Y3956254D1*
X1646569Y3957714D1*
X1643684D1*
X1640832Y3956254D1*
X1639373Y3953403D1*
X1637947Y3947666D1*
X1636521Y3943355D1*
X1633636Y3940503D1*
X1630784Y3939077D1*
X1626473D1*
X1623621Y3940503D1*
X1622162Y3941929D1*
X1620736Y3946240D1*
Y3951977D1*
X1622162Y3956254D1*
X1623621Y3957714D1*
X1626473Y3959139D1*
X1630784D1*
X1633636Y3957714D1*
X1636521Y3954828D1*
X1637947Y3950551D1*
X1639373Y3944814D1*
X1640832Y3941929D1*
X1643684Y3940503D1*
X1646569D1*
X1649421Y3941929D1*
X1650847Y3946240D1*
Y3951977D1*
X1521430Y3968403D2*
X1551574Y3979910D1*
X1521430Y3991384D1*
X1531478Y3987073D2*
Y3972714D1*
X1521430Y3953403D2*
X1551541Y3939043D1*
Y3959139D1*
X1422124Y3968403D2*
X1452268Y3979910D1*
X1422124Y3991384D1*
X1432172Y3987073D2*
Y3972714D1*
X1447957Y3941929D2*
X1450809Y3943355D1*
X1452235Y3947666D1*
Y3950517D1*
X1450809Y3954828D1*
X1446498Y3957714D1*
X1439335Y3959139D1*
X1432172D1*
X1426435Y3957714D1*
X1423550Y3954828D1*
X1422124Y3950517D1*
Y3949091D1*
X1423550Y3944814D1*
X1426435Y3941929D1*
X1430746Y3940503D1*
X1432172D1*
X1436483Y3941929D1*
X1439335Y3944814D1*
X1440761Y3949091D1*
Y3950517D1*
X1439335Y3954828D1*
X1436483Y3957714D1*
X1432172Y3959139D1*
X1322817Y3968403D2*
X1352961Y3979910D1*
X1322817Y3991384D1*
X1332865Y3987073D2*
Y3972714D1*
X1352928Y3941929D2*
Y3956254D1*
X1340028Y3957680D1*
X1341454Y3956254D1*
X1342913Y3951943D1*
Y3947666D1*
X1341454Y3943355D1*
X1338602Y3940469D1*
X1334291Y3939043D1*
X1331439D1*
X1327128Y3940469D1*
X1324243Y3943355D1*
X1322817Y3947666D1*
Y3951943D1*
X1324243Y3956254D1*
X1325702Y3957680D1*
X1328554Y3959139D1*
X1223511Y3968403D2*
X1253655Y3979910D1*
X1223511Y3991384D1*
X1233559Y3987073D2*
Y3972714D1*
X1223511Y3944780D2*
X1253622D1*
X1233559Y3959139D1*
Y3937618D1*
X1124205Y3968403D2*
X1154349Y3979910D1*
X1124205Y3991384D1*
X1134253Y3987073D2*
Y3972714D1*
X1154316Y3956254D2*
Y3940503D1*
X1142842Y3949091D1*
Y3944780D1*
X1141416Y3941929D1*
X1139990Y3940503D1*
X1135679Y3939043D1*
X1132827D1*
X1128516Y3940503D1*
X1125631Y3943355D1*
X1124205Y3947666D1*
Y3951977D1*
X1125631Y3956254D1*
X1127090Y3957680D1*
X1129942Y3959139D1*
X1024898Y3968403D2*
X1055042Y3979910D1*
X1024898Y3991384D1*
X1034946Y3987073D2*
Y3972714D1*
X1047846Y3957680D2*
X1049272D1*
X1052157Y3956254D1*
X1053583Y3954828D1*
X1055009Y3951943D1*
Y3946206D1*
X1053583Y3943355D1*
X1052157Y3941929D1*
X1049272Y3940469D1*
X1046420D1*
X1043535Y3941929D1*
X1039257Y3944780D1*
X1024898Y3959139D1*
Y3939043D1*
X925592Y3968403D2*
X955736Y3979910D1*
X925592Y3991384D1*
X935640Y3987073D2*
Y3972714D1*
X949966Y3959139D2*
X951425Y3956254D1*
X955703Y3951943D1*
X925592D1*
X826286Y3968403D2*
X856430Y3979910D1*
X826286Y3991384D1*
X836334Y3987073D2*
Y3972714D1*
X856397Y3950517D2*
X854971Y3954828D1*
X850660Y3957714D1*
X843497Y3959139D1*
X839186D1*
X832023Y3957714D1*
X827712Y3954828D1*
X826286Y3950517D1*
Y3947666D1*
X827712Y3943355D1*
X832023Y3940503D1*
X839186Y3939043D1*
X843497D1*
X850660Y3940503D1*
X854971Y3943355D1*
X856397Y3947666D1*
Y3950517D1*
X850660Y3940503D2*
X832023Y3957714D1*
X3909019Y4068997D2*
X3878875Y4057490D1*
X3909019Y4046016D1*
X3898971Y4050327D2*
Y4064686D1*
X3884645Y4078261D2*
X3883186Y4081146D1*
X3878908Y4085457D1*
X3909019D1*
X3891375Y3846016D2*
X3921519D1*
Y3858949D1*
X3920060Y3863260D1*
X3918634Y3864686D1*
X3915782Y3866112D1*
X3911471D1*
X3908586Y3864686D1*
X3907160Y3863260D1*
X3905734Y3858949D1*
X3904275Y3863260D1*
X3902849Y3864686D1*
X3899997Y3866112D1*
X3897112D1*
X3894260Y3864686D1*
X3892801Y3863260D1*
X3891375Y3858949D1*
Y3846016D1*
X3905734D2*
Y3858949D1*
X3897145Y3875375D2*
X3895686Y3878261D1*
X3891408Y3882572D1*
X3921519D1*
X740881Y4080903D2*
X771025Y4092410D1*
X740881Y4103884D1*
X750929Y4099573D2*
Y4085214D1*
X770992Y4068754D2*
Y4053003D1*
X759518Y4061591D1*
Y4057280D1*
X758092Y4054429D1*
X756666Y4053003D1*
X752355Y4051543D1*
X749503D1*
X745192Y4053003D1*
X742307Y4055855D1*
X740881Y4060166D1*
Y4064477D1*
X742307Y4068754D1*
X743766Y4070180D1*
X746618Y4071639D1*
X765255Y4042280D2*
X766714Y4039395D1*
X770992Y4035084D1*
X740881D1*
X783525Y3891384D2*
X753381D1*
Y3878451D1*
X754840Y3874140D1*
X756266Y3872714D1*
X759118Y3871288D1*
X763429D1*
X766314Y3872714D1*
X767740Y3874140D1*
X769166Y3878451D1*
X770625Y3874140D1*
X772051Y3872714D1*
X774903Y3871288D1*
X777788D1*
X780640Y3872714D1*
X782099Y3874140D1*
X783525Y3878451D1*
Y3891384D1*
X769166D2*
Y3878451D1*
X783492Y3859139D2*
Y3843388D1*
X772018Y3851977D1*
Y3847666D1*
X770592Y3844814D1*
X769166Y3843388D1*
X764855Y3841929D1*
X762003D1*
X757692Y3843388D1*
X754807Y3846240D1*
X753381Y3850551D1*
Y3854862D1*
X754807Y3859139D1*
X756266Y3860565D1*
X759118Y3862025D1*
X777755Y3832665D2*
X779214Y3829780D1*
X783492Y3825469D1*
X753381D1*
X4785329Y1381968D2*
Y1383394D1*
X4786755Y1386279D1*
X4788181Y1387705D1*
X4791066Y1389131D1*
X4796803D1*
X4799655Y1387705D1*
X4801081Y1386279D1*
X4802540Y1383394D1*
Y1380542D1*
X4801081Y1377657D1*
X4798229Y1373379D1*
X4783870Y1359020D1*
X4803966D1*
X4814656Y1361905D2*
X4813230Y1360446D1*
X4814656Y1359020D1*
X4816115Y1360446D1*
X4814656Y1361905D1*
X4826837Y1381968D2*
Y1383394D1*
X4828263Y1386279D1*
X4829689Y1387705D1*
X4832574Y1389131D1*
X4838311D1*
X4841163Y1387705D1*
X4842589Y1386279D1*
X4844048Y1383394D1*
Y1380542D1*
X4842589Y1377657D1*
X4839737Y1373379D1*
X4825378Y1359020D1*
X4845474D1*
X4854738Y1379116D2*
Y1364757D1*
X4856164Y1360479D1*
X4859049Y1359020D1*
X4863360D1*
X4866212Y1360479D1*
X4870523Y1364757D1*
Y1379116D2*
Y1359020D1*
X4898456Y1389164D2*
X4879786D1*
Y1359020D1*
Y1374805D2*
X4891260D1*
X3863862Y976197D2*
X3866714Y977623D1*
X3869599Y980508D1*
X3871025Y983360D1*
Y989097D1*
X3869599Y991982D1*
X3866714Y994834D1*
X3863862Y996293D1*
X3859551Y997719D1*
X3852355D1*
X3848077Y996293D1*
X3845192Y994834D1*
X3842340Y991982D1*
X3840881Y989097D1*
Y983360D1*
X3842340Y980508D1*
X3845192Y977623D1*
X3848077Y976197D1*
X3852355D1*
Y983360D1*
X3871025Y946837D2*
X3840881D1*
X3871025Y966933D1*
X3840881D1*
X3871025Y937574D2*
X3840881D1*
Y927526D1*
X3842340Y923215D1*
X3845192Y920330D1*
X3848077Y918904D1*
X3852355Y917478D1*
X3859551D1*
X3863862Y918904D1*
X3866714Y920330D1*
X3869599Y923215D1*
X3871025Y927526D1*
Y937574D1*
X3757359Y1087224D2*
Y1074324D1*
X3758819Y1070013D1*
X3760244Y1068553D1*
X3763096Y1067128D1*
X3765981D1*
X3768833Y1068553D1*
X3770292Y1070013D1*
X3771718Y1074324D1*
Y1087224D1*
X3741574D1*
X3757359Y1077176D2*
X3741574Y1067128D1*
X3767407Y1037768D2*
X3770292Y1040620D1*
X3771718Y1044931D1*
Y1050668D1*
X3770292Y1054979D1*
X3767407Y1057864D1*
X3764556D1*
X3761670Y1056405D1*
X3760244Y1054979D1*
X3758819Y1052127D1*
X3755933Y1043505D1*
X3754508Y1040620D1*
X3753048Y1039194D1*
X3750196Y1037768D1*
X3745885D1*
X3743034Y1040620D1*
X3741574Y1044931D1*
Y1050668D1*
X3743034Y1054979D1*
X3745885Y1057864D1*
X3771718Y1018456D2*
X3741574D1*
X3771718Y1028504D2*
Y1008408D1*
Y999145D2*
X3741574D1*
Y989097D1*
X3743034Y984786D1*
X3745885Y981901D1*
X3748771Y980475D1*
X3753048Y979049D1*
X3760244D1*
X3764556Y980475D1*
X3767407Y981901D1*
X3770292Y984786D1*
X3771718Y989097D1*
Y999145D1*
X3757359Y969785D2*
Y956885D1*
X3758819Y952574D1*
X3760244Y951115D1*
X3763096Y949689D1*
X3765981D1*
X3768833Y951115D1*
X3770292Y952574D1*
X3771718Y956885D1*
Y969785D1*
X3741574D1*
X3757359Y959737D2*
X3741574Y949689D1*
X3771718Y940426D2*
X3741574Y928952D1*
X3771718Y917478D1*
X3670240Y991982D2*
X3644407D1*
X3657307Y1004882D2*
Y979049D1*
X3672379Y952574D2*
Y966900D1*
X3659479Y968326D1*
X3660905Y966900D1*
X3662364Y962589D1*
Y958311D1*
X3660905Y954000D1*
X3658053Y951115D1*
X3653742Y949689D1*
X3650890D1*
X3646579Y951115D1*
X3643694Y954000D1*
X3642268Y958311D1*
Y962589D1*
X3643694Y966900D1*
X3645153Y968326D1*
X3648005Y969785D1*
X3672412Y940426D2*
X3642268Y928952D1*
X3672412Y917478D1*
X3573106Y1008442D2*
X3542962D1*
X3558747Y999178D2*
Y986278D1*
X3560206Y981967D1*
X3561632Y980508D1*
X3564484Y979082D1*
X3567369D1*
X3570221Y980508D1*
X3571680Y981967D1*
X3573106Y986278D1*
Y999178D1*
X3542962D1*
X3558747Y989130D2*
X3542962Y979082D1*
X3573106Y961196D2*
X3571713Y964048D1*
X3568828Y966933D1*
X3565943Y968359D1*
X3561632Y969818D1*
X3554469D1*
X3550158Y968359D1*
X3547306Y966933D1*
X3544421Y964048D1*
X3542995Y961196D1*
Y955459D1*
X3544421Y952574D1*
X3547306Y949722D1*
X3550158Y948297D1*
X3554469Y946837D1*
X3561632D1*
X3565943Y948297D1*
X3568828Y949722D1*
X3571713Y952574D1*
X3573106Y955459D1*
Y961196D1*
X3548732Y956885D2*
X3540110Y948297D1*
X3565910Y936115D2*
X3567336D1*
X3570221Y934689D1*
X3571647Y933263D1*
X3573073Y930378D1*
Y924641D1*
X3571647Y921789D1*
X3570221Y920363D1*
X3567336Y918904D1*
X3564484D1*
X3561599Y920363D1*
X3557321Y923215D1*
X3542962Y937574D1*
Y917478D1*
X3458711Y995630D2*
Y979049D1*
X3473766Y952574D2*
Y966900D1*
X3460866Y968326D1*
X3462292Y966900D1*
X3463751Y962589D1*
Y958311D1*
X3462292Y954000D1*
X3459440Y951115D1*
X3455129Y949689D1*
X3452277D1*
X3447966Y951115D1*
X3445081Y954000D1*
X3443655Y958311D1*
Y962589D1*
X3445081Y966900D1*
X3446540Y968326D1*
X3449392Y969785D1*
X3473799Y940426D2*
X3443655Y928952D1*
X3473799Y917478D1*
X3374493Y1028538D2*
X3344349D1*
Y1018490D1*
X3345808Y1014179D1*
X3348660Y1011293D1*
X3351545Y1009868D1*
X3355823Y1008442D1*
X3363019D1*
X3367330Y1009868D1*
X3370182Y1011293D1*
X3373067Y1014179D1*
X3374493Y1018490D1*
Y1028538D1*
X3360134Y999178D2*
Y986278D1*
X3361593Y981967D1*
X3363019Y980508D1*
X3365871Y979082D1*
X3368756D1*
X3371608Y980508D1*
X3373067Y981967D1*
X3374493Y986278D1*
Y999178D1*
X3344349D1*
X3360134Y989130D2*
X3344349Y979082D1*
X3374493Y961196D2*
X3373100Y964048D1*
X3370215Y966933D1*
X3367330Y968359D1*
X3363019Y969818D1*
X3355856D1*
X3351545Y968359D1*
X3348693Y966933D1*
X3345808Y964048D1*
X3344382Y961196D1*
Y955459D1*
X3345808Y952574D1*
X3348693Y949722D1*
X3351545Y948297D1*
X3355856Y946837D1*
X3363019D1*
X3367330Y948297D1*
X3370215Y949722D1*
X3373100Y952574D1*
X3374493Y955459D1*
Y961196D1*
X3350119Y956885D2*
X3341497Y948297D1*
X3367297Y936115D2*
X3368723D1*
X3371608Y934689D1*
X3373034Y933263D1*
X3374460Y930378D1*
Y924641D1*
X3373034Y921789D1*
X3371608Y920363D1*
X3368723Y918904D1*
X3365871D1*
X3362986Y920363D1*
X3358708Y923215D1*
X3344349Y937574D1*
Y917478D1*
X3260098Y1012089D2*
Y995509D1*
X3269417Y986245D2*
X3270876Y983360D1*
X3275154Y979049D1*
X3245043D1*
X3267991Y968326D2*
X3269417D1*
X3272302Y966900D1*
X3273728Y965474D1*
X3275154Y962589D1*
Y956852D1*
X3273728Y954000D1*
X3272302Y952574D1*
X3269417Y951115D1*
X3266565D1*
X3263680Y952574D1*
X3259402Y955426D1*
X3245043Y969785D1*
Y949689D1*
X3275187Y940426D2*
X3245043Y928952D1*
X3275187Y917478D1*
X3161521Y1028504D2*
Y1015605D1*
X3162981Y1011293D1*
X3164406Y1009834D1*
X3167258Y1008408D1*
X3170143D1*
X3172995Y1009834D1*
X3174454Y1011293D1*
X3175880Y1015605D1*
Y1028504D1*
X3145736D1*
X3161521Y1018456D2*
X3145736Y1008408D1*
X3171569Y979049D2*
X3174454Y981901D1*
X3175880Y986212D1*
Y991949D1*
X3174454Y996260D1*
X3171569Y999145D1*
X3168717D1*
X3165832Y997686D1*
X3164406Y996260D1*
X3162981Y993408D1*
X3160095Y984786D1*
X3158669Y981901D1*
X3157210Y980475D1*
X3154358Y979049D1*
X3150047D1*
X3147196Y981901D1*
X3145736Y986212D1*
Y991949D1*
X3147196Y996260D1*
X3150047Y999145D1*
X3161521Y969785D2*
Y956885D1*
X3162981Y952574D1*
X3164406Y951115D1*
X3167258Y949689D1*
X3170143D1*
X3172995Y951115D1*
X3174454Y952574D1*
X3175880Y956885D1*
Y969785D1*
X3145736D1*
X3161521Y959737D2*
X3145736Y949689D1*
X3175880Y940426D2*
X3145736Y928952D1*
X3175880Y917478D1*
X3074402Y1008442D2*
X3048569D1*
X3061469Y1021342D2*
Y995509D1*
X3070804Y986245D2*
X3072263Y983360D1*
X3076541Y979049D1*
X3046430D1*
X3069378Y968326D2*
X3070804D1*
X3073689Y966900D1*
X3075115Y965474D1*
X3076541Y962589D1*
Y956852D1*
X3075115Y954000D1*
X3073689Y952574D1*
X3070804Y951115D1*
X3067952D1*
X3065067Y952574D1*
X3060789Y955426D1*
X3046430Y969785D1*
Y949689D1*
X3076574Y940426D2*
X3046430Y928952D1*
X3076574Y917478D1*
X2970105Y976197D2*
X2972957Y977623D1*
X2975842Y980508D1*
X2977268Y983360D1*
Y989097D1*
X2975842Y991982D1*
X2972957Y994834D1*
X2970105Y996293D1*
X2965794Y997719D1*
X2958598D1*
X2954320Y996293D1*
X2951435Y994834D1*
X2948583Y991982D1*
X2947124Y989097D1*
Y983360D1*
X2948583Y980508D1*
X2951435Y977623D1*
X2954320Y976197D1*
X2958598D1*
Y983360D1*
X2977268Y946837D2*
X2947124D1*
X2977268Y966933D1*
X2947124D1*
X2977268Y937574D2*
X2947124D1*
Y927526D1*
X2948583Y923215D1*
X2951435Y920330D1*
X2954320Y918904D1*
X2958598Y917478D1*
X2965794D1*
X2970105Y918904D1*
X2972957Y920330D1*
X2975842Y923215D1*
X2977268Y927526D1*
Y937574D1*
X2847817Y1015571D2*
X2877961D1*
X2847817Y1027045D1*
X2877961Y1038519D1*
X2847817D1*
X2877961Y987671D2*
Y1006308D1*
X2847817D1*
Y987671D1*
X2863602Y1006308D2*
Y994834D1*
X2847817Y955459D2*
X2877961D1*
X2847817Y966933D1*
X2877961Y978407D1*
X2847817D1*
X2877961Y946196D2*
X2847817Y939000D1*
X2877961Y931837D1*
X2847817Y924674D1*
X2877961Y917478D1*
X2748511Y1006949D2*
X2778655D1*
X2748511Y1018423D1*
X2778655Y1029897D1*
X2748511D1*
X2778655Y979049D2*
Y997686D1*
X2748511D1*
Y979049D1*
X2764296Y997686D2*
Y986212D1*
X2748511Y946837D2*
X2778655D1*
X2748511Y958311D1*
X2778655Y969785D1*
X2748511D1*
X2764296Y937574D2*
Y924674D1*
X2765755Y920363D1*
X2767181Y918904D1*
X2770033Y917478D1*
X2772918D1*
X2775770Y918904D1*
X2777229Y920363D1*
X2778655Y924674D1*
Y937574D1*
X2748511D1*
X2764296Y927526D2*
X2748511Y917478D1*
X2679349Y987671D2*
X2649205D1*
X2679349Y969785D2*
X2677923Y972670D1*
X2675038Y975522D1*
X2672186Y976981D1*
X2667875Y978407D1*
X2660679D1*
X2656401Y976981D1*
X2653516Y975522D1*
X2650664Y972670D1*
X2649205Y969785D1*
Y964048D1*
X2650664Y961196D1*
X2653516Y958311D1*
X2656401Y956885D1*
X2660679Y955459D1*
X2667875D1*
X2672186Y956885D1*
X2675038Y958311D1*
X2677923Y961196D1*
X2679349Y964048D1*
Y969785D1*
Y946196D2*
X2649205Y939000D1*
X2679349Y931837D1*
X2649205Y924674D1*
X2679349Y917478D1*
X2580042Y979049D2*
X2549898D1*
X2580042Y961163D2*
X2578616Y964048D1*
X2575731Y966900D1*
X2572879Y968359D1*
X2568568Y969785D1*
X2561372D1*
X2557094Y968359D1*
X2554209Y966900D1*
X2551357Y964048D1*
X2549898Y961163D1*
Y955426D1*
X2551357Y952574D1*
X2554209Y949689D1*
X2557094Y948263D1*
X2561372Y946837D1*
X2568568D1*
X2572879Y948263D1*
X2575731Y949689D1*
X2578616Y952574D1*
X2580042Y955426D1*
Y961163D1*
X2565683Y937574D2*
Y924674D1*
X2567142Y920363D1*
X2568568Y918904D1*
X2571420Y917478D1*
X2574305D1*
X2577157Y918904D1*
X2578616Y920363D1*
X2580042Y924674D1*
Y937574D1*
X2549898D1*
X2565683Y927526D2*
X2549898Y917478D1*
X2480736Y1059323D2*
X2450592D1*
Y1049275D1*
X2452051Y1044964D1*
X2454903Y1042079D1*
X2457788Y1040653D1*
X2462066Y1039227D1*
X2469262D1*
X2473573Y1040653D1*
X2476425Y1042079D1*
X2479310Y1044964D1*
X2480736Y1049275D1*
Y1059323D1*
X2450592Y1006982D2*
X2480736Y1018490D1*
X2450592Y1029964D1*
X2460640Y1025653D2*
Y1011293D1*
X2473573Y976197D2*
X2476425Y977623D1*
X2479310Y980508D1*
X2480736Y983360D1*
Y989097D1*
X2479310Y991982D1*
X2476425Y994834D1*
X2473573Y996293D1*
X2469262Y997719D1*
X2462066D1*
X2457788Y996293D1*
X2454903Y994834D1*
X2452051Y991982D1*
X2450592Y989097D1*
Y983360D1*
X2452051Y980508D1*
X2454903Y977623D1*
X2457788Y976197D1*
X2480736Y966933D2*
X2450592D1*
X2480736Y946837D2*
X2460640Y966933D1*
X2467836Y959770D2*
X2450592Y946837D1*
X2480703Y934689D2*
Y918937D1*
X2469229Y927526D1*
Y923215D1*
X2467803Y920363D1*
X2466377Y918937D1*
X2462066Y917478D1*
X2459214D1*
X2454903Y918937D1*
X2452018Y921789D1*
X2450592Y926100D1*
Y930411D1*
X2452018Y934689D1*
X2453477Y936115D1*
X2456329Y937574D1*
X2371025Y1035599D2*
X2340881D1*
Y1025551D1*
X2342340Y1021240D1*
X2345192Y1018355D1*
X2348077Y1016929D1*
X2352355Y1015503D1*
X2359551D1*
X2363862Y1016929D1*
X2366714Y1018355D1*
X2369599Y1021240D1*
X2371025Y1025551D1*
Y1035599D1*
X2356666Y1006239D2*
Y993339D1*
X2358125Y989028D1*
X2359551Y987569D1*
X2362403Y986143D1*
X2365288D1*
X2368140Y987569D1*
X2369599Y989028D1*
X2371025Y993339D1*
Y1006239D1*
X2340881D1*
X2356666Y996191D2*
X2340881Y986143D1*
X2371025Y968257D2*
X2369632Y971109D1*
X2366747Y973994D1*
X2363862Y975420D1*
X2359551Y976880D1*
X2352388D1*
X2348077Y975420D1*
X2345225Y973994D1*
X2342340Y971109D1*
X2340914Y968257D1*
Y962520D1*
X2342340Y959635D1*
X2345225Y956784D1*
X2348077Y955358D1*
X2352388Y953898D1*
X2359551D1*
X2363862Y955358D1*
X2366747Y956784D1*
X2369632Y959635D1*
X2371025Y962520D1*
Y968257D1*
X2346651Y963946D2*
X2338029Y955358D1*
X2370992Y941750D2*
Y925998D1*
X2359518Y934587D1*
Y930276D1*
X2358092Y927424D1*
X2356666Y925998D1*
X2352355Y924539D1*
X2349503D1*
X2345192Y925998D1*
X2342307Y928850D1*
X2340881Y933161D1*
Y937472D1*
X2342307Y941750D1*
X2343766Y943176D1*
X2346618Y944635D1*
X2271718Y1053484D2*
X2241574D1*
Y1043436D1*
X2243034Y1039125D1*
X2245885Y1036240D1*
X2248771Y1034814D1*
X2253048Y1033388D1*
X2260244D1*
X2264556Y1034814D1*
X2267407Y1036240D1*
X2270292Y1039125D1*
X2271718Y1043436D1*
Y1053484D1*
X2241574Y1001144D2*
X2271718Y1012651D1*
X2241574Y1024125D1*
X2251622Y1019814D2*
Y1005455D1*
X2264556Y970358D2*
X2267407Y971784D1*
X2270292Y974669D1*
X2271718Y977521D1*
Y983258D1*
X2270292Y986143D1*
X2267407Y988995D1*
X2264556Y990454D1*
X2260244Y991880D1*
X2253048D1*
X2248771Y990454D1*
X2245885Y988995D1*
X2243034Y986143D1*
X2241574Y983258D1*
Y977521D1*
X2243034Y974669D1*
X2245885Y971784D1*
X2248771Y970358D1*
X2271718Y961095D2*
X2241574D1*
X2271718Y940999D2*
X2251622Y961095D1*
X2258819Y953932D2*
X2241574Y940999D1*
X2265948Y931735D2*
X2267407Y928850D1*
X2271685Y924539D1*
X2241574D1*
X2172412Y1022699D2*
X2142268D1*
Y1012651D1*
X2143727Y1008340D1*
X2146579Y1005455D1*
X2149464Y1004029D1*
X2153742Y1002603D1*
X2160938D1*
X2165249Y1004029D1*
X2168101Y1005455D1*
X2170986Y1008340D1*
X2172412Y1012651D1*
Y1022699D1*
X2158053Y993339D2*
Y980439D1*
X2159512Y976128D1*
X2160938Y974669D1*
X2163790Y973243D1*
X2166675D1*
X2169527Y974669D1*
X2170986Y976128D1*
X2172412Y980439D1*
Y993339D1*
X2142268D1*
X2158053Y983291D2*
X2142268Y973243D1*
X2172412Y955358D2*
X2171019Y958209D1*
X2168134Y961095D1*
X2165249Y962520D1*
X2160938Y963980D1*
X2153775D1*
X2149464Y962520D1*
X2146612Y961095D1*
X2143727Y958209D1*
X2142301Y955358D1*
Y949621D1*
X2143727Y946736D1*
X2146612Y943884D1*
X2149464Y942458D1*
X2153775Y940999D1*
X2160938D1*
X2165249Y942458D1*
X2168134Y943884D1*
X2171019Y946736D1*
X2172412Y949621D1*
Y955358D1*
X2148038Y951047D2*
X2139416Y942458D1*
X2166642Y931735D2*
X2168101Y928850D1*
X2172379Y924539D1*
X2142268D1*
X2073106Y1066384D2*
X2042962D1*
Y1056336D1*
X2044421Y1052025D1*
X2047273Y1049140D1*
X2050158Y1047714D1*
X2054436Y1046288D1*
X2061632D1*
X2065943Y1047714D1*
X2068795Y1049140D1*
X2071680Y1052025D1*
X2073106Y1056336D1*
Y1066384D1*
X2042962Y1014043D2*
X2073106Y1025551D1*
X2042962Y1037025D1*
X2053010Y1032714D2*
Y1018355D1*
X2065943Y983258D2*
X2068795Y984684D1*
X2071680Y987569D1*
X2073106Y990421D1*
Y996158D1*
X2071680Y999043D1*
X2068795Y1001895D1*
X2065943Y1003354D1*
X2061632Y1004780D1*
X2054436D1*
X2050158Y1003354D1*
X2047273Y1001895D1*
X2044421Y999043D1*
X2042962Y996158D1*
Y990421D1*
X2044421Y987569D1*
X2047273Y984684D1*
X2050158Y983258D1*
X2073106Y973994D2*
X2042962D1*
X2073106Y953898D2*
X2053010Y973994D1*
X2060206Y966832D2*
X2042962Y953898D1*
X2073073Y936013D2*
X2071647Y940324D1*
X2067336Y943209D1*
X2060173Y944635D1*
X2055862D1*
X2048699Y943209D1*
X2044388Y940324D1*
X2042962Y936013D1*
Y933161D1*
X2044388Y928850D1*
X2048699Y925998D1*
X2055862Y924539D1*
X2060173D1*
X2067336Y925998D1*
X2071647Y928850D1*
X2073073Y933161D1*
Y936013D1*
X2067336Y925998D2*
X2048699Y943209D1*
X1966636Y1043370D2*
X1969488Y1044796D1*
X1972373Y1047681D1*
X1973799Y1050533D1*
Y1056270D1*
X1972373Y1059155D1*
X1969488Y1062007D1*
X1966636Y1063466D1*
X1962325Y1064892D1*
X1955129D1*
X1950852Y1063466D1*
X1947966Y1062007D1*
X1945115Y1059155D1*
X1943655Y1056270D1*
Y1050533D1*
X1945115Y1047681D1*
X1947966Y1044796D1*
X1950852Y1043370D1*
X1973799Y1034106D2*
X1943655D1*
Y1016895D1*
X1973799Y999010D2*
X1972373Y1001895D1*
X1969488Y1004747D1*
X1966636Y1006206D1*
X1962325Y1007632D1*
X1955129D1*
X1950852Y1006206D1*
X1947966Y1004747D1*
X1945115Y1001895D1*
X1943655Y999010D1*
Y993273D1*
X1945115Y990421D1*
X1947966Y987536D1*
X1950852Y986110D1*
X1955129Y984684D1*
X1962325D1*
X1966636Y986110D1*
X1969488Y987536D1*
X1972373Y990421D1*
X1973799Y993273D1*
Y999010D1*
X1966636Y953898D2*
X1969488Y955324D1*
X1972373Y958209D1*
X1973799Y961061D1*
Y966798D1*
X1972373Y969683D1*
X1969488Y972535D1*
X1966636Y973994D1*
X1962325Y975420D1*
X1955129D1*
X1950852Y973994D1*
X1947966Y972535D1*
X1945115Y969683D1*
X1943655Y966798D1*
Y961061D1*
X1945115Y958209D1*
X1947966Y955324D1*
X1950852Y953898D1*
X1973799Y944635D2*
X1943655D1*
X1973799Y924539D2*
X1953703Y944635D1*
X1960900Y937472D2*
X1943655Y924539D1*
X1874493Y1015503D2*
X1844349D1*
X1860134Y1006239D2*
Y993339D1*
X1861593Y989028D1*
X1863019Y987569D1*
X1865871Y986143D1*
X1868756D1*
X1871608Y987569D1*
X1873067Y989028D1*
X1874493Y993339D1*
Y1006239D1*
X1844349D1*
X1860134Y996191D2*
X1844349Y986143D1*
X1874493Y968257D2*
X1873100Y971109D1*
X1870215Y973994D1*
X1867330Y975420D1*
X1863019Y976880D1*
X1855856D1*
X1851545Y975420D1*
X1848693Y973994D1*
X1845808Y971109D1*
X1844382Y968257D1*
Y962520D1*
X1845808Y959635D1*
X1848693Y956784D1*
X1851545Y955358D1*
X1855856Y953898D1*
X1863019D1*
X1867330Y955358D1*
X1870215Y956784D1*
X1873100Y959635D1*
X1874493Y962520D1*
Y968257D1*
X1850119Y963946D2*
X1841497Y955358D1*
X1844349Y938898D2*
X1874460Y924539D1*
Y944635D1*
X1775187Y1012584D2*
X1745043D1*
X1760828Y1003321D2*
Y990421D1*
X1762287Y986110D1*
X1763713Y984651D1*
X1766565Y983225D1*
X1769450D1*
X1772302Y984651D1*
X1773761Y986110D1*
X1775187Y990421D1*
Y1003321D1*
X1745043D1*
X1760828Y993273D2*
X1745043Y983225D1*
X1768024Y952439D2*
X1770876Y953865D1*
X1773761Y956750D1*
X1775187Y959602D1*
Y965339D1*
X1773761Y968224D1*
X1770876Y971076D1*
X1768024Y972535D1*
X1763713Y973961D1*
X1756517D1*
X1752239Y972535D1*
X1749354Y971076D1*
X1746502Y968224D1*
X1745043Y965339D1*
Y959602D1*
X1746502Y956750D1*
X1749354Y953865D1*
X1752239Y952439D1*
X1770876Y925965D2*
X1773728Y927391D1*
X1775154Y931702D1*
Y934554D1*
X1773728Y938865D1*
X1769417Y941750D1*
X1762254Y943176D1*
X1755091D1*
X1749354Y941750D1*
X1746469Y938865D1*
X1745043Y934554D1*
Y933128D1*
X1746469Y928850D1*
X1749354Y925965D1*
X1753665Y924539D1*
X1755091D1*
X1759402Y925965D1*
X1762254Y928850D1*
X1763680Y933128D1*
Y934554D1*
X1762254Y938865D1*
X1759402Y941750D1*
X1755091Y943176D1*
X1675880Y1015503D2*
X1645736D1*
X1661521Y1006239D2*
Y993339D1*
X1662981Y989028D1*
X1664406Y987569D1*
X1667258Y986143D1*
X1670143D1*
X1672995Y987569D1*
X1674454Y989028D1*
X1675880Y993339D1*
Y1006239D1*
X1645736D1*
X1661521Y996191D2*
X1645736Y986143D1*
X1675880Y968257D2*
X1674488Y971109D1*
X1671603Y973994D1*
X1668717Y975420D1*
X1664406Y976880D1*
X1657244D1*
X1652933Y975420D1*
X1650081Y973994D1*
X1647196Y971109D1*
X1645770Y968257D1*
Y962520D1*
X1647196Y959635D1*
X1650081Y956784D1*
X1652933Y955358D1*
X1657244Y953898D1*
X1664406D1*
X1668717Y955358D1*
X1671603Y956784D1*
X1674488Y959635D1*
X1675880Y962520D1*
Y968257D1*
X1651507Y963946D2*
X1642884Y955358D1*
X1675847Y927424D2*
Y941750D1*
X1662947Y943176D1*
X1664373Y941750D1*
X1665832Y937439D1*
Y933161D1*
X1664373Y928850D1*
X1661521Y925965D1*
X1657210Y924539D1*
X1654358D1*
X1650047Y925965D1*
X1647162Y928850D1*
X1645736Y933161D1*
Y937439D1*
X1647162Y941750D1*
X1648621Y943176D1*
X1651473Y944635D1*
X1576574Y1016929D2*
X1546430D1*
X1562215Y1007665D2*
Y994765D1*
X1563674Y990454D1*
X1565100Y988995D1*
X1567952Y987569D1*
X1570837D1*
X1573689Y988995D1*
X1575148Y990454D1*
X1576574Y994765D1*
Y1007665D1*
X1546430D1*
X1562215Y997617D2*
X1546430Y987569D1*
X1576574Y969683D2*
X1575181Y972535D1*
X1572296Y975420D1*
X1569411Y976846D1*
X1565100Y978305D1*
X1557937D1*
X1553626Y976846D1*
X1550774Y975420D1*
X1547889Y972535D1*
X1546463Y969683D1*
Y963946D1*
X1547889Y961061D1*
X1550774Y958209D1*
X1553626Y956784D1*
X1557937Y955324D1*
X1565100D1*
X1569411Y956784D1*
X1572296Y958209D1*
X1575181Y961061D1*
X1576574Y963946D1*
Y969683D1*
X1552200Y965372D2*
X1543578Y956784D1*
X1546430Y931702D2*
X1576541D1*
X1556478Y946061D1*
Y924539D1*
X1477268Y1015503D2*
X1447124D1*
X1462909Y1006239D2*
Y993339D1*
X1464368Y989028D1*
X1465794Y987569D1*
X1468646Y986143D1*
X1471531D1*
X1474383Y987569D1*
X1475842Y989028D1*
X1477268Y993339D1*
Y1006239D1*
X1447124D1*
X1462909Y996191D2*
X1447124Y986143D1*
X1477268Y968257D2*
X1475875Y971109D1*
X1472990Y973994D1*
X1470105Y975420D1*
X1465794Y976880D1*
X1458631D1*
X1454320Y975420D1*
X1451468Y973994D1*
X1448583Y971109D1*
X1447157Y968257D1*
Y962520D1*
X1448583Y959635D1*
X1451468Y956784D1*
X1454320Y955358D1*
X1458631Y953898D1*
X1465794D1*
X1470105Y955358D1*
X1472990Y956784D1*
X1475875Y959635D1*
X1477268Y962520D1*
Y968257D1*
X1452894Y963946D2*
X1444272Y955358D1*
X1477235Y941750D2*
Y925998D1*
X1465761Y934587D1*
Y930276D1*
X1464335Y927424D1*
X1462909Y925998D1*
X1458598Y924539D1*
X1455746D1*
X1451435Y925998D1*
X1448550Y928850D1*
X1447124Y933161D1*
Y937472D1*
X1448550Y941750D1*
X1450009Y943176D1*
X1452861Y944635D1*
X1377961Y1066384D2*
X1347817D1*
Y1056336D1*
X1349277Y1052025D1*
X1352128Y1049140D1*
X1355013Y1047714D1*
X1359291Y1046288D1*
X1366487D1*
X1370798Y1047714D1*
X1373650Y1049140D1*
X1376535Y1052025D1*
X1377961Y1056336D1*
Y1066384D1*
X1347817Y1014043D2*
X1377961Y1025551D1*
X1347817Y1037025D1*
X1357865Y1032714D2*
Y1018355D1*
X1370798Y983258D2*
X1373650Y984684D1*
X1376535Y987569D1*
X1377961Y990421D1*
Y996158D1*
X1376535Y999043D1*
X1373650Y1001895D1*
X1370798Y1003354D1*
X1366487Y1004780D1*
X1359291D1*
X1355013Y1003354D1*
X1352128Y1001895D1*
X1349277Y999043D1*
X1347817Y996158D1*
Y990421D1*
X1349277Y987569D1*
X1352128Y984684D1*
X1355013Y983258D1*
X1377961Y973994D2*
X1347817D1*
X1377961Y953898D2*
X1357865Y973994D1*
X1365061Y966832D2*
X1347817Y953898D1*
X1370765Y943176D2*
X1372191D1*
X1375076Y941750D1*
X1376502Y940324D1*
X1377928Y937439D1*
Y931702D1*
X1376502Y928850D1*
X1375076Y927424D1*
X1372191Y925965D1*
X1369339D1*
X1366454Y927424D1*
X1362176Y930276D1*
X1347817Y944635D1*
Y924539D1*
X1278655Y994732D2*
X1248511D1*
X1278655Y1004780D2*
Y984684D1*
X1248511Y975420D2*
X1278622Y955324D1*
X1271492Y924539D2*
X1274344Y925965D1*
X1277229Y928850D1*
X1278655Y931702D1*
Y937439D1*
X1277229Y940324D1*
X1274344Y943176D1*
X1271492Y944635D1*
X1267181Y946061D1*
X1259985D1*
X1255707Y944635D1*
X1252822Y943176D1*
X1249970Y940324D1*
X1248511Y937439D1*
Y931702D1*
X1249970Y928850D1*
X1252822Y925965D1*
X1255707Y924539D1*
X1149205Y978914D2*
X1179349Y990421D1*
X1149205Y1001895D1*
X1159253Y997584D2*
Y983225D1*
X1179349Y969650D2*
X1149205D1*
Y952439D1*
X1179349Y924539D2*
Y943176D1*
X1149205D1*
Y924539D1*
X1164990Y943176D2*
Y931702D1*
X1077870Y999043D2*
X1052037D1*
X1064937Y1011943D2*
Y986110D1*
X1080009Y959635D2*
Y973961D1*
X1067109Y975387D1*
X1068535Y973961D1*
X1069994Y969650D1*
Y965372D1*
X1068535Y961061D1*
X1065683Y958176D1*
X1061372Y956750D1*
X1058520D1*
X1054209Y958176D1*
X1051324Y961061D1*
X1049898Y965372D1*
Y969650D1*
X1051324Y973961D1*
X1052783Y975387D1*
X1055635Y976846D1*
X1080042Y947487D2*
X1049898Y936013D1*
X1080042Y924539D1*
X980736Y999010D2*
X979310Y1001895D1*
X976425Y1004747D1*
X973573Y1006206D1*
X969262Y1007632D1*
X962066D1*
X957788Y1006206D1*
X954903Y1004747D1*
X952051Y1001895D1*
X950592Y999010D1*
Y993273D1*
X952051Y990421D1*
X954903Y987536D1*
X957788Y986110D1*
X962066Y984684D1*
X969262D1*
X973573Y986110D1*
X976425Y987536D1*
X979310Y990421D1*
X980736Y993273D1*
Y999010D1*
X976425Y955324D2*
X979310Y958176D1*
X980736Y962487D1*
Y968224D1*
X979310Y972535D1*
X976425Y975420D1*
X973573D1*
X970688Y973961D1*
X969262Y972535D1*
X967836Y969683D1*
X964951Y961061D1*
X963525Y958176D1*
X962066Y956750D1*
X959214Y955324D1*
X954903D1*
X952051Y958176D1*
X950592Y962487D1*
Y968224D1*
X952051Y972535D1*
X954903Y975420D1*
X973573Y924539D2*
X976425Y925965D1*
X979310Y928850D1*
X980736Y931702D1*
Y937439D1*
X979310Y940324D1*
X976425Y943176D1*
X973573Y944635D1*
X969262Y946061D1*
X962066D1*
X957788Y944635D1*
X954903Y943176D1*
X952051Y940324D1*
X950592Y937439D1*
Y931702D1*
X952051Y928850D1*
X954903Y925965D1*
X957788Y924539D1*
X874267Y983258D2*
X877119Y984684D1*
X880004Y987569D1*
X881430Y990421D1*
Y996158D1*
X880004Y999043D1*
X877119Y1001895D1*
X874267Y1003354D1*
X869956Y1004780D1*
X862760D1*
X858482Y1003354D1*
X855597Y1001895D1*
X852745Y999043D1*
X851286Y996158D1*
Y990421D1*
X852745Y987569D1*
X855597Y984684D1*
X858482Y983258D1*
X862760D1*
Y990421D1*
X881430Y953898D2*
X851286D1*
X881430Y973994D1*
X851286D1*
X881430Y944635D2*
X851286D1*
Y934587D1*
X852745Y930276D1*
X855597Y927391D1*
X858482Y925965D1*
X862760Y924539D1*
X869956D1*
X874267Y925965D1*
X877119Y927391D1*
X880004Y930276D1*
X881430Y934587D1*
Y944635D1*
X3771025Y766384D2*
X3740881D1*
Y756336D1*
X3742340Y752025D1*
X3745192Y749140D1*
X3748077Y747714D1*
X3752355Y746288D1*
X3759551D1*
X3763862Y747714D1*
X3766714Y749140D1*
X3769599Y752025D1*
X3771025Y756336D1*
Y766384D1*
X3740881Y731288D2*
X3770992Y716929D1*
Y737025D1*
X3671718Y766384D2*
X3641574D1*
Y756336D1*
X3643034Y752025D1*
X3645885Y749140D1*
X3648771Y747714D1*
X3653048Y746288D1*
X3660244D1*
X3664556Y747714D1*
X3667407Y749140D1*
X3670292Y752025D1*
X3671718Y756336D1*
Y766384D1*
X3667407Y719814D2*
X3670259Y721240D1*
X3671685Y725551D1*
Y728403D1*
X3670259Y732714D1*
X3665948Y735599D1*
X3658785Y737025D1*
X3651622D1*
X3645885Y735599D1*
X3643000Y732714D1*
X3641574Y728403D1*
Y726977D1*
X3643000Y722699D1*
X3645885Y719814D1*
X3650196Y718388D1*
X3651622D1*
X3655933Y719814D1*
X3658785Y722699D1*
X3660211Y726977D1*
Y728403D1*
X3658785Y732714D1*
X3655933Y735599D1*
X3651622Y737025D1*
X3572412Y766384D2*
X3542268D1*
Y756336D1*
X3543727Y752025D1*
X3546579Y749140D1*
X3549464Y747714D1*
X3553742Y746288D1*
X3560938D1*
X3565249Y747714D1*
X3568101Y749140D1*
X3570986Y752025D1*
X3572412Y756336D1*
Y766384D1*
X3572379Y719814D2*
Y734139D1*
X3559479Y735565D1*
X3560905Y734139D1*
X3562364Y729828D1*
Y725551D1*
X3560905Y721240D1*
X3558053Y718355D1*
X3553742Y716929D1*
X3550890D1*
X3546579Y718355D1*
X3543694Y721240D1*
X3542268Y725551D1*
Y729828D1*
X3543694Y734139D1*
X3545153Y735565D1*
X3548005Y737025D1*
X3473106Y766384D2*
X3442962D1*
Y756336D1*
X3444421Y752025D1*
X3447273Y749140D1*
X3450158Y747714D1*
X3454436Y746288D1*
X3461632D1*
X3465943Y747714D1*
X3468795Y749140D1*
X3471680Y752025D1*
X3473106Y756336D1*
Y766384D1*
X3442962Y722666D2*
X3473073D1*
X3453010Y737025D1*
Y715503D1*
X3373799Y766384D2*
X3343655D1*
Y756336D1*
X3345115Y752025D1*
X3347966Y749140D1*
X3350852Y747714D1*
X3355129Y746288D1*
X3362325D1*
X3366636Y747714D1*
X3369488Y749140D1*
X3372373Y752025D1*
X3373799Y756336D1*
Y766384D1*
X3373766Y734139D2*
Y718388D1*
X3362292Y726977D1*
Y722666D1*
X3360866Y719814D1*
X3359440Y718388D1*
X3355129Y716929D1*
X3352277D1*
X3347966Y718388D1*
X3345081Y721240D1*
X3343655Y725551D1*
Y729862D1*
X3345081Y734139D1*
X3346540Y735565D1*
X3349392Y737025D1*
X3274493Y766384D2*
X3244349D1*
Y756336D1*
X3245808Y752025D1*
X3248660Y749140D1*
X3251545Y747714D1*
X3255823Y746288D1*
X3263019D1*
X3267330Y747714D1*
X3270182Y749140D1*
X3273067Y752025D1*
X3274493Y756336D1*
Y766384D1*
X3267297Y735565D2*
X3268723D1*
X3271608Y734139D1*
X3273034Y732714D1*
X3274460Y729828D1*
Y724091D1*
X3273034Y721240D1*
X3271608Y719814D1*
X3268723Y718355D1*
X3265871D1*
X3262986Y719814D1*
X3258708Y722666D1*
X3244349Y737025D1*
Y716929D1*
X3175187Y766384D2*
X3145043D1*
Y756336D1*
X3146502Y752025D1*
X3149354Y749140D1*
X3152239Y747714D1*
X3156517Y746288D1*
X3163713D1*
X3168024Y747714D1*
X3170876Y749140D1*
X3173761Y752025D1*
X3175187Y756336D1*
Y766384D1*
X3169417Y737025D2*
X3170876Y734139D1*
X3175154Y729828D1*
X3145043D1*
X3075880Y766384D2*
X3045736D1*
Y756336D1*
X3047196Y752025D1*
X3050047Y749140D1*
X3052933Y747714D1*
X3057210Y746288D1*
X3064406D1*
X3068717Y747714D1*
X3071569Y749140D1*
X3074454Y752025D1*
X3075880Y756336D1*
Y766384D1*
X3075847Y728403D2*
X3074421Y732714D1*
X3070110Y735599D1*
X3062947Y737025D1*
X3058636D1*
X3051473Y735599D1*
X3047162Y732714D1*
X3045736Y728403D1*
Y725551D1*
X3047162Y721240D1*
X3051473Y718388D1*
X3058636Y716929D1*
X3062947D1*
X3070110Y718388D1*
X3074421Y721240D1*
X3075847Y725551D1*
Y728403D1*
X3070110Y718388D2*
X3051473Y735599D1*
X3026227Y766384D2*
X2996083D1*
X3026227Y748499D2*
X3024801Y751384D1*
X3021916Y754235D1*
X3019064Y755695D1*
X3014753Y757121D1*
X3007557D1*
X3003279Y755695D1*
X3000394Y754235D1*
X2997542Y751384D1*
X2996083Y748499D1*
Y742762D1*
X2997542Y739910D1*
X3000394Y737025D1*
X3003279Y735599D1*
X3007557Y734173D1*
X3014753D1*
X3019064Y735599D1*
X3021916Y737025D1*
X3024801Y739910D1*
X3026227Y742762D1*
Y748499D1*
X2969411Y744862D2*
X2972263Y746288D1*
X2975148Y749173D1*
X2976574Y752025D1*
Y757762D1*
X2975148Y760647D1*
X2972263Y763499D1*
X2969411Y764958D1*
X2965100Y766384D1*
X2957904D1*
X2953626Y764958D1*
X2950741Y763499D1*
X2947889Y760647D1*
X2946430Y757762D1*
Y752025D1*
X2947889Y749173D1*
X2950741Y746288D1*
X2953626Y744862D1*
X2976574Y735599D2*
X2946430D1*
X2976574Y715503D2*
X2946430D1*
X2962215Y735599D2*
Y715503D1*
X2912562Y766384D2*
Y753484D1*
X2914021Y749173D1*
X2915447Y747714D1*
X2918299Y746288D1*
X2921184D1*
X2924036Y747714D1*
X2925495Y749173D1*
X2926921Y753484D1*
Y766384D1*
X2896777D1*
X2912562Y756336D2*
X2896777Y746288D1*
X2926921Y737025D2*
X2896777D1*
Y726977D1*
X2898236Y722666D1*
X2901088Y719780D1*
X2903973Y718355D1*
X2908251Y716929D1*
X2915447D1*
X2919758Y718355D1*
X2922610Y719780D1*
X2925495Y722666D1*
X2926921Y726977D1*
Y737025D1*
Y707665D2*
X2912562Y696191D1*
X2896777D1*
X2926921Y684717D2*
X2912562Y696191D1*
X2847124Y743403D2*
X2877268Y754910D1*
X2847124Y766384D1*
X2857172Y762073D2*
Y747714D1*
X2877268Y715503D2*
Y734139D1*
X2847124D1*
Y715503D1*
X2862909Y734139D2*
Y722666D1*
X2877268Y686143D2*
X2847124D1*
X2877268Y706239D1*
X2847124D1*
X2747817Y743403D2*
X2777961Y754910D1*
X2747817Y766384D1*
X2757865Y762073D2*
Y747714D1*
X2772191Y734139D2*
X2773650Y731254D1*
X2777928Y726943D1*
X2747817D1*
X2767913Y699010D2*
X2763602Y700469D1*
X2760717Y703321D1*
X2759291Y707632D1*
Y709058D1*
X2760717Y713369D1*
X2763602Y716221D1*
X2767913Y717680D1*
X2769339D1*
X2773650Y716221D1*
X2776502Y713369D1*
X2777928Y709058D1*
Y707632D1*
X2776502Y703321D1*
X2773650Y700469D1*
X2767913Y699010D1*
X2760717D1*
X2753554Y700469D1*
X2749243Y703321D1*
X2747817Y707632D1*
Y710484D1*
X2749243Y714795D1*
X2752128Y716221D1*
X2648511Y743403D2*
X2678655Y754910D1*
X2648511Y766384D1*
X2658559Y762073D2*
Y747714D1*
X2672885Y734139D2*
X2674344Y731254D1*
X2678622Y726943D1*
X2648511D1*
X2678622Y710517D2*
X2677196Y714795D1*
X2674344Y716254D1*
X2671459D1*
X2668607Y714795D1*
X2667148Y711943D1*
X2665722Y706206D1*
X2664296Y701895D1*
X2661411Y699043D1*
X2658559Y697617D1*
X2654248D1*
X2651396Y699043D1*
X2649937Y700469D1*
X2648511Y704780D1*
Y710517D1*
X2649937Y714795D1*
X2651396Y716254D1*
X2654248Y717680D1*
X2658559D1*
X2661411Y716254D1*
X2664296Y713369D1*
X2665722Y709091D1*
X2667148Y703354D1*
X2668607Y700469D1*
X2671459Y699043D1*
X2674344D1*
X2677196Y700469D1*
X2678622Y704780D1*
Y710517D1*
X2549205Y743403D2*
X2579349Y754910D1*
X2549205Y766384D1*
X2559253Y762073D2*
Y747714D1*
X2573579Y734139D2*
X2575038Y731254D1*
X2579316Y726943D1*
X2549205D1*
Y711943D2*
X2579316Y697584D1*
Y717680D1*
X2449898Y743403D2*
X2480042Y754910D1*
X2449898Y766384D1*
X2459946Y762073D2*
Y747714D1*
X2474272Y734139D2*
X2475731Y731254D1*
X2480009Y726943D1*
X2449898D1*
X2475731Y700469D2*
X2478583Y701895D1*
X2480009Y706206D1*
Y709058D1*
X2478583Y713369D1*
X2474272Y716254D1*
X2467109Y717680D1*
X2459946D1*
X2454209Y716254D1*
X2451324Y713369D1*
X2449898Y709058D1*
Y707632D1*
X2451324Y703354D1*
X2454209Y700469D1*
X2458520Y699043D1*
X2459946D1*
X2464257Y700469D1*
X2467109Y703354D1*
X2468535Y707632D1*
Y709058D1*
X2467109Y713369D1*
X2464257Y716254D1*
X2459946Y717680D1*
X2340881Y743403D2*
X2371025Y754910D1*
X2340881Y766384D1*
X2350929Y762073D2*
Y747714D1*
X2365255Y734139D2*
X2366714Y731254D1*
X2370992Y726943D1*
X2340881D1*
X2370992Y700469D2*
Y714795D1*
X2358092Y716221D1*
X2359518Y714795D1*
X2360977Y710484D1*
Y706206D1*
X2359518Y701895D1*
X2356666Y699010D1*
X2352355Y697584D1*
X2349503D1*
X2345192Y699010D1*
X2342307Y701895D1*
X2340881Y706206D1*
Y710484D1*
X2342307Y714795D1*
X2343766Y716221D1*
X2346618Y717680D1*
X2241574Y743403D2*
X2271718Y754910D1*
X2241574Y766384D1*
X2251622Y762073D2*
Y747714D1*
X2265948Y734139D2*
X2267407Y731254D1*
X2271685Y726943D1*
X2241574D1*
Y703321D2*
X2271685D1*
X2251622Y717680D1*
Y696158D1*
X2142268Y743403D2*
X2172412Y754910D1*
X2142268Y766384D1*
X2152316Y762073D2*
Y747714D1*
X2166642Y734139D2*
X2168101Y731254D1*
X2172379Y726943D1*
X2142268D1*
X2172379Y714795D2*
Y699043D1*
X2160905Y707632D1*
Y703321D1*
X2159479Y700469D1*
X2158053Y699043D1*
X2153742Y697584D1*
X2150890D1*
X2146579Y699043D1*
X2143694Y701895D1*
X2142268Y706206D1*
Y710517D1*
X2143694Y714795D1*
X2145153Y716221D1*
X2148005Y717680D1*
X2042962Y743403D2*
X2073106Y754910D1*
X2042962Y766384D1*
X2053010Y762073D2*
Y747714D1*
X2067336Y734139D2*
X2068795Y731254D1*
X2073073Y726943D1*
X2042962D1*
X2065910Y716221D2*
X2067336D1*
X2070221Y714795D1*
X2071647Y713369D1*
X2073073Y710484D1*
Y704747D1*
X2071647Y701895D1*
X2070221Y700469D1*
X2067336Y699010D1*
X2064484D1*
X2061599Y700469D1*
X2057321Y703321D1*
X2042962Y717680D1*
Y697584D1*
X1943655Y743403D2*
X1973799Y754910D1*
X1943655Y766384D1*
X1953703Y762073D2*
Y747714D1*
X1968029Y734139D2*
X1969488Y731254D1*
X1973766Y726943D1*
X1943655D1*
X1968029Y717680D2*
X1969488Y714795D1*
X1973766Y710484D1*
X1943655D1*
X1844349Y743403D2*
X1874493Y754910D1*
X1844349Y766384D1*
X1854397Y762073D2*
Y747714D1*
X1868723Y734139D2*
X1870182Y731254D1*
X1874460Y726943D1*
X1844349D1*
X1874460Y709058D2*
X1873034Y713369D1*
X1868723Y716254D1*
X1861560Y717680D1*
X1857249D1*
X1850086Y716254D1*
X1845775Y713369D1*
X1844349Y709058D1*
Y706206D1*
X1845775Y701895D1*
X1850086Y699043D1*
X1857249Y697584D1*
X1861560D1*
X1868723Y699043D1*
X1873034Y701895D1*
X1874460Y706206D1*
Y709058D1*
X1868723Y699043D2*
X1850086Y716254D1*
X1745043Y743403D2*
X1775187Y754910D1*
X1745043Y766384D1*
X1755091Y762073D2*
Y747714D1*
X1765139Y715469D2*
X1760828Y716929D1*
X1757943Y719780D1*
X1756517Y724091D1*
Y725517D1*
X1757943Y729828D1*
X1760828Y732680D1*
X1765139Y734139D1*
X1766565D1*
X1770876Y732680D1*
X1773728Y729828D1*
X1775154Y725517D1*
Y724091D1*
X1773728Y719780D1*
X1770876Y716929D1*
X1765139Y715469D1*
X1757943D1*
X1750780Y716929D1*
X1746469Y719780D1*
X1745043Y724091D1*
Y726943D1*
X1746469Y731254D1*
X1749354Y732680D1*
X1645736Y743403D2*
X1675880Y754910D1*
X1645736Y766384D1*
X1655784Y762073D2*
Y747714D1*
X1675847Y726977D2*
X1674421Y731254D1*
X1671569Y732714D1*
X1668684D1*
X1665832Y731254D1*
X1664373Y728403D1*
X1662947Y722666D1*
X1661521Y718355D1*
X1658636Y715503D1*
X1655784Y714077D1*
X1651473D1*
X1648621Y715503D1*
X1647162Y716929D1*
X1645736Y721240D1*
Y726977D1*
X1647162Y731254D1*
X1648621Y732714D1*
X1651473Y734139D1*
X1655784D1*
X1658636Y732714D1*
X1661521Y729828D1*
X1662947Y725551D1*
X1664373Y719814D1*
X1665832Y716929D1*
X1668684Y715503D1*
X1671569D1*
X1674421Y716929D1*
X1675847Y721240D1*
Y726977D1*
X1546430Y743403D2*
X1576574Y754910D1*
X1546430Y766384D1*
X1556478Y762073D2*
Y747714D1*
X1546430Y728403D2*
X1576541Y714043D1*
Y734139D1*
X1447124Y743403D2*
X1477268Y754910D1*
X1447124Y766384D1*
X1457172Y762073D2*
Y747714D1*
X1472957Y716929D2*
X1475809Y718355D1*
X1477235Y722666D1*
Y725517D1*
X1475809Y729828D1*
X1471498Y732714D1*
X1464335Y734139D1*
X1457172D1*
X1451435Y732714D1*
X1448550Y729828D1*
X1447124Y725517D1*
Y724091D1*
X1448550Y719814D1*
X1451435Y716929D1*
X1455746Y715503D1*
X1457172D1*
X1461483Y716929D1*
X1464335Y719814D1*
X1465761Y724091D1*
Y725517D1*
X1464335Y729828D1*
X1461483Y732714D1*
X1457172Y734139D1*
X1347817Y743403D2*
X1377961Y754910D1*
X1347817Y766384D1*
X1357865Y762073D2*
Y747714D1*
X1377928Y716929D2*
Y731254D1*
X1365028Y732680D1*
X1366454Y731254D1*
X1367913Y726943D1*
Y722666D1*
X1366454Y718355D1*
X1363602Y715469D1*
X1359291Y714043D1*
X1356439D1*
X1352128Y715469D1*
X1349243Y718355D1*
X1347817Y722666D1*
Y726943D1*
X1349243Y731254D1*
X1350702Y732680D1*
X1353554Y734139D1*
X1248511Y743403D2*
X1278655Y754910D1*
X1248511Y766384D1*
X1258559Y762073D2*
Y747714D1*
X1248511Y719780D2*
X1278622D1*
X1258559Y734139D1*
Y712618D1*
X1149205Y743403D2*
X1179349Y754910D1*
X1149205Y766384D1*
X1159253Y762073D2*
Y747714D1*
X1179316Y731254D2*
Y715503D1*
X1167842Y724091D1*
Y719780D1*
X1166416Y716929D1*
X1164990Y715503D1*
X1160679Y714043D1*
X1157827D1*
X1153516Y715503D1*
X1150631Y718355D1*
X1149205Y722666D1*
Y726977D1*
X1150631Y731254D1*
X1152090Y732680D1*
X1154942Y734139D1*
X1049898Y743403D2*
X1080042Y754910D1*
X1049898Y766384D1*
X1059946Y762073D2*
Y747714D1*
X1072846Y732680D2*
X1074272D1*
X1077157Y731254D1*
X1078583Y729828D1*
X1080009Y726943D1*
Y721206D1*
X1078583Y718355D1*
X1077157Y716929D1*
X1074272Y715469D1*
X1071420D1*
X1068535Y716929D1*
X1064257Y719780D1*
X1049898Y734139D1*
Y714043D1*
X950592Y743403D2*
X980736Y754910D1*
X950592Y766384D1*
X960640Y762073D2*
Y747714D1*
X974966Y734139D2*
X976425Y731254D1*
X980703Y726943D1*
X950592D1*
X851286Y743403D2*
X881430Y754910D1*
X851286Y766384D1*
X861334Y762073D2*
Y747714D1*
X881397Y725517D2*
X879971Y729828D1*
X875660Y732714D1*
X868497Y734139D1*
X864186D1*
X857023Y732714D1*
X852712Y729828D1*
X851286Y725517D1*
Y722666D1*
X852712Y718355D1*
X857023Y715503D1*
X864186Y714043D1*
X868497D1*
X875660Y715503D1*
X879971Y718355D1*
X881397Y722666D1*
Y725517D1*
X875660Y715503D2*
X857023Y732714D1*
X3921519Y693997D2*
X3891375Y682490D1*
X3921519Y671016D1*
X3911471Y675327D2*
Y689686D1*
X3897145Y703261D2*
X3895686Y706146D1*
X3891408Y710457D1*
X3921519D1*
X3891375Y871016D2*
X3921519D1*
Y883949D1*
X3920060Y888260D1*
X3918634Y889686D1*
X3915782Y891112D1*
X3911471D1*
X3908586Y889686D1*
X3907160Y888260D1*
X3905734Y883949D1*
X3904275Y888260D1*
X3902849Y889686D1*
X3899997Y891112D1*
X3897112D1*
X3894260Y889686D1*
X3892801Y888260D1*
X3891375Y883949D1*
Y871016D1*
X3905734D2*
Y883949D1*
X3897145Y900375D2*
X3895686Y903261D1*
X3891408Y907572D1*
X3921519D1*
X740881Y693403D2*
X771025Y704910D1*
X740881Y716384D1*
X750929Y712073D2*
Y697714D1*
X770992Y681254D2*
Y665503D1*
X759518Y674091D1*
Y669780D1*
X758092Y666929D1*
X756666Y665503D1*
X752355Y664043D1*
X749503D1*
X745192Y665503D1*
X742307Y668355D1*
X740881Y672666D1*
Y676977D1*
X742307Y681254D1*
X743766Y682680D1*
X746618Y684139D1*
X765255Y654780D2*
X766714Y651895D1*
X770992Y647584D1*
X740881D1*
X771025Y916384D2*
X740881D1*
Y903451D1*
X742340Y899140D1*
X743766Y897714D1*
X746618Y896288D1*
X750929D1*
X753814Y897714D1*
X755240Y899140D1*
X756666Y903451D1*
X758125Y899140D1*
X759551Y897714D1*
X762403Y896288D1*
X765288D1*
X768140Y897714D1*
X769599Y899140D1*
X771025Y903451D1*
Y916384D1*
X756666D2*
Y903451D1*
X770992Y884139D2*
Y868388D1*
X759518Y876977D1*
Y872666D1*
X758092Y869814D1*
X756666Y868388D1*
X752355Y866929D1*
X749503D1*
X745192Y868388D1*
X742307Y871240D1*
X740881Y875551D1*
Y879862D1*
X742307Y884139D1*
X743766Y885565D1*
X746618Y887025D1*
X765255Y857665D2*
X766714Y854780D1*
X770992Y850469D1*
X740881D1*
X4584332Y1020933D2*
D55*
X4534092D1*
Y992248D1*
X4584332Y960062D2*
X4534092D1*
X4584332Y976809D2*
Y943316D1*
X4574715Y927876D2*
X4577147Y923068D1*
X4584277Y915883D1*
X4534092D1*
X4584277Y886074D2*
X4581900Y893259D1*
X4574715Y898067D1*
X4562777Y900444D1*
X4555592D1*
X4543654Y898067D1*
X4536469Y893259D1*
X4534092Y886074D1*
Y881320D1*
X4536469Y874135D1*
X4543654Y869382D1*
X4555592Y866950D1*
X4562777D1*
X4574715Y869382D1*
X4581900Y874135D1*
X4584277Y881320D1*
Y886074D1*
X4574715Y869382D2*
X4543654Y898067D1*
X4584277Y822826D2*
Y846703D1*
X4562777Y849079D1*
X4565154Y846703D1*
X4567586Y839518D1*
Y832388D1*
X4565154Y825203D1*
X4560400Y820394D1*
X4553215Y818018D1*
X4548462D1*
X4541277Y820394D1*
X4536469Y825203D1*
X4534092Y832388D1*
Y839518D1*
X4536469Y846703D1*
X4538901Y849079D1*
X4543654Y851511D1*
X4534092Y778647D2*
X4584277D1*
X4550839Y802579D1*
Y766709D1*
X4572394Y715399D2*
X4577147Y717776D1*
X4581956Y722584D1*
X4584332Y727338D1*
Y736899D1*
X4581956Y741708D1*
X4577147Y746461D1*
X4572394Y748893D1*
X4565209Y751269D1*
X4553215D1*
X4546086Y748893D1*
X4541277Y746461D1*
X4536524Y741708D1*
X4534092Y736899D1*
Y727338D1*
X4536524Y722584D1*
X4541277Y717776D1*
X4546086Y715399D1*
X4558024Y699960D2*
Y678405D1*
X4560400Y671275D1*
X4562832Y668843D1*
X4567586Y666467D1*
X4574771D1*
X4579524Y668843D1*
X4581956Y671275D1*
X4584332Y678405D1*
Y699960D1*
X4534092D1*
X4531715Y1383394D2*
D57*
X4534600Y1384853D1*
X4538911Y1389131D1*
Y1359020D1*
X4556796Y1389131D2*
X4552485Y1387705D1*
X4549600Y1383394D1*
X4548174Y1376231D1*
Y1371920D1*
X4549600Y1364757D1*
X4552485Y1360446D1*
X4556796Y1359020D1*
X4559648D1*
X4563959Y1360446D1*
X4566811Y1364757D1*
X4568270Y1371920D1*
Y1376231D1*
X4566811Y1383394D1*
X4563959Y1387705D1*
X4559648Y1389131D1*
X4556796D1*
X4566811Y1383394D2*
X4549600Y1364757D1*
X4586156Y1389131D2*
X4581845Y1387705D1*
X4578960Y1383394D1*
X4577534Y1376231D1*
Y1371920D1*
X4578960Y1364757D1*
X4581845Y1360446D1*
X4586156Y1359020D1*
X4589008D1*
X4593319Y1360446D1*
X4596171Y1364757D1*
X4597630Y1371920D1*
Y1376231D1*
X4596171Y1383394D1*
X4593319Y1387705D1*
X4589008Y1389131D1*
X4586156D1*
X4596171Y1383394D2*
X4578960Y1364757D1*
X4606893Y1379116D2*
Y1364757D1*
X4608319Y1360479D1*
X4611204Y1359020D1*
X4615515D1*
X4618367Y1360479D1*
X4622678Y1364757D1*
Y1379116D2*
Y1359020D1*
X4650612Y1389164D2*
X4631942D1*
Y1359020D1*
Y1374805D2*
X4643416D1*
X4265820Y966006D2*
X4267280Y963121D1*
X4271557Y958810D1*
X4241447D1*
X4271557Y940924D2*
X4270131Y945235D1*
X4265820Y948120D1*
X4258657Y949546D1*
X4254346D1*
X4247184Y948120D1*
X4242872Y945235D1*
X4241447Y940924D1*
Y938072D1*
X4242872Y933761D1*
X4247184Y930909D1*
X4254346Y929450D1*
X4258657D1*
X4265820Y930909D1*
X4270131Y933761D1*
X4271557Y938072D1*
Y940924D1*
X4265820Y930909D2*
X4247184Y948120D1*
X4261543Y920186D2*
X4247184D1*
X4242906Y918760D1*
X4241447Y915875D1*
Y911564D1*
X4242906Y908712D1*
X4247184Y904401D1*
X4261543D2*
X4241447D1*
X4271591Y876468D2*
Y895138D1*
X4241447D1*
X4257232D2*
Y883664D1*
X4265820Y766006D2*
X4267280Y763121D1*
X4271557Y758810D1*
X4241447D1*
X4271557Y740924D2*
X4270131Y745235D1*
X4265820Y748120D1*
X4258657Y749546D1*
X4254346D1*
X4247184Y748120D1*
X4242872Y745235D1*
X4241447Y740924D1*
Y738072D1*
X4242872Y733761D1*
X4247184Y730909D1*
X4254346Y729450D1*
X4258657D1*
X4265820Y730909D1*
X4270131Y733761D1*
X4271557Y738072D1*
Y740924D1*
X4265820Y730909D2*
X4247184Y748120D1*
X4261543Y720186D2*
X4247184D1*
X4242906Y718760D1*
X4241447Y715875D1*
Y711564D1*
X4242906Y708712D1*
X4247184Y704401D1*
X4261543D2*
X4241447D1*
X4271591Y676468D2*
Y695138D1*
X4241447D1*
X4257232D2*
Y683664D1*
X4265820Y1166006D2*
X4267280Y1163121D1*
X4271557Y1158810D1*
X4241447D1*
X4271557Y1140924D2*
X4270131Y1145235D1*
X4265820Y1148120D1*
X4258657Y1149546D1*
X4254346D1*
X4247184Y1148120D1*
X4242872Y1145235D1*
X4241447Y1140924D1*
Y1138072D1*
X4242872Y1133761D1*
X4247184Y1130909D1*
X4254346Y1129450D1*
X4258657D1*
X4265820Y1130909D1*
X4270131Y1133761D1*
X4271557Y1138072D1*
Y1140924D1*
X4265820Y1130909D2*
X4247184Y1148120D1*
X4261543Y1120186D2*
X4247184D1*
X4242906Y1118760D1*
X4241447Y1115875D1*
Y1111564D1*
X4242906Y1108712D1*
X4247184Y1104401D1*
X4261543D2*
X4241447D1*
X4271591Y1076468D2*
Y1095138D1*
X4241447D1*
X4257232D2*
Y1083664D1*
X745894Y548432D2*
X747353Y545547D1*
X751631Y541236D1*
X721520D1*
X751631Y523350D2*
X750205Y527661D1*
X745894Y530547D1*
X738731Y531972D1*
X734420D1*
X727257Y530547D1*
X722946Y527661D1*
X721520Y523350D1*
Y520499D1*
X722946Y516188D1*
X727257Y513336D1*
X734420Y511876D1*
X738731D1*
X745894Y513336D1*
X750205Y516188D1*
X751631Y520499D1*
Y523350D1*
X745894Y513336D2*
X727257Y530547D1*
X741616Y502613D2*
X727257D1*
X722979Y501187D1*
X721520Y498302D1*
Y493991D1*
X722979Y491139D1*
X727257Y486828D1*
X741616D2*
X721520D1*
X751664Y458894D2*
Y477564D1*
X721520D1*
X737305D2*
Y466090D1*
X5046394Y1383394D2*
X5049279Y1384853D1*
X5053590Y1389131D1*
Y1359020D1*
X5071476Y1389131D2*
X5067165Y1387705D1*
X5064280Y1383394D1*
X5062854Y1376231D1*
Y1371920D1*
X5064280Y1364757D1*
X5067165Y1360446D1*
X5071476Y1359020D1*
X5074328D1*
X5078639Y1360446D1*
X5081491Y1364757D1*
X5082950Y1371920D1*
Y1376231D1*
X5081491Y1383394D1*
X5078639Y1387705D1*
X5074328Y1389131D1*
X5071476D1*
X5081491Y1383394D2*
X5064280Y1364757D1*
X5092214Y1379116D2*
Y1364757D1*
X5093640Y1360479D1*
X5096525Y1359020D1*
X5100836D1*
X5103688Y1360479D1*
X5107999Y1364757D1*
Y1379116D2*
Y1359020D1*
X5135932Y1389164D2*
X5117262D1*
Y1359020D1*
Y1374805D2*
X5128736D1*
X2553308Y3310016D2*
D55*
X2503123D1*
X2536561Y3286084D1*
Y3321954D1*
X2503068Y3337394D2*
X2553308D1*
X2503068Y3370887D2*
X2536561Y3337394D1*
X2524568Y3349332D2*
X2553308Y3370887D1*
Y3395888D2*
X2503123Y3419820D1*
Y3386326D1*
X2653308Y3310016D2*
X2603123D1*
X2636561Y3286084D1*
Y3321954D1*
X2603068Y3337394D2*
X2653308D1*
X2603068Y3370887D2*
X2636561Y3337394D1*
X2624568Y3349332D2*
X2653308Y3370887D1*
Y3395888D2*
X2603123Y3419820D1*
Y3386326D1*
X2753308Y3310016D2*
X2703123D1*
X2736561Y3286084D1*
Y3321954D1*
X2703068Y3337394D2*
X2753308D1*
X2703068Y3370887D2*
X2736561Y3337394D1*
X2724568Y3349332D2*
X2753308Y3370887D1*
Y3395888D2*
X2703123Y3419820D1*
Y3386326D1*
X2853308Y3310016D2*
X2803123D1*
X2836561Y3286084D1*
Y3321954D1*
X2803068Y3337394D2*
X2853308D1*
X2803068Y3370887D2*
X2836561Y3337394D1*
X2824568Y3349332D2*
X2853308Y3370887D1*
Y3395888D2*
X2803123Y3419820D1*
Y3386326D1*
M02*
